<?xml version="1.0" encoding="UTF-8" standalone="no"?>
<!DOCTYPE svg PUBLIC "-//W3C//DTD SVG 1.1//EN"
 "http://www.w3.org/Graphics/SVG/1.1/DTD/svg11.dtd">
<!-- Generated by graphviz version 2.42.3 (20191010.1750)
 -->
<!-- Title: STIX Pages: 1 -->
<svg width="436pt" height="375pt"
 viewBox="0.00 0.00 435.60 375.00" xmlns="http://www.w3.org/2000/svg" xmlns:xlink="http://www.w3.org/1999/xlink">
<g id="graph0" class="graph" transform="scale(1 1) rotate(0) translate(4 371)">
<title>STIX</title>
<polygon fill="white" stroke="transparent" points="-4,4 -4,-371 431.6,-371 431.6,4 -4,4"/>
<!-- attack_pattern -->
<g id="node1" class="node">
<title>attack_pattern</title>
<polygon fill="none" stroke="black" stroke-width="0" points="246.03,-213 187.03,-213 187.03,-154 246.03,-154 246.03,-213"/>
<image xlink:href="/cti-documentation/img/icons/attack_pattern.png" width="59px" height="59px" preserveAspectRatio="xMinYMin meet" x="187.034" y="-213"/>
</g>
<!-- identity -->
<g id="node4" class="node">
<title>identity</title>
<polygon fill="none" stroke="black" stroke-width="0" points="427.6,-367 368.6,-367 368.6,-308 427.6,-308 427.6,-367"/>
<image xlink:href="/cti-documentation/img/icons/identity.png" width="59px" height="59px" preserveAspectRatio="xMinYMin meet" x="368.6" y="-367"/>
</g>
<!-- attack_pattern&#45;&gt;identity -->
<g id="edge2" class="edge">
<title>attack_pattern&#45;&gt;identity</title>
<path fill="none" stroke="black" stroke-width="0.3" d="M241.59,-213.26C253.17,-226.8 267.65,-242.63 282.03,-255.5 306.35,-277.25 336.46,-298.54 359.78,-313.97"/>
<polygon fill="black" stroke="black" stroke-width="0.3" points="358.08,-317.03 368.36,-319.58 361.91,-311.18 358.08,-317.03"/>
<text text-anchor="middle" x="307.32" y="-296.3" font-family="Helvetica,sans-Serif" font-size="14.00">Targets</text>
</g>
<!-- location -->
<g id="node7" class="node">
<title>location</title>
<polygon fill="none" stroke="black" stroke-width="0" points="427.6,-290 368.6,-290 368.6,-231 427.6,-231 427.6,-290"/>
<image xlink:href="/cti-documentation/img/icons/location.png" width="59px" height="59px" preserveAspectRatio="xMinYMin meet" x="368.6" y="-290"/>
</g>
<!-- attack_pattern&#45;&gt;location -->
<g id="edge3" class="edge">
<title>attack_pattern&#45;&gt;location</title>
<path fill="none" stroke="black" stroke-width="0.3" d="M246.04,-199.53C257.12,-205.49 270.02,-212.12 282.03,-217.5 307.12,-228.75 336.12,-239.57 358.74,-247.55"/>
<polygon fill="black" stroke="black" stroke-width="0.3" points="357.72,-250.9 368.32,-250.89 360.03,-244.29 357.72,-250.9"/>
<text text-anchor="middle" x="307.32" y="-240.3" font-family="Helvetica,sans-Serif" font-size="14.00">Targets</text>
</g>
<!-- malware -->
<g id="node8" class="node">
<title>malware</title>
<polygon fill="none" stroke="black" stroke-width="0" points="427.6,-213 368.6,-213 368.6,-154 427.6,-154 427.6,-213"/>
<image xlink:href="/cti-documentation/img/icons/malware.png" width="59px" height="59px" preserveAspectRatio="xMinYMin meet" x="368.6" y="-213"/>
</g>
<!-- attack_pattern&#45;&gt;malware -->
<g id="edge1" class="edge">
<title>attack_pattern&#45;&gt;malware</title>
<path fill="none" stroke="black" stroke-width="0.3" d="M246.19,-191.64C257.28,-194.41 270.16,-197.14 282.03,-198.5 304.36,-201.06 310.27,-201.06 332.6,-198.5 341.04,-197.53 349.99,-195.87 358.45,-194"/>
<polygon fill="black" stroke="black" stroke-width="0.3" points="359.52,-197.34 368.45,-191.64 357.91,-190.53 359.52,-197.34"/>
<text text-anchor="middle" x="307.32" y="-202.3" font-family="Helvetica,sans-Serif" font-size="14.00">Delivers</text>
</g>
<!-- attack_pattern&#45;&gt;malware -->
<g id="edge5" class="edge">
<title>attack_pattern&#45;&gt;malware</title>
<path fill="none" stroke="black" stroke-width="0.3" d="M246.1,-181.89C257.3,-181.33 270.27,-180.77 282.03,-180.5 304.5,-179.98 310.13,-179.98 332.6,-180.5 340.97,-180.69 349.94,-181.03 358.45,-181.41"/>
<polygon fill="black" stroke="black" stroke-width="0.3" points="358.38,-184.91 368.53,-181.89 358.71,-177.92 358.38,-184.91"/>
<text text-anchor="middle" x="307.32" y="-183.3" font-family="Helvetica,sans-Serif" font-size="14.00">Uses</text>
</g>
<!-- tool -->
<g id="node10" class="node">
<title>tool</title>
<polygon fill="none" stroke="black" stroke-width="0" points="427.6,-136 368.6,-136 368.6,-77 427.6,-77 427.6,-136"/>
<image xlink:href="/cti-documentation/img/icons/tool.png" width="59px" height="59px" preserveAspectRatio="xMinYMin meet" x="368.6" y="-136"/>
</g>
<!-- attack_pattern&#45;&gt;tool -->
<g id="edge6" class="edge">
<title>attack_pattern&#45;&gt;tool</title>
<path fill="none" stroke="black" stroke-width="0.3" d="M246.3,-161.63C257.09,-154.17 269.72,-146.26 282.03,-140.5 306.41,-129.09 335.5,-120.54 358.32,-114.86"/>
<polygon fill="black" stroke="black" stroke-width="0.3" points="359.43,-118.2 368.33,-112.46 357.79,-111.39 359.43,-118.2"/>
<text text-anchor="middle" x="307.32" y="-143.3" font-family="Helvetica,sans-Serif" font-size="14.00">Uses</text>
</g>
<!-- vulnerability -->
<g id="node11" class="node">
<title>vulnerability</title>
<polygon fill="none" stroke="black" stroke-width="0" points="427.6,-59 368.6,-59 368.6,0 427.6,0 427.6,-59"/>
<image xlink:href="/cti-documentation/img/icons/vulnerability.png" width="59px" height="59px" preserveAspectRatio="xMinYMin meet" x="368.6" y="-59"/>
</g>
<!-- attack_pattern&#45;&gt;vulnerability -->
<g id="edge4" class="edge">
<title>attack_pattern&#45;&gt;vulnerability</title>
<path fill="none" stroke="black" stroke-width="0.3" d="M237.89,-153.8C249.68,-137.83 265.44,-118.4 282.03,-103.5 305.59,-82.34 335.81,-63.15 359.37,-49.62"/>
<polygon fill="black" stroke="black" stroke-width="0.3" points="361.39,-52.5 368.37,-44.54 357.94,-46.41 361.39,-52.5"/>
<text text-anchor="middle" x="307.32" y="-106.3" font-family="Helvetica,sans-Serif" font-size="14.00">Targets</text>
</g>
<!-- campaign -->
<g id="node2" class="node">
<title>campaign</title>
<polygon fill="none" stroke="black" stroke-width="0" points="59,-367 0,-367 0,-308 59,-308 59,-367"/>
<image xlink:href="/cti-documentation/img/icons/campaign.png" width="59px" height="59px" preserveAspectRatio="xMinYMin meet" x="0" y="-367"/>
</g>
<!-- campaign&#45;&gt;attack_pattern -->
<g id="edge9" class="edge">
<title>campaign&#45;&gt;attack_pattern</title>
<path fill="none" stroke="black" stroke-width="0.3" d="M59.35,-318.82C84.47,-302.06 121.41,-276.21 151.03,-250.5 161.53,-241.39 172.26,-230.84 181.88,-220.83"/>
<polygon fill="black" stroke="black" stroke-width="0.3" points="184.65,-222.99 188.99,-213.33 179.57,-218.18 184.65,-222.99"/>
<text text-anchor="middle" x="123.02" y="-295.3" font-family="Helvetica,sans-Serif" font-size="14.00">Uses</text>
</g>
<!-- course_of_action -->
<g id="node3" class="node">
<title>course_of_action</title>
<polygon fill="none" stroke="black" stroke-width="0" points="59,-290 0,-290 0,-231 59,-231 59,-290"/>
<image xlink:href="/cti-documentation/img/icons/course_of_action.png" width="59px" height="59px" preserveAspectRatio="xMinYMin meet" x="0" y="-290"/>
</g>
<!-- course_of_action&#45;&gt;attack_pattern -->
<g id="edge8" class="edge">
<title>course_of_action&#45;&gt;attack_pattern</title>
<path fill="none" stroke="black" stroke-width="0.3" d="M59.01,-248.64C90.79,-235.41 142.34,-213.96 177.53,-199.31"/>
<polygon fill="black" stroke="black" stroke-width="0.3" points="179.11,-202.45 187,-195.38 176.42,-195.99 179.11,-202.45"/>
<text text-anchor="middle" x="123.02" y="-235.3" font-family="Helvetica,sans-Serif" font-size="14.00">Mitigates</text>
</g>
<!-- indicator -->
<g id="node5" class="node">
<title>indicator</title>
<polygon fill="none" stroke="black" stroke-width="0" points="59,-213 0,-213 0,-154 59,-154 59,-213"/>
<image xlink:href="/cti-documentation/img/icons/indicator.png" width="59px" height="59px" preserveAspectRatio="xMinYMin meet" x="0" y="-213"/>
</g>
<!-- indicator&#45;&gt;attack_pattern -->
<g id="edge7" class="edge">
<title>indicator&#45;&gt;attack_pattern</title>
<path fill="none" stroke="black" stroke-width="0.3" d="M59.01,-183.5C90.52,-183.5 141.46,-183.5 176.63,-183.5"/>
<polygon fill="black" stroke="black" stroke-width="0.3" points="177,-187 187,-183.5 177,-180 177,-187"/>
<text text-anchor="middle" x="123.02" y="-186.3" font-family="Helvetica,sans-Serif" font-size="14.00">Indicates</text>
</g>
<!-- intrusion_set -->
<g id="node6" class="node">
<title>intrusion_set</title>
<polygon fill="none" stroke="black" stroke-width="0" points="59,-136 0,-136 0,-77 59,-77 59,-136"/>
<image xlink:href="/cti-documentation/img/icons/intrusion_set.png" width="59px" height="59px" preserveAspectRatio="xMinYMin meet" x="0" y="-136"/>
</g>
<!-- intrusion_set&#45;&gt;attack_pattern -->
<g id="edge10" class="edge">
<title>intrusion_set&#45;&gt;attack_pattern</title>
<path fill="none" stroke="black" stroke-width="0.3" d="M59.01,-118.36C90.79,-131.59 142.34,-153.04 177.53,-167.69"/>
<polygon fill="black" stroke="black" stroke-width="0.3" points="176.42,-171.01 187,-171.62 179.11,-164.55 176.42,-171.01"/>
<text text-anchor="middle" x="123.02" y="-158.3" font-family="Helvetica,sans-Serif" font-size="14.00">Uses</text>
</g>
<!-- malware&#45;&gt;attack_pattern -->
<g id="edge11" class="edge">
<title>malware&#45;&gt;attack_pattern</title>
<path fill="none" stroke="black" stroke-width="0.3" d="M368.4,-171.45C357.41,-167.44 344.62,-163.49 332.6,-161.5 310.43,-157.82 304.2,-157.82 282.03,-161.5 273.39,-162.93 264.36,-165.38 255.87,-168.13"/>
<polygon fill="black" stroke="black" stroke-width="0.3" points="254.54,-164.88 246.23,-171.45 256.82,-171.5 254.54,-164.88"/>
<text text-anchor="middle" x="307.32" y="-164.3" font-family="Helvetica,sans-Serif" font-size="14.00">Uses</text>
</g>
<!-- threat_actor -->
<g id="node9" class="node">
<title>threat_actor</title>
<polygon fill="none" stroke="black" stroke-width="0" points="59,-59 0,-59 0,0 59,0 59,-59"/>
<image xlink:href="/cti-documentation/img/icons/threat_actor.png" width="59px" height="59px" preserveAspectRatio="xMinYMin meet" x="0" y="-59"/>
</g>
<!-- threat_actor&#45;&gt;attack_pattern -->
<g id="edge12" class="edge">
<title>threat_actor&#45;&gt;attack_pattern</title>
<path fill="none" stroke="black" stroke-width="0.3" d="M59.42,-47.85C84.58,-64.35 121.55,-89.86 151.03,-115.5 161.9,-124.95 172.97,-136 182.79,-146.4"/>
<polygon fill="black" stroke="black" stroke-width="0.3" points="180.33,-148.9 189.71,-153.84 185.46,-144.13 180.33,-148.9"/>
<text text-anchor="middle" x="123.02" y="-118.3" font-family="Helvetica,sans-Serif" font-size="14.00">Uses</text>
</g>
</g>
</svg>
