<?xml version="1.0" encoding="UTF-8" standalone="no"?>
<!DOCTYPE svg PUBLIC "-//W3C//DTD SVG 1.1//EN"
 "http://www.w3.org/Graphics/SVG/1.1/DTD/svg11.dtd">
<!-- Generated by graphviz version 2.36.0 (20140111.2315)
 -->
<!-- Title: STIX Pages: 1 -->
<svg width="438pt" height="374pt"
 viewBox="0.00 0.00 438.00 374.00" xmlns="http://www.w3.org/2000/svg" xmlns:xlink="http://www.w3.org/1999/xlink">
<g id="graph0" class="graph" transform="scale(1 1) rotate(0) translate(4 370)">
<title>STIX</title>
<polygon fill="white" stroke="none" points="-4,4 -4,-370 434,-370 434,4 -4,4"/>
<!-- attack_pattern -->
<g id="node1" class="node"><title>attack_pattern</title>
<polygon fill="none" stroke="black" stroke-width="0" points="249.5,-212.5 190.5,-212.5 190.5,-153.5 249.5,-153.5 249.5,-212.5"/>
<image xlink:href="/cti-documentation/img/icons/attack_pattern.png" width="44.25px" height="44.25px" preserveAspectRatio="xMinYMin meet" x="197.875" y="-205.125"/>
</g>
<!-- identity -->
<g id="node4" class="node"><title>identity</title>
<polygon fill="none" stroke="black" stroke-width="0" points="429.5,-328.5 370.5,-328.5 370.5,-269.5 429.5,-269.5 429.5,-328.5"/>
<image xlink:href="/cti-documentation/img/icons/identity.png" width="44.25px" height="44.25px" preserveAspectRatio="xMinYMin meet" x="377.875" y="-321.125"/>
</g>
<!-- attack_pattern&#45;&gt;identity -->
<g id="edge1" class="edge"><title>attack_pattern&#45;&gt;identity</title>
<path fill="none" stroke="black" stroke-width="0.3" d="M249.754,-202.118C261.037,-209.595 274.109,-218.226 286,-226 311.197,-242.472 339.666,-260.863 361.725,-275.064"/>
<polygon fill="black" stroke="black" stroke-width="0.3" points="359.845,-278.016 370.148,-280.484 363.632,-272.129 359.845,-278.016"/>
<text text-anchor="middle" x="310" y="-259.8" font-family="Helvetica,sans-Serif" font-size="14.00">Targets</text>
</g>
<!-- malware -->
<g id="node7" class="node"><title>malware</title>
<polygon fill="none" stroke="black" stroke-width="0" points="429.5,-251.5 370.5,-251.5 370.5,-192.5 429.5,-192.5 429.5,-251.5"/>
<image xlink:href="/cti-documentation/img/icons/malware.png" width="44.25px" height="44.25px" preserveAspectRatio="xMinYMin meet" x="377.875" y="-244.125"/>
</g>
<!-- attack_pattern&#45;&gt;malware -->
<g id="edge3" class="edge"><title>attack_pattern&#45;&gt;malware</title>
<path fill="none" stroke="black" stroke-width="0.3" d="M249.599,-189.266C279.701,-195.862 327.259,-206.282 360.612,-213.589"/>
<polygon fill="black" stroke="black" stroke-width="0.3" points="359.955,-217.028 370.472,-215.75 361.453,-210.19 359.955,-217.028"/>
<text text-anchor="middle" x="310" y="-210.8" font-family="Helvetica,sans-Serif" font-size="14.00">Uses</text>
</g>
<!-- tool -->
<g id="node9" class="node"><title>tool</title>
<polygon fill="none" stroke="black" stroke-width="0" points="429.5,-174.5 370.5,-174.5 370.5,-115.5 429.5,-115.5 429.5,-174.5"/>
<image xlink:href="/cti-documentation/img/icons/tool.png" width="44.25px" height="44.25px" preserveAspectRatio="xMinYMin meet" x="377.875" y="-167.125"/>
</g>
<!-- attack_pattern&#45;&gt;tool -->
<g id="edge4" class="edge"><title>attack_pattern&#45;&gt;tool</title>
<path fill="none" stroke="black" stroke-width="0.3" d="M249.599,-176.895C279.701,-170.468 327.259,-160.315 360.612,-153.195"/>
<polygon fill="black" stroke="black" stroke-width="0.3" points="361.423,-156.601 370.472,-151.09 359.962,-149.755 361.423,-156.601"/>
<text text-anchor="middle" x="310" y="-171.8" font-family="Helvetica,sans-Serif" font-size="14.00">Uses</text>
</g>
<!-- vulnerability -->
<g id="node10" class="node"><title>vulnerability</title>
<polygon fill="none" stroke="black" stroke-width="0" points="429.5,-97.5 370.5,-97.5 370.5,-38.5 429.5,-38.5 429.5,-97.5"/>
<image xlink:href="/cti-documentation/img/icons/vulnerability.png" width="44.25px" height="44.25px" preserveAspectRatio="xMinYMin meet" x="377.875" y="-90.125"/>
</g>
<!-- attack_pattern&#45;&gt;vulnerability -->
<g id="edge2" class="edge"><title>attack_pattern&#45;&gt;vulnerability</title>
<path fill="none" stroke="black" stroke-width="0.3" d="M249.729,-163.843C261.008,-156.361 274.084,-147.737 286,-140 311.036,-123.745 339.364,-105.695 361.395,-91.7344"/>
<polygon fill="black" stroke="black" stroke-width="0.3" points="363.54,-94.5186 370.117,-86.2121 359.796,-88.6043 363.54,-94.5186"/>
<text text-anchor="middle" x="310" y="-143.8" font-family="Helvetica,sans-Serif" font-size="14.00">Targets</text>
</g>
<!-- campaign -->
<g id="node2" class="node"><title>campaign</title>
<polygon fill="none" stroke="black" stroke-width="0" points="59.5,-366.5 0.5,-366.5 0.5,-307.5 59.5,-307.5 59.5,-366.5"/>
<image xlink:href="/cti-documentation/img/icons/campaign.png" width="44.25px" height="44.25px" preserveAspectRatio="xMinYMin meet" x="7.875" y="-359.125"/>
</g>
<!-- campaign&#45;&gt;attack_pattern -->
<g id="edge5" class="edge"><title>campaign&#45;&gt;attack_pattern</title>
<path fill="none" stroke="black" stroke-width="0.3" d="M59.5151,-319.365C85.2204,-302.942 123.545,-277.127 154,-251 165.071,-241.502 176.33,-230.354 186.297,-219.863"/>
<polygon fill="black" stroke="black" stroke-width="0.3" points="189.028,-222.067 193.305,-212.373 183.917,-217.284 189.028,-222.067"/>
<text text-anchor="middle" x="125" y="-296.8" font-family="Helvetica,sans-Serif" font-size="14.00">Uses</text>
</g>
<!-- course_of_action -->
<g id="node3" class="node"><title>course_of_action</title>
<polygon fill="none" stroke="black" stroke-width="0" points="59.5,-289.5 0.5,-289.5 0.5,-230.5 59.5,-230.5 59.5,-289.5"/>
<image xlink:href="/cti-documentation/img/icons/course_of_action.png" width="44.25px" height="44.25px" preserveAspectRatio="xMinYMin meet" x="7.875" y="-282.125"/>
</g>
<!-- course_of_action&#45;&gt;attack_pattern -->
<g id="edge8" class="edge"><title>course_of_action&#45;&gt;attack_pattern</title>
<path fill="none" stroke="black" stroke-width="0.3" d="M59.5532,-248.305C91.9459,-235.038 144.923,-213.34 180.84,-198.629"/>
<polygon fill="black" stroke="black" stroke-width="0.3" points="182.559,-201.707 190.487,-194.678 179.906,-195.23 182.559,-201.707"/>
<text text-anchor="middle" x="125" y="-235.8" font-family="Helvetica,sans-Serif" font-size="14.00">Mitigates</text>
</g>
<!-- indicator -->
<g id="node5" class="node"><title>indicator</title>
<polygon fill="none" stroke="black" stroke-width="0" points="59.5,-212.5 0.5,-212.5 0.5,-153.5 59.5,-153.5 59.5,-212.5"/>
<image xlink:href="/cti-documentation/img/icons/indicator.png" width="44.25px" height="44.25px" preserveAspectRatio="xMinYMin meet" x="7.875" y="-205.125"/>
</g>
<!-- indicator&#45;&gt;attack_pattern -->
<g id="edge9" class="edge"><title>indicator&#45;&gt;attack_pattern</title>
<path fill="none" stroke="black" stroke-width="0.3" d="M59.5532,-183C91.8075,-183 144.471,-183 180.379,-183"/>
<polygon fill="black" stroke="black" stroke-width="0.3" points="180.487,-186.5 190.487,-183 180.487,-179.5 180.487,-186.5"/>
<text text-anchor="middle" x="125" y="-186.8" font-family="Helvetica,sans-Serif" font-size="14.00">Indicates</text>
</g>
<!-- intrusion_set -->
<g id="node6" class="node"><title>intrusion_set</title>
<polygon fill="none" stroke="black" stroke-width="0" points="59.5,-135.5 0.5,-135.5 0.5,-76.5 59.5,-76.5 59.5,-135.5"/>
<image xlink:href="/cti-documentation/img/icons/intrusion_set.png" width="44.25px" height="44.25px" preserveAspectRatio="xMinYMin meet" x="7.875" y="-128.125"/>
</g>
<!-- intrusion_set&#45;&gt;attack_pattern -->
<g id="edge6" class="edge"><title>intrusion_set&#45;&gt;attack_pattern</title>
<path fill="none" stroke="black" stroke-width="0.3" d="M59.5532,-117.695C91.9459,-130.962 144.923,-152.66 180.84,-167.371"/>
<polygon fill="black" stroke="black" stroke-width="0.3" points="179.906,-170.77 190.487,-171.322 182.559,-164.293 179.906,-170.77"/>
<text text-anchor="middle" x="125" y="-158.8" font-family="Helvetica,sans-Serif" font-size="14.00">Uses</text>
</g>
<!-- threat_actor -->
<g id="node8" class="node"><title>threat_actor</title>
<polygon fill="none" stroke="black" stroke-width="0" points="59.5,-58.5 0.5,-58.5 0.5,0.5 59.5,0.5 59.5,-58.5"/>
<image xlink:href="/cti-documentation/img/icons/threat_actor.png" width="44.25px" height="44.25px" preserveAspectRatio="xMinYMin meet" x="7.875" y="-51.125"/>
</g>
<!-- threat_actor&#45;&gt;attack_pattern -->
<g id="edge7" class="edge"><title>threat_actor&#45;&gt;attack_pattern</title>
<path fill="none" stroke="black" stroke-width="0.3" d="M59.5815,-46.3198C85.3315,-62.4775 123.685,-87.9446 154,-114 165.248,-123.668 176.633,-135.08 186.664,-145.811"/>
<polygon fill="black" stroke="black" stroke-width="0.3" points="184.361,-148.478 193.707,-153.469 189.514,-143.739 184.361,-148.478"/>
<text text-anchor="middle" x="125" y="-117.8" font-family="Helvetica,sans-Serif" font-size="14.00">Uses</text>
</g>
</g>
</svg>
