<?xml version="1.0" encoding="UTF-8" standalone="no"?>
<!DOCTYPE svg PUBLIC "-//W3C//DTD SVG 1.1//EN"
 "http://www.w3.org/Graphics/SVG/1.1/DTD/svg11.dtd">
<!-- Generated by graphviz version 2.42.3 (20191010.1750)
 -->
<!-- Title: STIX Pages: 1 -->
<svg width="482pt" height="683pt"
 viewBox="0.00 0.00 481.50 683.00" xmlns="http://www.w3.org/2000/svg" xmlns:xlink="http://www.w3.org/1999/xlink">
<g id="graph0" class="graph" transform="scale(1 1) rotate(0) translate(4 679)">
<title>STIX</title>
<polygon fill="white" stroke="transparent" points="-4,4 -4,-679 477.5,-679 477.5,4 -4,4"/>
<!-- attack_pattern -->
<g id="node1" class="node">
<title>attack_pattern</title>
<polygon fill="none" stroke="black" stroke-width="0" points="473.5,-675 414.5,-675 414.5,-616 473.5,-616 473.5,-675"/>
<image xlink:href="attack_pattern.png" width="59px" height="59px" preserveAspectRatio="xMinYMin meet" x="414.503" y="-675"/>
</g>
<!-- campaign -->
<g id="node2" class="node">
<title>campaign</title>
<polygon fill="none" stroke="black" stroke-width="0" points="246.03,-404 187.03,-404 187.03,-345 246.03,-345 246.03,-404"/>
<image xlink:href="campaign.png" width="59px" height="59px" preserveAspectRatio="xMinYMin meet" x="187.034" y="-404"/>
</g>
<!-- campaign&#45;&gt;attack_pattern -->
<g id="edge8" class="edge">
<title>campaign&#45;&gt;attack_pattern</title>
<path fill="none" stroke="black" stroke-width="0.3" d="M219.59,-404.02C224.04,-446.66 238.06,-525.73 282.03,-574.5 314.38,-610.37 368.18,-629.02 404.59,-638.03"/>
<polygon fill="black" stroke="black" stroke-width="0.3" points="403.84,-641.45 414.37,-640.33 405.43,-634.63 403.84,-641.45"/>
<text text-anchor="middle" x="330.27" y="-632.3" font-family="Helvetica,sans-Serif" font-size="14.00">Uses</text>
</g>
<!-- identity -->
<g id="node3" class="node">
<title>identity</title>
<polygon fill="none" stroke="black" stroke-width="0" points="473.5,-598 414.5,-598 414.5,-539 473.5,-539 473.5,-598"/>
<image xlink:href="identity.png" width="59px" height="59px" preserveAspectRatio="xMinYMin meet" x="414.503" y="-598"/>
</g>
<!-- campaign&#45;&gt;identity -->
<g id="edge5" class="edge">
<title>campaign&#45;&gt;identity</title>
<path fill="none" stroke="black" stroke-width="0.3" d="M224.31,-404.22C232.8,-435.07 250.26,-482.75 282.03,-511.5 316.35,-542.55 368.66,-556.93 404.27,-563.42"/>
<polygon fill="black" stroke="black" stroke-width="0.3" points="403.84,-566.9 414.29,-565.12 405.02,-560 403.84,-566.9"/>
<text text-anchor="middle" x="330.27" y="-559.3" font-family="Helvetica,sans-Serif" font-size="14.00">Targets</text>
</g>
<!-- infrastructure -->
<g id="node5" class="node">
<title>infrastructure</title>
<polygon fill="none" stroke="black" stroke-width="0" points="473.5,-521 414.5,-521 414.5,-462 473.5,-462 473.5,-521"/>
<image xlink:href="infrastructure.png" width="59px" height="59px" preserveAspectRatio="xMinYMin meet" x="414.503" y="-521"/>
</g>
<!-- campaign&#45;&gt;infrastructure -->
<g id="edge3" class="edge">
<title>campaign&#45;&gt;infrastructure</title>
<path fill="none" stroke="black" stroke-width="0.3" d="M229.87,-404.1C240.44,-425.6 257.82,-453.47 282.03,-468.5 318.87,-491.37 369.46,-495.08 404.03,-494.38"/>
<polygon fill="black" stroke="black" stroke-width="0.3" points="404.33,-497.87 414.21,-494.04 404.1,-490.88 404.33,-497.87"/>
<text text-anchor="middle" x="330.27" y="-496.3" font-family="Helvetica,sans-Serif" font-size="14.00">Compromises</text>
</g>
<!-- campaign&#45;&gt;infrastructure -->
<g id="edge9" class="edge">
<title>campaign&#45;&gt;infrastructure</title>
<path fill="none" stroke="black" stroke-width="0.3" d="M246.15,-397.88C256.93,-405.86 269.59,-414.33 282.03,-420.5 322.26,-440.45 337.76,-431.62 378.5,-450.5 387.71,-454.77 397.18,-460.15 405.92,-465.59"/>
<polygon fill="black" stroke="black" stroke-width="0.3" points="404.09,-468.57 414.39,-471.02 407.86,-462.67 404.09,-468.57"/>
<text text-anchor="middle" x="330.27" y="-453.3" font-family="Helvetica,sans-Serif" font-size="14.00">Uses</text>
</g>
<!-- intrusion_set -->
<g id="node6" class="node">
<title>intrusion_set</title>
<polygon fill="none" stroke="black" stroke-width="0" points="473.5,-444 414.5,-444 414.5,-385 473.5,-385 473.5,-444"/>
<image xlink:href="intrusion_set.png" width="59px" height="59px" preserveAspectRatio="xMinYMin meet" x="414.503" y="-444"/>
</g>
<!-- campaign&#45;&gt;intrusion_set -->
<g id="edge1" class="edge">
<title>campaign&#45;&gt;intrusion_set</title>
<path fill="none" stroke="black" stroke-width="0.3" d="M246.09,-379.57C286.22,-386.68 359.4,-399.67 404.36,-407.64"/>
<polygon fill="black" stroke="black" stroke-width="0.3" points="403.87,-411.11 414.32,-409.41 405.09,-404.22 403.87,-411.11"/>
<text text-anchor="middle" x="330.27" y="-405.3" font-family="Helvetica,sans-Serif" font-size="14.00">Attributed&#45;to</text>
</g>
<!-- location -->
<g id="node7" class="node">
<title>location</title>
<polygon fill="none" stroke="black" stroke-width="0" points="473.5,-367 414.5,-367 414.5,-308 473.5,-308 473.5,-367"/>
<image xlink:href="location.png" width="59px" height="59px" preserveAspectRatio="xMinYMin meet" x="414.503" y="-367"/>
</g>
<!-- campaign&#45;&gt;location -->
<g id="edge4" class="edge">
<title>campaign&#45;&gt;location</title>
<path fill="none" stroke="black" stroke-width="0.3" d="M246.16,-371.4C278.44,-367.71 332.46,-360.98 378.5,-352.5 386.86,-350.96 395.77,-349.06 404.22,-347.13"/>
<polygon fill="black" stroke="black" stroke-width="0.3" points="405.28,-350.48 414.23,-344.79 403.69,-343.66 405.28,-350.48"/>
<text text-anchor="middle" x="330.27" y="-370.3" font-family="Helvetica,sans-Serif" font-size="14.00">Originates&#45;from</text>
</g>
<!-- campaign&#45;&gt;location -->
<g id="edge6" class="edge">
<title>campaign&#45;&gt;location</title>
<path fill="none" stroke="black" stroke-width="0.3" d="M246.08,-352.06C256.75,-345 269.36,-338.11 282.03,-334.5 322.54,-322.96 371.14,-326.04 404.26,-330.54"/>
<polygon fill="black" stroke="black" stroke-width="0.3" points="404.04,-334.04 414.44,-332.03 405.05,-327.11 404.04,-334.04"/>
<text text-anchor="middle" x="330.27" y="-337.3" font-family="Helvetica,sans-Serif" font-size="14.00">Targets</text>
</g>
<!-- malware -->
<g id="node8" class="node">
<title>malware</title>
<polygon fill="none" stroke="black" stroke-width="0" points="473.5,-290 414.5,-290 414.5,-231 473.5,-231 473.5,-290"/>
<image xlink:href="malware.png" width="59px" height="59px" preserveAspectRatio="xMinYMin meet" x="414.503" y="-290"/>
</g>
<!-- campaign&#45;&gt;malware -->
<g id="edge10" class="edge">
<title>campaign&#45;&gt;malware</title>
<path fill="none" stroke="black" stroke-width="0.3" d="M241.02,-344.99C252.28,-332.52 266.65,-318.77 282.03,-309.5 320.24,-286.47 370.14,-273.48 404.19,-266.75"/>
<polygon fill="black" stroke="black" stroke-width="0.3" points="405.04,-270.15 414.22,-264.86 403.74,-263.27 405.04,-270.15"/>
<text text-anchor="middle" x="330.27" y="-312.3" font-family="Helvetica,sans-Serif" font-size="14.00">Uses</text>
</g>
<!-- threat_actor -->
<g id="node9" class="node">
<title>threat_actor</title>
<polygon fill="none" stroke="black" stroke-width="0" points="473.5,-213 414.5,-213 414.5,-154 473.5,-154 473.5,-213"/>
<image xlink:href="threat_actor.png" width="59px" height="59px" preserveAspectRatio="xMinYMin meet" x="414.503" y="-213"/>
</g>
<!-- campaign&#45;&gt;threat_actor -->
<g id="edge2" class="edge">
<title>campaign&#45;&gt;threat_actor</title>
<path fill="none" stroke="black" stroke-width="0.3" d="M227.35,-344.85C237.42,-318.41 255.4,-280.18 282.03,-255.5 316.98,-223.11 368.93,-203.49 404.29,-193.09"/>
<polygon fill="black" stroke="black" stroke-width="0.3" points="405.58,-196.36 414.25,-190.27 403.67,-189.63 405.58,-196.36"/>
<text text-anchor="middle" x="330.27" y="-258.3" font-family="Helvetica,sans-Serif" font-size="14.00">Attributed&#45;to</text>
</g>
<!-- tool -->
<g id="node10" class="node">
<title>tool</title>
<polygon fill="none" stroke="black" stroke-width="0" points="473.5,-136 414.5,-136 414.5,-77 473.5,-77 473.5,-136"/>
<image xlink:href="tool.png" width="59px" height="59px" preserveAspectRatio="xMinYMin meet" x="414.503" y="-136"/>
</g>
<!-- campaign&#45;&gt;tool -->
<g id="edge11" class="edge">
<title>campaign&#45;&gt;tool</title>
<path fill="none" stroke="black" stroke-width="0.3" d="M220.46,-344.93C225.92,-304.27 241.1,-230.85 282.03,-184.5 314.54,-147.69 368.31,-126.6 404.67,-115.84"/>
<polygon fill="black" stroke="black" stroke-width="0.3" points="405.76,-119.17 414.43,-113.08 403.85,-112.44 405.76,-119.17"/>
<text text-anchor="middle" x="330.27" y="-187.3" font-family="Helvetica,sans-Serif" font-size="14.00">Uses</text>
</g>
<!-- vulnerability -->
<g id="node11" class="node">
<title>vulnerability</title>
<polygon fill="none" stroke="black" stroke-width="0" points="473.5,-59 414.5,-59 414.5,0 473.5,0 473.5,-59"/>
<image xlink:href="vulnerability.png" width="59px" height="59px" preserveAspectRatio="xMinYMin meet" x="414.503" y="-59"/>
</g>
<!-- campaign&#45;&gt;vulnerability -->
<g id="edge7" class="edge">
<title>campaign&#45;&gt;vulnerability</title>
<path fill="none" stroke="black" stroke-width="0.3" d="M216.85,-344.9C217.15,-291.55 225.03,-178.24 282.03,-107.5 313.03,-69.04 367.64,-48.26 404.56,-38.04"/>
<polygon fill="black" stroke="black" stroke-width="0.3" points="405.69,-41.36 414.47,-35.43 403.91,-34.59 405.69,-41.36"/>
<text text-anchor="middle" x="330.27" y="-110.3" font-family="Helvetica,sans-Serif" font-size="14.00">Targets</text>
</g>
<!-- indicator -->
<g id="node4" class="node">
<title>indicator</title>
<polygon fill="none" stroke="black" stroke-width="0" points="59,-404 0,-404 0,-345 59,-345 59,-404"/>
<image xlink:href="indicator.png" width="59px" height="59px" preserveAspectRatio="xMinYMin meet" x="0" y="-404"/>
</g>
<!-- indicator&#45;&gt;campaign -->
<g id="edge12" class="edge">
<title>indicator&#45;&gt;campaign</title>
<path fill="none" stroke="black" stroke-width="0.3" d="M59.01,-374.5C90.52,-374.5 141.46,-374.5 176.63,-374.5"/>
<polygon fill="black" stroke="black" stroke-width="0.3" points="177,-378 187,-374.5 177,-371 177,-378"/>
<text text-anchor="middle" x="123.02" y="-377.3" font-family="Helvetica,sans-Serif" font-size="14.00">Indicates</text>
</g>
</g>
</svg>
