<?xml version="1.0" encoding="UTF-8" standalone="no"?>
<!DOCTYPE svg PUBLIC "-//W3C//DTD SVG 1.1//EN"
 "http://www.w3.org/Graphics/SVG/1.1/DTD/svg11.dtd">
<!-- Generated by graphviz version 2.36.0 (20140111.2315)
 -->
<!-- Title: STIX Pages: 1 -->
<svg width="438pt" height="374pt"
 viewBox="0.00 0.00 438.00 374.00" xmlns="http://www.w3.org/2000/svg" xmlns:xlink="http://www.w3.org/1999/xlink">
<g id="graph0" class="graph" transform="scale(1 1) rotate(0) translate(4 370)">
<title>STIX</title>
<polygon fill="white" stroke="none" points="-4,4 -4,-370 434,-370 434,4 -4,4"/>
<!-- attack_pattern -->
<g id="node1" class="node"><title>attack_pattern</title>
<polygon fill="none" stroke="black" stroke-width="0" points="429.5,-366.5 370.5,-366.5 370.5,-307.5 429.5,-307.5 429.5,-366.5"/>
<image xlink:href="/cti-documentation/img/icons/attack_pattern.png" width="44.25px" height="44.25px" preserveAspectRatio="xMinYMin meet" x="377.875" y="-359.125"/>
</g>
<!-- campaign -->
<g id="node2" class="node"><title>campaign</title>
<polygon fill="none" stroke="black" stroke-width="0" points="249.5,-212.5 190.5,-212.5 190.5,-153.5 249.5,-153.5 249.5,-212.5"/>
<image xlink:href="/cti-documentation/img/icons/campaign.png" width="44.25px" height="44.25px" preserveAspectRatio="xMinYMin meet" x="197.875" y="-205.125"/>
</g>
<!-- campaign&#45;&gt;attack_pattern -->
<g id="edge3" class="edge"><title>campaign&#45;&gt;attack_pattern</title>
<path fill="none" stroke="black" stroke-width="0.3" d="M248.364,-212.421C259.682,-224.151 273.147,-237.559 286,-249 310.374,-270.696 339.454,-293.274 362.009,-310.128"/>
<polygon fill="black" stroke="black" stroke-width="0.3" points="360.196,-313.141 370.311,-316.293 364.37,-307.521 360.196,-313.141"/>
<text text-anchor="middle" x="310" y="-289.8" font-family="Helvetica,sans-Serif" font-size="14.00">Uses</text>
</g>
<!-- identity -->
<g id="node3" class="node"><title>identity</title>
<polygon fill="none" stroke="black" stroke-width="0" points="429.5,-289.5 370.5,-289.5 370.5,-230.5 429.5,-230.5 429.5,-289.5"/>
<image xlink:href="/cti-documentation/img/icons/identity.png" width="44.25px" height="44.25px" preserveAspectRatio="xMinYMin meet" x="377.875" y="-282.125"/>
</g>
<!-- campaign&#45;&gt;identity -->
<g id="edge1" class="edge"><title>campaign&#45;&gt;identity</title>
<path fill="none" stroke="black" stroke-width="0.3" d="M249.599,-195.371C279.831,-208.449 327.67,-229.144 361.043,-243.58"/>
<polygon fill="black" stroke="black" stroke-width="0.3" points="359.905,-246.901 370.472,-247.659 362.684,-240.477 359.905,-246.901"/>
<text text-anchor="middle" x="310" y="-233.8" font-family="Helvetica,sans-Serif" font-size="14.00">Targets</text>
</g>
<!-- malware -->
<g id="node5" class="node"><title>malware</title>
<polygon fill="none" stroke="black" stroke-width="0" points="429.5,-212.5 370.5,-212.5 370.5,-153.5 429.5,-153.5 429.5,-212.5"/>
<image xlink:href="/cti-documentation/img/icons/malware.png" width="44.25px" height="44.25px" preserveAspectRatio="xMinYMin meet" x="377.875" y="-205.125"/>
</g>
<!-- campaign&#45;&gt;malware -->
<g id="edge4" class="edge"><title>campaign&#45;&gt;malware</title>
<path fill="none" stroke="black" stroke-width="0.3" d="M249.599,-183C279.572,-183 326.85,-183 360.18,-183"/>
<polygon fill="black" stroke="black" stroke-width="0.3" points="360.472,-186.5 370.472,-183 360.472,-179.5 360.472,-186.5"/>
<text text-anchor="middle" x="310" y="-186.8" font-family="Helvetica,sans-Serif" font-size="14.00">Uses</text>
</g>
<!-- tool -->
<g id="node6" class="node"><title>tool</title>
<polygon fill="none" stroke="black" stroke-width="0" points="429.5,-135.5 370.5,-135.5 370.5,-76.5 429.5,-76.5 429.5,-135.5"/>
<image xlink:href="/cti-documentation/img/icons/tool.png" width="44.25px" height="44.25px" preserveAspectRatio="xMinYMin meet" x="377.875" y="-128.125"/>
</g>
<!-- campaign&#45;&gt;tool -->
<g id="edge5" class="edge"><title>campaign&#45;&gt;tool</title>
<path fill="none" stroke="black" stroke-width="0.3" d="M249.599,-170.629C279.831,-157.551 327.67,-136.856 361.043,-122.42"/>
<polygon fill="black" stroke="black" stroke-width="0.3" points="362.684,-125.523 370.472,-118.341 359.905,-119.099 362.684,-125.523"/>
<text text-anchor="middle" x="310" y="-157.8" font-family="Helvetica,sans-Serif" font-size="14.00">Uses</text>
</g>
<!-- vulnerability -->
<g id="node7" class="node"><title>vulnerability</title>
<polygon fill="none" stroke="black" stroke-width="0" points="429.5,-58.5 370.5,-58.5 370.5,0.5 429.5,0.5 429.5,-58.5"/>
<image xlink:href="/cti-documentation/img/icons/vulnerability.png" width="44.25px" height="44.25px" preserveAspectRatio="xMinYMin meet" x="377.875" y="-51.125"/>
</g>
<!-- campaign&#45;&gt;vulnerability -->
<g id="edge2" class="edge"><title>campaign&#45;&gt;vulnerability</title>
<path fill="none" stroke="black" stroke-width="0.3" d="M248.364,-153.579C259.682,-141.849 273.147,-128.441 286,-117 310.374,-95.3036 339.454,-72.726 362.009,-55.8723"/>
<polygon fill="black" stroke="black" stroke-width="0.3" points="364.37,-58.4791 370.311,-49.707 360.196,-52.8593 364.37,-58.4791"/>
<text text-anchor="middle" x="310" y="-120.8" font-family="Helvetica,sans-Serif" font-size="14.00">Targets</text>
</g>
<!-- indicator -->
<g id="node4" class="node"><title>indicator</title>
<polygon fill="none" stroke="black" stroke-width="0" points="59.5,-212.5 0.5,-212.5 0.5,-153.5 59.5,-153.5 59.5,-212.5"/>
<image xlink:href="/cti-documentation/img/icons/indicator.png" width="44.25px" height="44.25px" preserveAspectRatio="xMinYMin meet" x="7.875" y="-205.125"/>
</g>
<!-- indicator&#45;&gt;campaign -->
<g id="edge6" class="edge"><title>indicator&#45;&gt;campaign</title>
<path fill="none" stroke="black" stroke-width="0.3" d="M59.5532,-183C91.8075,-183 144.471,-183 180.379,-183"/>
<polygon fill="black" stroke="black" stroke-width="0.3" points="180.487,-186.5 190.487,-183 180.487,-179.5 180.487,-186.5"/>
<text text-anchor="middle" x="125" y="-186.8" font-family="Helvetica,sans-Serif" font-size="14.00">Indicates</text>
</g>
</g>
</svg>
