<?xml version="1.0" encoding="UTF-8" standalone="no"?>
<!DOCTYPE svg PUBLIC "-//W3C//DTD SVG 1.1//EN"
 "http://www.w3.org/Graphics/SVG/1.1/DTD/svg11.dtd">
<!-- Generated by graphviz version 2.36.0 (20140111.2315)
 -->
<!-- Title: STIX Pages: 1 -->
<svg width="258pt" height="297pt"
 viewBox="0.00 0.00 258.00 297.00" xmlns="http://www.w3.org/2000/svg" xmlns:xlink="http://www.w3.org/1999/xlink">
<g id="graph0" class="graph" transform="scale(1 1) rotate(0) translate(4 293)">
<title>STIX</title>
<polygon fill="white" stroke="none" points="-4,4 -4,-293 254,-293 254,4 -4,4"/>
<!-- attack_pattern -->
<g id="node1" class="node"><title>attack_pattern</title>
<polygon fill="none" stroke="black" stroke-width="0" points="249.5,-289.5 190.5,-289.5 190.5,-230.5 249.5,-230.5 249.5,-289.5"/>
<image xlink:href="/cti-documentation/img/icons/attack_pattern.png" width="44.25px" height="44.25px" preserveAspectRatio="xMinYMin meet" x="197.875" y="-282.125"/>
</g>
<!-- course_of_action -->
<g id="node2" class="node"><title>course_of_action</title>
<polygon fill="none" stroke="black" stroke-width="0" points="59.5,-173.5 0.5,-173.5 0.5,-114.5 59.5,-114.5 59.5,-173.5"/>
<image xlink:href="/cti-documentation/img/icons/course_of_action.png" width="44.25px" height="44.25px" preserveAspectRatio="xMinYMin meet" x="7.875" y="-166.125"/>
</g>
<!-- course_of_action&#45;&gt;attack_pattern -->
<g id="edge1" class="edge"><title>course_of_action&#45;&gt;attack_pattern</title>
<path fill="none" stroke="black" stroke-width="0.3" d="M59.5308,-163.903C70.7849,-171.599 83.8948,-180.371 96,-188 124.214,-205.781 156.814,-224.797 181.361,-238.818"/>
<polygon fill="black" stroke="black" stroke-width="0.3" points="179.926,-242.029 190.348,-243.935 183.389,-235.946 179.926,-242.029"/>
<text text-anchor="middle" x="125" y="-225.8" font-family="Helvetica,sans-Serif" font-size="14.00">Mitigates</text>
</g>
<!-- malware -->
<g id="node3" class="node"><title>malware</title>
<polygon fill="none" stroke="black" stroke-width="0" points="249.5,-212.5 190.5,-212.5 190.5,-153.5 249.5,-153.5 249.5,-212.5"/>
<image xlink:href="/cti-documentation/img/icons/malware.png" width="44.25px" height="44.25px" preserveAspectRatio="xMinYMin meet" x="197.875" y="-205.125"/>
</g>
<!-- course_of_action&#45;&gt;malware -->
<g id="edge2" class="edge"><title>course_of_action&#45;&gt;malware</title>
<path fill="none" stroke="black" stroke-width="0.3" d="M59.5532,-149.923C91.8075,-156.614 144.471,-167.539 180.379,-174.988"/>
<polygon fill="black" stroke="black" stroke-width="0.3" points="179.984,-178.481 190.487,-177.085 181.406,-171.627 179.984,-178.481"/>
<text text-anchor="middle" x="125" y="-172.8" font-family="Helvetica,sans-Serif" font-size="14.00">Mitigates</text>
</g>
<!-- tool -->
<g id="node4" class="node"><title>tool</title>
<polygon fill="none" stroke="black" stroke-width="0" points="249.5,-135.5 190.5,-135.5 190.5,-76.5 249.5,-76.5 249.5,-135.5"/>
<image xlink:href="/cti-documentation/img/icons/tool.png" width="44.25px" height="44.25px" preserveAspectRatio="xMinYMin meet" x="197.875" y="-128.125"/>
</g>
<!-- course_of_action&#45;&gt;tool -->
<g id="edge3" class="edge"><title>course_of_action&#45;&gt;tool</title>
<path fill="none" stroke="black" stroke-width="0.3" d="M59.5532,-138.229C91.8075,-131.709 144.471,-121.064 180.379,-113.806"/>
<polygon fill="black" stroke="black" stroke-width="0.3" points="181.378,-117.175 190.487,-111.763 179.992,-110.314 181.378,-117.175"/>
<text text-anchor="middle" x="125" y="-133.8" font-family="Helvetica,sans-Serif" font-size="14.00">Mitigates</text>
</g>
<!-- vulnerability -->
<g id="node5" class="node"><title>vulnerability</title>
<polygon fill="none" stroke="black" stroke-width="0" points="249.5,-58.5 190.5,-58.5 190.5,0.5 249.5,0.5 249.5,-58.5"/>
<image xlink:href="/cti-documentation/img/icons/vulnerability.png" width="44.25px" height="44.25px" preserveAspectRatio="xMinYMin meet" x="197.875" y="-51.125"/>
</g>
<!-- course_of_action&#45;&gt;vulnerability -->
<g id="edge4" class="edge"><title>course_of_action&#45;&gt;vulnerability</title>
<path fill="none" stroke="black" stroke-width="0.3" d="M59.5066,-124.058C70.7576,-116.358 83.8717,-107.592 96,-100 124.169,-82.3674 156.771,-63.621 181.33,-49.8212"/>
<polygon fill="black" stroke="black" stroke-width="0.3" points="183.307,-52.7259 190.323,-44.7871 179.887,-46.6178 183.307,-52.7259"/>
<text text-anchor="middle" x="125" y="-103.8" font-family="Helvetica,sans-Serif" font-size="14.00">Mitigates</text>
</g>
</g>
</svg>
