<?xml version="1.0" encoding="UTF-8" standalone="no"?>
<!DOCTYPE svg PUBLIC "-//W3C//DTD SVG 1.1//EN"
 "http://www.w3.org/Graphics/SVG/1.1/DTD/svg11.dtd">
<!-- Generated by graphviz version 2.42.3 (20191010.1750)
 -->
<!-- Title: STIX Pages: 1 -->
<svg width="273pt" height="375pt"
 viewBox="0.00 0.00 272.71 375.00" xmlns="http://www.w3.org/2000/svg" xmlns:xlink="http://www.w3.org/1999/xlink">
<g id="graph0" class="graph" transform="scale(1 1) rotate(0) translate(4 371)">
<title>STIX</title>
<polygon fill="white" stroke="transparent" points="-4,4 -4,-371 268.71,-371 268.71,4 -4,4"/>
<!-- attack_pattern -->
<g id="node1" class="node">
<title>attack_pattern</title>
<polygon fill="none" stroke="black" stroke-width="0" points="264.71,-367 205.71,-367 205.71,-308 264.71,-308 264.71,-367"/>
<image xlink:href="/cti-documentation/img/icons/attack_pattern.png" width="59px" height="59px" preserveAspectRatio="xMinYMin meet" x="205.71" y="-367"/>
</g>
<!-- course_of_action -->
<g id="node2" class="node">
<title>course_of_action</title>
<polygon fill="none" stroke="black" stroke-width="0" points="59,-195 0,-195 0,-136 59,-136 59,-195"/>
<image xlink:href="/cti-documentation/img/icons/course_of_action.png" width="59px" height="59px" preserveAspectRatio="xMinYMin meet" x="0" y="-195"/>
</g>
<!-- course_of_action&#45;&gt;attack_pattern -->
<g id="edge2" class="edge">
<title>course_of_action&#45;&gt;attack_pattern</title>
<path fill="none" stroke="black" stroke-width="0.3" d="M41.69,-195.38C52.2,-219.96 70.06,-254.24 95,-276.5 124.01,-302.39 165.74,-318.68 195.94,-327.85"/>
<polygon fill="black" stroke="black" stroke-width="0.3" points="195.12,-331.26 205.7,-330.69 197.08,-324.54 195.12,-331.26"/>
<text text-anchor="middle" x="132.35" y="-321.3" font-family="Helvetica,sans-Serif" font-size="14.00">Mitigates</text>
</g>
<!-- indicator -->
<g id="node3" class="node">
<title>indicator</title>
<polygon fill="none" stroke="black" stroke-width="0" points="264.71,-290 205.71,-290 205.71,-231 264.71,-231 264.71,-290"/>
<image xlink:href="/cti-documentation/img/icons/indicator.png" width="59px" height="59px" preserveAspectRatio="xMinYMin meet" x="205.71" y="-290"/>
</g>
<!-- course_of_action&#45;&gt;indicator -->
<g id="edge1" class="edge">
<title>course_of_action&#45;&gt;indicator</title>
<path fill="none" stroke="black" stroke-width="0.3" d="M49.71,-195.2C61.05,-210.28 76.76,-227.49 95,-237.5 125.89,-254.45 166.01,-259.62 195.24,-260.89"/>
<polygon fill="black" stroke="black" stroke-width="0.3" points="195.38,-264.39 205.48,-261.19 195.59,-257.4 195.38,-264.39"/>
<text text-anchor="middle" x="132.35" y="-261.3" font-family="Helvetica,sans-Serif" font-size="14.00">Investigates</text>
</g>
<!-- course_of_action&#45;&gt;indicator -->
<g id="edge3" class="edge">
<title>course_of_action&#45;&gt;indicator</title>
<path fill="none" stroke="black" stroke-width="0.3" d="M59.06,-179.72C70.15,-184.99 83.04,-190.82 95,-195.5 127.48,-208.21 138.13,-204.69 169.71,-219.5 178.9,-223.81 188.36,-229.21 197.1,-234.65"/>
<polygon fill="black" stroke="black" stroke-width="0.3" points="195.26,-237.63 205.57,-240.08 199.04,-231.74 195.26,-237.63"/>
<text text-anchor="middle" x="132.35" y="-222.3" font-family="Helvetica,sans-Serif" font-size="14.00">Mitigates</text>
</g>
<!-- malware -->
<g id="node4" class="node">
<title>malware</title>
<polygon fill="none" stroke="black" stroke-width="0" points="264.71,-213 205.71,-213 205.71,-154 264.71,-154 264.71,-213"/>
<image xlink:href="/cti-documentation/img/icons/malware.png" width="59px" height="59px" preserveAspectRatio="xMinYMin meet" x="205.71" y="-213"/>
</g>
<!-- course_of_action&#45;&gt;malware -->
<g id="edge4" class="edge">
<title>course_of_action&#45;&gt;malware</title>
<path fill="none" stroke="black" stroke-width="0.3" d="M59.25,-168.04C94.89,-171.19 155.77,-176.57 195.49,-180.08"/>
<polygon fill="black" stroke="black" stroke-width="0.3" points="195.33,-183.58 205.6,-180.97 195.95,-176.61 195.33,-183.58"/>
<text text-anchor="middle" x="132.35" y="-180.3" font-family="Helvetica,sans-Serif" font-size="14.00">Mitigates</text>
</g>
<!-- course_of_action&#45;&gt;malware -->
<g id="edge7" class="edge">
<title>course_of_action&#45;&gt;malware</title>
<path fill="none" stroke="black" stroke-width="0.3" d="M59.11,-157.62C87.49,-151.02 132.08,-143.93 169.71,-152.5 178.78,-154.57 188.07,-158.08 196.67,-162.01"/>
<polygon fill="black" stroke="black" stroke-width="0.3" points="195.16,-165.17 205.68,-166.4 198.22,-158.88 195.16,-165.17"/>
<text text-anchor="middle" x="132.35" y="-155.3" font-family="Helvetica,sans-Serif" font-size="14.00">Remediates</text>
</g>
<!-- tool -->
<g id="node5" class="node">
<title>tool</title>
<polygon fill="none" stroke="black" stroke-width="0" points="264.71,-136 205.71,-136 205.71,-77 264.71,-77 264.71,-136"/>
<image xlink:href="/cti-documentation/img/icons/tool.png" width="59px" height="59px" preserveAspectRatio="xMinYMin meet" x="205.71" y="-136"/>
</g>
<!-- course_of_action&#45;&gt;tool -->
<g id="edge5" class="edge">
<title>course_of_action&#45;&gt;tool</title>
<path fill="none" stroke="black" stroke-width="0.3" d="M59.11,-147.37C69.99,-141.18 82.72,-134.76 95,-130.5 127.91,-119.08 167.16,-112.94 195.59,-109.74"/>
<polygon fill="black" stroke="black" stroke-width="0.3" points="195.96,-113.22 205.53,-108.69 195.22,-106.26 195.96,-113.22"/>
<text text-anchor="middle" x="132.35" y="-133.3" font-family="Helvetica,sans-Serif" font-size="14.00">Mitigates</text>
</g>
<!-- vulnerability -->
<g id="node6" class="node">
<title>vulnerability</title>
<polygon fill="none" stroke="black" stroke-width="0" points="264.71,-59 205.71,-59 205.71,0 264.71,0 264.71,-59"/>
<image xlink:href="/cti-documentation/img/icons/vulnerability.png" width="59px" height="59px" preserveAspectRatio="xMinYMin meet" x="205.71" y="-59"/>
</g>
<!-- course_of_action&#45;&gt;vulnerability -->
<g id="edge6" class="edge">
<title>course_of_action&#45;&gt;vulnerability</title>
<path fill="none" stroke="black" stroke-width="0.3" d="M53.02,-135.66C64.49,-121.88 79.31,-106.06 95,-94.5 126.16,-71.54 166.72,-53.73 196.01,-42.6"/>
<polygon fill="black" stroke="black" stroke-width="0.3" points="197.32,-45.85 205.48,-39.09 194.89,-39.28 197.32,-45.85"/>
<text text-anchor="middle" x="132.35" y="-97.3" font-family="Helvetica,sans-Serif" font-size="14.00">Mitigates</text>
</g>
<!-- course_of_action&#45;&gt;vulnerability -->
<g id="edge8" class="edge">
<title>course_of_action&#45;&gt;vulnerability</title>
<path fill="none" stroke="black" stroke-width="0.3" d="M36.08,-135.93C43.63,-105.04 60.36,-58.03 95,-35.5 124.57,-16.27 165.61,-17 195.47,-21.19"/>
<polygon fill="black" stroke="black" stroke-width="0.3" points="195.1,-24.67 205.53,-22.79 196.2,-17.76 195.1,-24.67"/>
<text text-anchor="middle" x="132.35" y="-38.3" font-family="Helvetica,sans-Serif" font-size="14.00">Remediates</text>
</g>
</g>
</svg>
