<?xml version="1.0" encoding="UTF-8" standalone="no"?>
<!DOCTYPE svg PUBLIC "-//W3C//DTD SVG 1.1//EN"
 "http://www.w3.org/Graphics/SVG/1.1/DTD/svg11.dtd">
<!-- Generated by graphviz version 2.42.3 (20191010.1750)
 -->
<!-- Title: STIX Pages: 1 -->
<svg width="482pt" height="452pt"
 viewBox="0.00 0.00 482.08 452.00" xmlns="http://www.w3.org/2000/svg" xmlns:xlink="http://www.w3.org/1999/xlink">
<g id="graph0" class="graph" transform="scale(1 1) rotate(0) translate(4 448)">
<title>STIX</title>
<polygon fill="white" stroke="transparent" points="-4,4 -4,-448 478.08,-448 478.08,4 -4,4"/>
<!-- attack_pattern -->
<g id="node1" class="node">
<title>attack_pattern</title>
<polygon fill="none" stroke="black" stroke-width="0" points="59,-444 0,-444 0,-385 59,-385 59,-444"/>
<image xlink:href="attack_pattern.png" width="59px" height="59px" preserveAspectRatio="xMinYMin meet" x="0" y="-444"/>
</g>
<!-- identity -->
<g id="node3" class="node">
<title>identity</title>
<polygon fill="none" stroke="black" stroke-width="0" points="274.82,-194 215.82,-194 215.82,-135 274.82,-135 274.82,-194"/>
<image xlink:href="identity.png" width="59px" height="59px" preserveAspectRatio="xMinYMin meet" x="215.82" y="-194"/>
</g>
<!-- attack_pattern&#45;&gt;identity -->
<g id="edge2" class="edge">
<title>attack_pattern&#45;&gt;identity</title>
<path fill="none" stroke="black" stroke-width="0.3" d="M59.26,-403.11C92.42,-388.66 146.6,-360.8 179.82,-321.5 208.7,-287.34 226.01,-238.49 235.31,-204.38"/>
<polygon fill="black" stroke="black" stroke-width="0.3" points="238.81,-204.86 237.95,-194.3 232.03,-203.09 238.81,-204.86"/>
<text text-anchor="middle" x="137.41" y="-386.3" font-family="Helvetica,sans-Serif" font-size="14.00">Targets</text>
</g>
<!-- campaign -->
<g id="node2" class="node">
<title>campaign</title>
<polygon fill="none" stroke="black" stroke-width="0" points="59,-367 0,-367 0,-308 59,-308 59,-367"/>
<image xlink:href="campaign.png" width="59px" height="59px" preserveAspectRatio="xMinYMin meet" x="0" y="-367"/>
</g>
<!-- campaign&#45;&gt;identity -->
<g id="edge3" class="edge">
<title>campaign&#45;&gt;identity</title>
<path fill="none" stroke="black" stroke-width="0.3" d="M59.01,-324.58C90.71,-309.33 142.38,-281.79 179.82,-248.5 194.78,-235.2 208.67,-218.03 219.71,-202.68"/>
<polygon fill="black" stroke="black" stroke-width="0.3" points="222.66,-204.57 225.54,-194.37 216.93,-200.55 222.66,-204.57"/>
<text text-anchor="middle" x="137.41" y="-306.3" font-family="Helvetica,sans-Serif" font-size="14.00">Targets</text>
</g>
<!-- location -->
<g id="node8" class="node">
<title>location</title>
<polygon fill="none" stroke="black" stroke-width="0" points="474.12,-182.5 412.93,-182.5 412.93,-146.5 474.12,-146.5 474.12,-182.5"/>
<text text-anchor="middle" x="443.53" y="-160.3" font-family="Times,serif" font-size="14.00">location</text>
</g>
<!-- identity&#45;&gt;location -->
<g id="edge1" class="edge">
<title>identity&#45;&gt;location</title>
<path fill="none" stroke="black" stroke-width="0.3" d="M274.85,-164.5C308.46,-164.5 364.53,-164.5 402.48,-164.5"/>
<polygon fill="black" stroke="black" stroke-width="0.3" points="402.68,-168 412.68,-164.5 402.68,-161 402.68,-168"/>
<text text-anchor="middle" x="343.9" y="-167.3" font-family="Helvetica,sans-Serif" font-size="14.00">Located&#45;at</text>
</g>
<!-- intrusion_set -->
<g id="node4" class="node">
<title>intrusion_set</title>
<polygon fill="none" stroke="black" stroke-width="0" points="59,-290 0,-290 0,-231 59,-231 59,-290"/>
<image xlink:href="intrusion_set.png" width="59px" height="59px" preserveAspectRatio="xMinYMin meet" x="0" y="-290"/>
</g>
<!-- intrusion_set&#45;&gt;identity -->
<g id="edge4" class="edge">
<title>intrusion_set&#45;&gt;identity</title>
<path fill="none" stroke="black" stroke-width="0.3" d="M59.2,-248.01C89.32,-234.86 138,-213.46 179.82,-194.5 188.49,-190.57 197.79,-186.28 206.56,-182.21"/>
<polygon fill="black" stroke="black" stroke-width="0.3" points="208.21,-185.3 215.8,-177.91 205.25,-178.96 208.21,-185.3"/>
<text text-anchor="middle" x="137.41" y="-233.3" font-family="Helvetica,sans-Serif" font-size="14.00">Targets</text>
</g>
<!-- malware -->
<g id="node5" class="node">
<title>malware</title>
<polygon fill="none" stroke="black" stroke-width="0" points="59,-213 0,-213 0,-154 59,-154 59,-213"/>
<image xlink:href="malware.png" width="59px" height="59px" preserveAspectRatio="xMinYMin meet" x="0" y="-213"/>
</g>
<!-- malware&#45;&gt;identity -->
<g id="edge5" class="edge">
<title>malware&#45;&gt;identity</title>
<path fill="none" stroke="black" stroke-width="0.3" d="M59.34,-180.94C97.06,-177.59 163.31,-171.7 205.44,-167.95"/>
<polygon fill="black" stroke="black" stroke-width="0.3" points="205.95,-171.42 215.6,-167.05 205.33,-164.45 205.95,-171.42"/>
<text text-anchor="middle" x="137.41" y="-179.3" font-family="Helvetica,sans-Serif" font-size="14.00">Targets</text>
</g>
<!-- threat_actor -->
<g id="node6" class="node">
<title>threat_actor</title>
<polygon fill="none" stroke="black" stroke-width="0" points="59,-136 0,-136 0,-77 59,-77 59,-136"/>
<image xlink:href="threat_actor.png" width="59px" height="59px" preserveAspectRatio="xMinYMin meet" x="0" y="-136"/>
</g>
<!-- threat_actor&#45;&gt;identity -->
<g id="edge6" class="edge">
<title>threat_actor&#45;&gt;identity</title>
<path fill="none" stroke="black" stroke-width="0.3" d="M59.06,-114.54C70.26,-117.67 83.23,-121.28 95,-124.5 132.68,-134.8 175.78,-146.32 205.96,-154.34"/>
<polygon fill="black" stroke="black" stroke-width="0.3" points="205.11,-157.74 215.67,-156.92 206.9,-150.97 205.11,-157.74"/>
<text text-anchor="middle" x="137.41" y="-148.3" font-family="Helvetica,sans-Serif" font-size="14.00">Targets</text>
</g>
<!-- threat_actor&#45;&gt;identity -->
<g id="edge8" class="edge">
<title>threat_actor&#45;&gt;identity</title>
<path fill="none" stroke="black" stroke-width="0.3" d="M59.11,-100.6C90.01,-95.56 140.12,-91.28 179.82,-106.5 191.91,-111.14 203.16,-119.21 212.77,-127.88"/>
<polygon fill="black" stroke="black" stroke-width="0.3" points="210.46,-130.51 220.1,-134.9 215.3,-125.46 210.46,-130.51"/>
<text text-anchor="middle" x="137.41" y="-109.3" font-family="Helvetica,sans-Serif" font-size="14.00">Atributed&#45;to</text>
</g>
<!-- threat_actor&#45;&gt;identity -->
<g id="edge9" class="edge">
<title>threat_actor&#45;&gt;identity</title>
<path fill="none" stroke="black" stroke-width="0.3" d="M59.22,-90.55C90.43,-75.51 141.02,-57.96 179.82,-77.5 200.17,-87.75 215.71,-107.78 226.43,-126.05"/>
<polygon fill="black" stroke="black" stroke-width="0.3" points="223.38,-127.78 231.3,-134.82 229.5,-124.38 223.38,-127.78"/>
<text text-anchor="middle" x="137.41" y="-80.3" font-family="Helvetica,sans-Serif" font-size="14.00">Impersonates</text>
</g>
<!-- tool -->
<g id="node7" class="node">
<title>tool</title>
<polygon fill="none" stroke="black" stroke-width="0" points="59,-59 0,-59 0,0 59,0 59,-59"/>
<image xlink:href="tool.png" width="59px" height="59px" preserveAspectRatio="xMinYMin meet" x="0" y="-59"/>
</g>
<!-- tool&#45;&gt;identity -->
<g id="edge7" class="edge">
<title>tool&#45;&gt;identity</title>
<path fill="none" stroke="black" stroke-width="0.3" d="M59.28,-26.41C91.47,-24.46 143.79,-25.97 179.82,-50.5 205.74,-68.15 222.45,-99.86 232.35,-125.36"/>
<polygon fill="black" stroke="black" stroke-width="0.3" points="229.08,-126.61 235.82,-134.79 235.65,-124.19 229.08,-126.61"/>
<text text-anchor="middle" x="137.41" y="-53.3" font-family="Helvetica,sans-Serif" font-size="14.00">Targets</text>
</g>
</g>
</svg>
