<?xml version="1.0" encoding="UTF-8" standalone="no"?>
<!DOCTYPE svg PUBLIC "-//W3C//DTD SVG 1.1//EN"
 "http://www.w3.org/Graphics/SVG/1.1/DTD/svg11.dtd">
<!-- Generated by graphviz version 2.36.0 (20140111.2315)
 -->
<!-- Title: STIX Pages: 1 -->
<svg width="286pt" height="451pt"
 viewBox="0.00 0.00 286.00 451.00" xmlns="http://www.w3.org/2000/svg" xmlns:xlink="http://www.w3.org/1999/xlink">
<g id="graph0" class="graph" transform="scale(1 1) rotate(0) translate(4 447)">
<title>STIX</title>
<polygon fill="white" stroke="none" points="-4,4 -4,-447 282,-447 282,4 -4,4"/>
<!-- attack_pattern -->
<g id="node1" class="node"><title>attack_pattern</title>
<polygon fill="none" stroke="black" stroke-width="0" points="59.5,-443.5 0.5,-443.5 0.5,-384.5 59.5,-384.5 59.5,-443.5"/>
<image xlink:href="/cti-documentation/img/icons/attack_pattern.png" width="44.25px" height="44.25px" preserveAspectRatio="xMinYMin meet" x="7.875" y="-436.125"/>
</g>
<!-- identity -->
<g id="node3" class="node"><title>identity</title>
<polygon fill="none" stroke="black" stroke-width="0" points="277.5,-193.5 218.5,-193.5 218.5,-134.5 277.5,-134.5 277.5,-193.5"/>
<image xlink:href="/cti-documentation/img/icons/identity.png" width="44.25px" height="44.25px" preserveAspectRatio="xMinYMin meet" x="225.875" y="-186.125"/>
</g>
<!-- attack_pattern&#45;&gt;identity -->
<g id="edge1" class="edge"><title>attack_pattern&#45;&gt;identity</title>
<path fill="none" stroke="black" stroke-width="0.3" d="M59.5551,-403.98C93.0866,-390.882 148.384,-364.924 182,-326 212.647,-290.513 229.993,-238.744 238.92,-203.338"/>
<polygon fill="black" stroke="black" stroke-width="0.3" points="242.384,-203.905 241.322,-193.363 235.578,-202.266 242.384,-203.905"/>
<text text-anchor="middle" x="139" y="-389.8" font-family="Helvetica,sans-Serif" font-size="14.00">Targets</text>
</g>
<!-- campaign -->
<g id="node2" class="node"><title>campaign</title>
<polygon fill="none" stroke="black" stroke-width="0" points="59.5,-366.5 0.5,-366.5 0.5,-307.5 59.5,-307.5 59.5,-366.5"/>
<image xlink:href="/cti-documentation/img/icons/campaign.png" width="44.25px" height="44.25px" preserveAspectRatio="xMinYMin meet" x="7.875" y="-359.125"/>
</g>
<!-- campaign&#45;&gt;identity -->
<g id="edge2" class="edge"><title>campaign&#45;&gt;identity</title>
<path fill="none" stroke="black" stroke-width="0.3" d="M59.6581,-325.008C91.8,-310.628 144.35,-284.251 182,-251 198.006,-236.865 212.571,-218.208 223.839,-201.798"/>
<polygon fill="black" stroke="black" stroke-width="0.3" points="226.768,-203.714 229.42,-193.457 220.95,-199.821 226.768,-203.714"/>
<text text-anchor="middle" x="139" y="-310.8" font-family="Helvetica,sans-Serif" font-size="14.00">Targets</text>
</g>
<!-- intrusion_set -->
<g id="node4" class="node"><title>intrusion_set</title>
<polygon fill="none" stroke="black" stroke-width="0" points="59.5,-289.5 0.5,-289.5 0.5,-230.5 59.5,-230.5 59.5,-289.5"/>
<image xlink:href="/cti-documentation/img/icons/intrusion_set.png" width="44.25px" height="44.25px" preserveAspectRatio="xMinYMin meet" x="7.875" y="-282.125"/>
</g>
<!-- intrusion_set&#45;&gt;identity -->
<g id="edge3" class="edge"><title>intrusion_set&#45;&gt;identity</title>
<path fill="none" stroke="black" stroke-width="0.3" d="M59.5304,-248.105C89.9995,-235.312 139.631,-214.214 182,-195 190.873,-190.976 200.368,-186.529 209.283,-182.29"/>
<polygon fill="black" stroke="black" stroke-width="0.3" points="210.8,-185.444 218.313,-177.974 207.781,-179.128 210.8,-185.444"/>
<text text-anchor="middle" x="139" y="-235.8" font-family="Helvetica,sans-Serif" font-size="14.00">Targets</text>
</g>
<!-- malware -->
<g id="node5" class="node"><title>malware</title>
<polygon fill="none" stroke="black" stroke-width="0" points="59.5,-212.5 0.5,-212.5 0.5,-153.5 59.5,-153.5 59.5,-212.5"/>
<image xlink:href="/cti-documentation/img/icons/malware.png" width="44.25px" height="44.25px" preserveAspectRatio="xMinYMin meet" x="7.875" y="-205.125"/>
</g>
<!-- malware&#45;&gt;identity -->
<g id="edge4" class="edge"><title>malware&#45;&gt;identity</title>
<path fill="none" stroke="black" stroke-width="0.3" d="M59.6831,-180.477C97.8492,-177.12 165.468,-171.172 208.173,-167.415"/>
<polygon fill="black" stroke="black" stroke-width="0.3" points="208.543,-170.896 218.198,-166.533 207.93,-163.923 208.543,-170.896"/>
<text text-anchor="middle" x="139" y="-179.8" font-family="Helvetica,sans-Serif" font-size="14.00">Targets</text>
</g>
<!-- threat_actor -->
<g id="node6" class="node"><title>threat_actor</title>
<polygon fill="none" stroke="black" stroke-width="0" points="59.5,-135.5 0.5,-135.5 0.5,-76.5 59.5,-76.5 59.5,-135.5"/>
<image xlink:href="/cti-documentation/img/icons/threat_actor.png" width="44.25px" height="44.25px" preserveAspectRatio="xMinYMin meet" x="7.875" y="-128.125"/>
</g>
<!-- threat_actor&#45;&gt;identity -->
<g id="edge5" class="edge"><title>threat_actor&#45;&gt;identity</title>
<path fill="none" stroke="black" stroke-width="0.3" d="M59.6831,-113.702C97.9299,-123.972 165.754,-142.184 208.444,-153.647"/>
<polygon fill="black" stroke="black" stroke-width="0.3" points="207.633,-157.053 218.198,-156.266 209.448,-150.293 207.633,-157.053"/>
<text text-anchor="middle" x="139" y="-148.8" font-family="Helvetica,sans-Serif" font-size="14.00">Attributed&#45;to</text>
</g>
<!-- threat_actor&#45;&gt;identity -->
<g id="edge6" class="edge"><title>threat_actor&#45;&gt;identity</title>
<path fill="none" stroke="black" stroke-width="0.3" d="M59.6633,-99.7541C90.8932,-94.3076 141.77,-89.4647 182,-105 194.575,-109.856 206.221,-118.4 216.077,-127.504"/>
<polygon fill="black" stroke="black" stroke-width="0.3" points="213.656,-130.032 223.252,-134.523 218.551,-125.028 213.656,-130.032"/>
<text text-anchor="middle" x="139" y="-108.8" font-family="Helvetica,sans-Serif" font-size="14.00">Impersonates</text>
</g>
<!-- threat_actor&#45;&gt;identity -->
<g id="edge7" class="edge"><title>threat_actor&#45;&gt;identity</title>
<path fill="none" stroke="black" stroke-width="0.3" d="M59.7516,-89.4527C91.2824,-73.6605 142.631,-55.0018 182,-75 202.964,-85.6488 218.779,-106.583 229.558,-125.474"/>
<polygon fill="black" stroke="black" stroke-width="0.3" points="226.616,-127.392 234.446,-134.529 232.776,-124.067 226.616,-127.392"/>
<text text-anchor="middle" x="139" y="-78.8" font-family="Helvetica,sans-Serif" font-size="14.00">Targets</text>
</g>
<!-- tool -->
<g id="node7" class="node"><title>tool</title>
<polygon fill="none" stroke="black" stroke-width="0" points="59.5,-58.5 0.5,-58.5 0.5,0.5 59.5,0.5 59.5,-58.5"/>
<image xlink:href="/cti-documentation/img/icons/tool.png" width="44.25px" height="44.25px" preserveAspectRatio="xMinYMin meet" x="7.875" y="-51.125"/>
</g>
<!-- tool&#45;&gt;identity -->
<g id="edge8" class="edge"><title>tool&#45;&gt;identity</title>
<path fill="none" stroke="black" stroke-width="0.3" d="M59.7884,-25.1041C92.2883,-22.2544 145.393,-22.4274 182,-47 209.03,-65.144 225.942,-98.4708 235.716,-124.928"/>
<polygon fill="black" stroke="black" stroke-width="0.3" points="232.521,-126.396 239.118,-134.686 239.13,-124.091 232.521,-126.396"/>
<text text-anchor="middle" x="139" y="-50.8" font-family="Helvetica,sans-Serif" font-size="14.00">Targets</text>
</g>
</g>
</svg>
