<?xml version="1.0" encoding="UTF-8" standalone="no"?>
<!DOCTYPE svg PUBLIC "-//W3C//DTD SVG 1.1//EN"
 "http://www.w3.org/Graphics/SVG/1.1/DTD/svg11.dtd">
<!-- Generated by graphviz version 2.42.3 (20191010.1750)
 -->
<!-- Title: STIX Pages: 1 -->
<svg width="464pt" height="606pt"
 viewBox="0.00 0.00 463.64 606.00" xmlns="http://www.w3.org/2000/svg" xmlns:xlink="http://www.w3.org/1999/xlink">
<g id="graph0" class="graph" transform="scale(1 1) rotate(0) translate(4 602)">
<title>STIX</title>
<polygon fill="white" stroke="transparent" points="-4,4 -4,-602 459.64,-602 459.64,4 -4,4"/>
<!-- attack_pattern -->
<g id="node1" class="node">
<title>attack_pattern</title>
<polygon fill="none" stroke="black" stroke-width="0" points="455.64,-598 396.64,-598 396.64,-539 455.64,-539 455.64,-598"/>
<image xlink:href="/cti-documentation/img/icons/attack_pattern.png" width="59px" height="59px" preserveAspectRatio="xMinYMin meet" x="396.641" y="-598"/>
</g>
<!-- campaign -->
<g id="node2" class="node">
<title>campaign</title>
<polygon fill="none" stroke="black" stroke-width="0" points="455.64,-521 396.64,-521 396.64,-462 455.64,-462 455.64,-521"/>
<image xlink:href="/cti-documentation/img/icons/campaign.png" width="59px" height="59px" preserveAspectRatio="xMinYMin meet" x="396.641" y="-521"/>
</g>
<!-- course_of_action -->
<g id="node3" class="node">
<title>course_of_action</title>
<polygon fill="none" stroke="black" stroke-width="0" points="59,-328 0,-328 0,-269 59,-269 59,-328"/>
<image xlink:href="/cti-documentation/img/icons/course_of_action.png" width="59px" height="59px" preserveAspectRatio="xMinYMin meet" x="0" y="-328"/>
</g>
<!-- indicator -->
<g id="node4" class="node">
<title>indicator</title>
<polygon fill="none" stroke="black" stroke-width="0" points="264.71,-328 205.71,-328 205.71,-269 264.71,-269 264.71,-328"/>
<image xlink:href="/cti-documentation/img/icons/indicator.png" width="59px" height="59px" preserveAspectRatio="xMinYMin meet" x="205.71" y="-328"/>
</g>
<!-- course_of_action&#45;&gt;indicator -->
<g id="edge9" class="edge">
<title>course_of_action&#45;&gt;indicator</title>
<path fill="none" stroke="black" stroke-width="0.3" d="M59.25,-298.5C94.89,-298.5 155.77,-298.5 195.49,-298.5"/>
<polygon fill="black" stroke="black" stroke-width="0.3" points="195.6,-302 205.6,-298.5 195.6,-295 195.6,-302"/>
<text text-anchor="middle" x="132.35" y="-301.3" font-family="Helvetica,sans-Serif" font-size="14.00">Investigates</text>
</g>
<!-- course_of_action&#45;&gt;indicator -->
<g id="edge10" class="edge">
<title>course_of_action&#45;&gt;indicator</title>
<path fill="none" stroke="black" stroke-width="0.3" d="M59.04,-288.73C70.13,-285.42 83.02,-282.14 95,-280.5 127.9,-276 136.81,-276 169.71,-280.5 178.32,-281.68 187.4,-283.7 195.94,-285.98"/>
<polygon fill="black" stroke="black" stroke-width="0.3" points="195.09,-289.38 205.67,-288.73 197,-282.64 195.09,-289.38"/>
<text text-anchor="middle" x="132.35" y="-283.3" font-family="Helvetica,sans-Serif" font-size="14.00">Mitigates</text>
</g>
<!-- indicator&#45;&gt;attack_pattern -->
<g id="edge1" class="edge">
<title>indicator&#45;&gt;attack_pattern</title>
<path fill="none" stroke="black" stroke-width="0.3" d="M243.17,-328.18C252.29,-362.77 270.76,-420.54 300.71,-462.5 324.44,-495.74 360.82,-525.11 388.12,-544.45"/>
<polygon fill="black" stroke="black" stroke-width="0.3" points="386.43,-547.54 396.64,-550.37 390.42,-541.79 386.43,-547.54"/>
<text text-anchor="middle" x="330.68" y="-525.3" font-family="Helvetica,sans-Serif" font-size="14.00">Indicates</text>
</g>
<!-- indicator&#45;&gt;campaign -->
<g id="edge2" class="edge">
<title>indicator&#45;&gt;campaign</title>
<path fill="none" stroke="black" stroke-width="0.3" d="M253,-328.05C264.93,-347.72 282.09,-373.52 300.71,-393.5 326.98,-421.7 361.78,-448.39 387.9,-466.78"/>
<polygon fill="black" stroke="black" stroke-width="0.3" points="386.19,-469.86 396.4,-472.69 390.19,-464.11 386.19,-469.86"/>
<text text-anchor="middle" x="330.68" y="-447.3" font-family="Helvetica,sans-Serif" font-size="14.00">Indicates</text>
</g>
<!-- infrastructure -->
<g id="node5" class="node">
<title>infrastructure</title>
<polygon fill="none" stroke="black" stroke-width="0" points="455.64,-444 396.64,-444 396.64,-385 455.64,-385 455.64,-444"/>
<image xlink:href="/cti-documentation/img/icons/infrastructure.png" width="59px" height="59px" preserveAspectRatio="xMinYMin meet" x="396.641" y="-444"/>
</g>
<!-- indicator&#45;&gt;infrastructure -->
<g id="edge3" class="edge">
<title>indicator&#45;&gt;infrastructure</title>
<path fill="none" stroke="black" stroke-width="0.3" d="M264.88,-318.12C275.98,-325.58 288.85,-334.07 300.71,-341.5 329.45,-359.49 362.59,-378.87 387.44,-393.13"/>
<polygon fill="black" stroke="black" stroke-width="0.3" points="385.78,-396.22 396.2,-398.15 389.26,-390.14 385.78,-396.22"/>
<text text-anchor="middle" x="330.68" y="-378.3" font-family="Helvetica,sans-Serif" font-size="14.00">Indicates</text>
</g>
<!-- intrusion_set -->
<g id="node6" class="node">
<title>intrusion_set</title>
<polygon fill="none" stroke="black" stroke-width="0" points="455.64,-367 396.64,-367 396.64,-308 455.64,-308 455.64,-367"/>
<image xlink:href="/cti-documentation/img/icons/intrusion_set.png" width="59px" height="59px" preserveAspectRatio="xMinYMin meet" x="396.641" y="-367"/>
</g>
<!-- indicator&#45;&gt;intrusion_set -->
<g id="edge4" class="edge">
<title>indicator&#45;&gt;intrusion_set</title>
<path fill="none" stroke="black" stroke-width="0.3" d="M264.9,-304.42C297.32,-311.11 350.24,-322.04 386.33,-329.49"/>
<polygon fill="black" stroke="black" stroke-width="0.3" points="385.99,-332.99 396.49,-331.59 387.4,-326.14 385.99,-332.99"/>
<text text-anchor="middle" x="330.68" y="-326.3" font-family="Helvetica,sans-Serif" font-size="14.00">Indicates</text>
</g>
<!-- malware -->
<g id="node7" class="node">
<title>malware</title>
<polygon fill="none" stroke="black" stroke-width="0" points="455.64,-290 396.64,-290 396.64,-231 455.64,-231 455.64,-290"/>
<image xlink:href="/cti-documentation/img/icons/malware.png" width="59px" height="59px" preserveAspectRatio="xMinYMin meet" x="396.641" y="-290"/>
</g>
<!-- indicator&#45;&gt;malware -->
<g id="edge5" class="edge">
<title>indicator&#45;&gt;malware</title>
<path fill="none" stroke="black" stroke-width="0.3" d="M264.9,-292.73C297.32,-286.21 350.24,-275.56 386.33,-268.31"/>
<polygon fill="black" stroke="black" stroke-width="0.3" points="387.37,-271.67 396.49,-266.26 385.99,-264.8 387.37,-271.67"/>
<text text-anchor="middle" x="330.68" y="-287.3" font-family="Helvetica,sans-Serif" font-size="14.00">Indicates</text>
</g>
<!-- observed_data -->
<g id="node8" class="node">
<title>observed_data</title>
<polygon fill="none" stroke="black" stroke-width="0" points="455.64,-213 396.64,-213 396.64,-154 455.64,-154 455.64,-213"/>
<image xlink:href="/cti-documentation/img/icons/observed_data.png" width="59px" height="59px" preserveAspectRatio="xMinYMin meet" x="396.641" y="-213"/>
</g>
<!-- indicator&#45;&gt;observed_data -->
<g id="edge8" class="edge">
<title>indicator&#45;&gt;observed_data</title>
<path fill="none" stroke="black" stroke-width="0.3" d="M264.92,-279.39C276.03,-272.11 288.89,-263.81 300.71,-256.5 329.55,-238.67 362.68,-219.28 387.5,-204.97"/>
<polygon fill="black" stroke="black" stroke-width="0.3" points="389.33,-207.96 396.25,-199.94 385.84,-201.89 389.33,-207.96"/>
<text text-anchor="middle" x="330.68" y="-259.3" font-family="Helvetica,sans-Serif" font-size="14.00">Based&#45;on</text>
</g>
<!-- threat_actor -->
<g id="node9" class="node">
<title>threat_actor</title>
<polygon fill="none" stroke="black" stroke-width="0" points="455.64,-136 396.64,-136 396.64,-77 455.64,-77 455.64,-136"/>
<image xlink:href="/cti-documentation/img/icons/threat_actor.png" width="59px" height="59px" preserveAspectRatio="xMinYMin meet" x="396.641" y="-136"/>
</g>
<!-- indicator&#45;&gt;threat_actor -->
<g id="edge6" class="edge">
<title>indicator&#45;&gt;threat_actor</title>
<path fill="none" stroke="black" stroke-width="0.3" d="M253.31,-268.85C265.26,-249.45 282.31,-224.15 300.71,-204.5 327.05,-176.37 361.85,-149.66 387.94,-131.26"/>
<polygon fill="black" stroke="black" stroke-width="0.3" points="390.23,-133.93 396.44,-125.34 386.23,-128.19 390.23,-133.93"/>
<text text-anchor="middle" x="330.68" y="-207.3" font-family="Helvetica,sans-Serif" font-size="14.00">Indicates</text>
</g>
<!-- tool -->
<g id="node10" class="node">
<title>tool</title>
<polygon fill="none" stroke="black" stroke-width="0" points="455.64,-59 396.64,-59 396.64,0 455.64,0 455.64,-59"/>
<image xlink:href="/cti-documentation/img/icons/tool.png" width="59px" height="59px" preserveAspectRatio="xMinYMin meet" x="396.641" y="-59"/>
</g>
<!-- indicator&#45;&gt;tool -->
<g id="edge7" class="edge">
<title>indicator&#45;&gt;tool</title>
<path fill="none" stroke="black" stroke-width="0.3" d="M243.29,-268.7C252.48,-234.29 270.96,-177.08 300.71,-135.5 324.4,-102.39 360.62,-73.1 387.88,-53.74"/>
<polygon fill="black" stroke="black" stroke-width="0.3" points="390.19,-56.4 396.39,-47.82 386.19,-50.66 390.19,-56.4"/>
<text text-anchor="middle" x="330.68" y="-138.3" font-family="Helvetica,sans-Serif" font-size="14.00">Indicates</text>
</g>
</g>
</svg>
