<?xml version="1.0" encoding="UTF-8" standalone="no"?>
<!DOCTYPE svg PUBLIC "-//W3C//DTD SVG 1.1//EN"
 "http://www.w3.org/Graphics/SVG/1.1/DTD/svg11.dtd">
<!-- Generated by graphviz version 2.42.3 (20191010.1750)
 -->
<!-- Title: STIX Pages: 1 -->
<svg width="661pt" height="658pt"
 viewBox="0.00 0.00 661.05 658.00" xmlns="http://www.w3.org/2000/svg" xmlns:xlink="http://www.w3.org/1999/xlink">
<g id="graph0" class="graph" transform="scale(1 1) rotate(0) translate(4 654)">
<title>STIX</title>
<polygon fill="white" stroke="transparent" points="-4,4 -4,-654 657.05,-654 657.05,4 -4,4"/>
<!-- attack_pattern -->
<g id="node1" class="node">
<title>attack_pattern</title>
<polygon fill="none" stroke="black" stroke-width="0" points="581.05,-650 522.05,-650 522.05,-591 581.05,-591 581.05,-650"/>
<image xlink:href="attack_pattern.png" width="59px" height="59px" preserveAspectRatio="xMinYMin meet" x="522.048" y="-650"/>
</g>
<!-- campaign -->
<g id="node2" class="node">
<title>campaign</title>
<polygon fill="none" stroke="black" stroke-width="0" points="581.05,-573 522.05,-573 522.05,-514 581.05,-514 581.05,-573"/>
<image xlink:href="campaign.png" width="59px" height="59px" preserveAspectRatio="xMinYMin meet" x="522.048" y="-573"/>
</g>
<!-- indicator -->
<g id="node3" class="node">
<title>indicator</title>
<polygon fill="none" stroke="black" stroke-width="0" points="318.12,-380 259.12,-380 259.12,-321 318.12,-321 318.12,-380"/>
<image xlink:href="indicator.png" width="59px" height="59px" preserveAspectRatio="xMinYMin meet" x="259.117" y="-380"/>
</g>
<!-- indicator&#45;&gt;attack_pattern -->
<g id="edge1" class="edge">
<title>indicator&#45;&gt;attack_pattern</title>
<path fill="none" stroke="black" stroke-width="0.3" d="M297.76,-380.13C307.56,-412.2 326.24,-463.79 354.12,-501.5 387.29,-546.37 401.94,-554.23 450.05,-582.5 469.36,-593.85 492.66,-602.91 511.97,-609.34"/>
<polygon fill="black" stroke="black" stroke-width="0.3" points="511.06,-612.72 521.65,-612.45 513.21,-606.06 511.06,-612.72"/>
<text text-anchor="middle" x="384.08" y="-562.3" font-family="Helvetica,sans-Serif" font-size="14.00">Indicates</text>
</g>
<!-- indicator&#45;&gt;campaign -->
<g id="edge2" class="edge">
<title>indicator&#45;&gt;campaign</title>
<path fill="none" stroke="black" stroke-width="0.3" d="M311.1,-380.37C322.98,-396.03 338.48,-415.1 354.12,-430.5 392.67,-468.48 402.88,-478.96 450.05,-505.5 469.57,-516.48 492.88,-525.52 512.14,-532.03"/>
<polygon fill="black" stroke="black" stroke-width="0.3" points="511.21,-535.4 521.8,-535.19 513.39,-528.75 511.21,-535.4"/>
<text text-anchor="middle" x="384.08" y="-486.3" font-family="Helvetica,sans-Serif" font-size="14.00">Indicates</text>
</g>
<!-- infrastructure -->
<g id="node4" class="node">
<title>infrastructure</title>
<polygon fill="none" stroke="black" stroke-width="0" points="581.05,-496 522.05,-496 522.05,-437 581.05,-437 581.05,-496"/>
<image xlink:href="infrastructure.png" width="59px" height="59px" preserveAspectRatio="xMinYMin meet" x="522.048" y="-496"/>
</g>
<!-- indicator&#45;&gt;infrastructure -->
<g id="edge3" class="edge">
<title>indicator&#45;&gt;infrastructure</title>
<path fill="none" stroke="black" stroke-width="0.3" d="M318.2,-367.23C329.29,-373.52 342.17,-380.57 354.12,-386.5 407.74,-413.13 472.49,-438.2 512.6,-452.96"/>
<polygon fill="black" stroke="black" stroke-width="0.3" points="511.4,-456.24 521.99,-456.39 513.8,-449.67 511.4,-456.24"/>
<text text-anchor="middle" x="384.08" y="-415.3" font-family="Helvetica,sans-Serif" font-size="14.00">Indicates</text>
</g>
<!-- intrusion_set -->
<g id="node5" class="node">
<title>intrusion_set</title>
<polygon fill="none" stroke="black" stroke-width="0" points="581.05,-419 522.05,-419 522.05,-360 581.05,-360 581.05,-419"/>
<image xlink:href="intrusion_set.png" width="59px" height="59px" preserveAspectRatio="xMinYMin meet" x="522.048" y="-419"/>
</g>
<!-- indicator&#45;&gt;intrusion_set -->
<g id="edge4" class="edge">
<title>indicator&#45;&gt;intrusion_set</title>
<path fill="none" stroke="black" stroke-width="0.3" d="M318.29,-354.79C365.33,-361.82 458.93,-375.81 511.82,-383.71"/>
<polygon fill="black" stroke="black" stroke-width="0.3" points="511.42,-387.19 521.83,-385.21 512.46,-380.27 511.42,-387.19"/>
<text text-anchor="middle" x="384.08" y="-371.3" font-family="Helvetica,sans-Serif" font-size="14.00">Indicates</text>
</g>
<!-- malware -->
<g id="node6" class="node">
<title>malware</title>
<polygon fill="none" stroke="black" stroke-width="0" points="581.05,-342 522.05,-342 522.05,-283 581.05,-283 581.05,-342"/>
<image xlink:href="malware.png" width="59px" height="59px" preserveAspectRatio="xMinYMin meet" x="522.048" y="-342"/>
</g>
<!-- indicator&#45;&gt;malware -->
<g id="edge5" class="edge">
<title>indicator&#45;&gt;malware</title>
<path fill="none" stroke="black" stroke-width="0.3" d="M318.29,-346.32C365.33,-339.47 458.93,-325.84 511.82,-318.14"/>
<polygon fill="black" stroke="black" stroke-width="0.3" points="512.44,-321.59 521.83,-316.68 511.43,-314.66 512.44,-321.59"/>
<text text-anchor="middle" x="384.08" y="-343.3" font-family="Helvetica,sans-Serif" font-size="14.00">Indicates</text>
</g>
<!-- observed_data -->
<g id="node7" class="node">
<title>observed_data</title>
<polygon fill="none" stroke="black" stroke-width="0" points="653.05,-264.5 450.05,-264.5 450.05,-154.5 653.05,-154.5 653.05,-264.5"/>
<image xlink:href="observed_data.png" width="203px" height="110px" preserveAspectRatio="xMinYMin meet" x="450.048" y="-264.5"/>
</g>
<!-- indicator&#45;&gt;observed_data -->
<g id="edge8" class="edge">
<title>indicator&#45;&gt;observed_data</title>
<path fill="none" stroke="black" stroke-width="0.3" d="M318.19,-334.98C329.39,-328.9 342.35,-321.87 354.12,-315.5 382.18,-300.31 412.51,-283.93 440.75,-268.69"/>
<polygon fill="black" stroke="black" stroke-width="0.3" points="442.7,-271.62 449.84,-263.79 439.37,-265.46 442.7,-271.62"/>
<text text-anchor="middle" x="384.08" y="-318.3" font-family="Helvetica,sans-Serif" font-size="14.00">Based&#45;on</text>
</g>
<!-- threat_actor -->
<g id="node8" class="node">
<title>threat_actor</title>
<polygon fill="none" stroke="black" stroke-width="0" points="581.05,-136 522.05,-136 522.05,-77 581.05,-77 581.05,-136"/>
<image xlink:href="threat_actor.png" width="59px" height="59px" preserveAspectRatio="xMinYMin meet" x="522.048" y="-136"/>
</g>
<!-- indicator&#45;&gt;threat_actor -->
<g id="edge6" class="edge">
<title>indicator&#45;&gt;threat_actor</title>
<path fill="none" stroke="black" stroke-width="0.3" d="M305.67,-320.85C330.92,-276.8 383.93,-194.04 450.05,-145.5 468.5,-131.95 492.27,-122.45 512.06,-116.21"/>
<polygon fill="black" stroke="black" stroke-width="0.3" points="513.12,-119.55 521.7,-113.33 511.12,-112.84 513.12,-119.55"/>
<text text-anchor="middle" x="384.08" y="-245.3" font-family="Helvetica,sans-Serif" font-size="14.00">Indicates</text>
</g>
<!-- tool -->
<g id="node9" class="node">
<title>tool</title>
<polygon fill="none" stroke="black" stroke-width="0" points="581.05,-59 522.05,-59 522.05,0 581.05,0 581.05,-59"/>
<image xlink:href="tool.png" width="59px" height="59px" preserveAspectRatio="xMinYMin meet" x="522.048" y="-59"/>
</g>
<!-- indicator&#45;&gt;tool -->
<g id="edge7" class="edge">
<title>indicator&#45;&gt;tool</title>
<path fill="none" stroke="black" stroke-width="0.3" d="M295.11,-320.95C303.35,-281.89 321.52,-212.02 354.12,-160.5 385.87,-110.32 399.92,-99.33 450.05,-67.5 469.09,-55.41 492.57,-46.26 512.04,-39.98"/>
<polygon fill="black" stroke="black" stroke-width="0.3" points="513.3,-43.25 521.81,-36.95 511.22,-36.56 513.3,-43.25"/>
<text text-anchor="middle" x="384.08" y="-163.3" font-family="Helvetica,sans-Serif" font-size="14.00">Indicates</text>
</g>
<!-- course_of_action -->
<g id="node10" class="node">
<title>course_of_action</title>
<polygon fill="none" stroke="black" stroke-width="0" points="112.61,-368.5 -0.2,-368.5 -0.2,-332.5 112.61,-332.5 112.61,-368.5"/>
<text text-anchor="middle" x="56.2" y="-346.3" font-family="Times,serif" font-size="14.00">course_of_action</text>
</g>
<!-- course_of_action&#45;&gt;indicator -->
<g id="edge9" class="edge">
<title>course_of_action&#45;&gt;indicator</title>
<path fill="none" stroke="black" stroke-width="0.3" d="M112.69,-350.5C154.62,-350.5 211.15,-350.5 248.45,-350.5"/>
<polygon fill="black" stroke="black" stroke-width="0.3" points="248.91,-354 258.91,-350.5 248.91,-347 248.91,-354"/>
<text text-anchor="middle" x="185.76" y="-353.3" font-family="Helvetica,sans-Serif" font-size="14.00">Investigates</text>
</g>
<!-- course_of_action&#45;&gt;indicator -->
<g id="edge10" class="edge">
<title>course_of_action&#45;&gt;indicator</title>
<path fill="none" stroke="black" stroke-width="0.3" d="M112.41,-337.81C124.23,-335.6 136.68,-333.65 148.41,-332.5 181.45,-329.27 190.22,-328 223.12,-332.5 231.73,-333.68 240.81,-335.7 249.35,-337.98"/>
<polygon fill="black" stroke="black" stroke-width="0.3" points="248.5,-341.38 259.07,-340.73 250.4,-334.64 248.5,-341.38"/>
<text text-anchor="middle" x="185.76" y="-335.3" font-family="Helvetica,sans-Serif" font-size="14.00">Mitigates</text>
</g>
</g>
</svg>
