<?xml version="1.0" encoding="UTF-8" standalone="no"?>
<!DOCTYPE svg PUBLIC "-//W3C//DTD SVG 1.1//EN"
 "http://www.w3.org/Graphics/SVG/1.1/DTD/svg11.dtd">
<!-- Generated by graphviz version 2.36.0 (20140111.2315)
 -->
<!-- Title: STIX Pages: 1 -->
<svg width="258pt" height="451pt"
 viewBox="0.00 0.00 258.00 451.00" xmlns="http://www.w3.org/2000/svg" xmlns:xlink="http://www.w3.org/1999/xlink">
<g id="graph0" class="graph" transform="scale(1 1) rotate(0) translate(4 447)">
<title>STIX</title>
<polygon fill="white" stroke="none" points="-4,4 -4,-447 254,-447 254,4 -4,4"/>
<!-- attack_pattern -->
<g id="node1" class="node"><title>attack_pattern</title>
<polygon fill="none" stroke="black" stroke-width="0" points="249.5,-443.5 190.5,-443.5 190.5,-384.5 249.5,-384.5 249.5,-443.5"/>
<image xlink:href="/cti-documentation/img/icons/attack_pattern.png" width="44.25px" height="44.25px" preserveAspectRatio="xMinYMin meet" x="197.875" y="-436.125"/>
</g>
<!-- campaign -->
<g id="node2" class="node"><title>campaign</title>
<polygon fill="none" stroke="black" stroke-width="0" points="249.5,-366.5 190.5,-366.5 190.5,-307.5 249.5,-307.5 249.5,-366.5"/>
<image xlink:href="/cti-documentation/img/icons/campaign.png" width="44.25px" height="44.25px" preserveAspectRatio="xMinYMin meet" x="197.875" y="-359.125"/>
</g>
<!-- indicator -->
<g id="node3" class="node"><title>indicator</title>
<polygon fill="none" stroke="black" stroke-width="0" points="59.5,-250.5 0.5,-250.5 0.5,-191.5 59.5,-191.5 59.5,-250.5"/>
<image xlink:href="/cti-documentation/img/icons/indicator.png" width="44.25px" height="44.25px" preserveAspectRatio="xMinYMin meet" x="7.875" y="-243.125"/>
</g>
<!-- indicator&#45;&gt;attack_pattern -->
<g id="edge1" class="edge"><title>indicator&#45;&gt;attack_pattern</title>
<path fill="none" stroke="black" stroke-width="0.3" d="M47.2952,-250.335C59.2953,-270.544 76.8091,-297.368 96,-318 121.775,-345.71 156.049,-371.767 181.87,-389.722"/>
<polygon fill="black" stroke="black" stroke-width="0.3" points="180.053,-392.719 190.278,-395.491 184.013,-386.947 180.053,-392.719"/>
<text text-anchor="middle" x="125" y="-371.8" font-family="Helvetica,sans-Serif" font-size="14.00">Indicates</text>
</g>
<!-- indicator&#45;&gt;campaign -->
<g id="edge2" class="edge"><title>indicator&#45;&gt;campaign</title>
<path fill="none" stroke="black" stroke-width="0.3" d="M59.5308,-240.903C70.7849,-248.599 83.8948,-257.371 96,-265 124.214,-282.781 156.814,-301.797 181.361,-315.818"/>
<polygon fill="black" stroke="black" stroke-width="0.3" points="179.926,-319.029 190.348,-320.935 183.389,-312.946 179.926,-319.029"/>
<text text-anchor="middle" x="125" y="-302.8" font-family="Helvetica,sans-Serif" font-size="14.00">Indicates</text>
</g>
<!-- intrusion_set -->
<g id="node4" class="node"><title>intrusion_set</title>
<polygon fill="none" stroke="black" stroke-width="0" points="249.5,-289.5 190.5,-289.5 190.5,-230.5 249.5,-230.5 249.5,-289.5"/>
<image xlink:href="/cti-documentation/img/icons/intrusion_set.png" width="44.25px" height="44.25px" preserveAspectRatio="xMinYMin meet" x="197.875" y="-282.125"/>
</g>
<!-- indicator&#45;&gt;intrusion_set -->
<g id="edge3" class="edge"><title>indicator&#45;&gt;intrusion_set</title>
<path fill="none" stroke="black" stroke-width="0.3" d="M59.5532,-226.923C91.8075,-233.614 144.471,-244.539 180.379,-251.988"/>
<polygon fill="black" stroke="black" stroke-width="0.3" points="179.984,-255.481 190.487,-254.085 181.406,-248.627 179.984,-255.481"/>
<text text-anchor="middle" x="125" y="-249.8" font-family="Helvetica,sans-Serif" font-size="14.00">Indicates</text>
</g>
<!-- malware -->
<g id="node5" class="node"><title>malware</title>
<polygon fill="none" stroke="black" stroke-width="0" points="249.5,-212.5 190.5,-212.5 190.5,-153.5 249.5,-153.5 249.5,-212.5"/>
<image xlink:href="/cti-documentation/img/icons/malware.png" width="44.25px" height="44.25px" preserveAspectRatio="xMinYMin meet" x="197.875" y="-205.125"/>
</g>
<!-- indicator&#45;&gt;malware -->
<g id="edge4" class="edge"><title>indicator&#45;&gt;malware</title>
<path fill="none" stroke="black" stroke-width="0.3" d="M59.5532,-215.229C91.8075,-208.709 144.471,-198.064 180.379,-190.806"/>
<polygon fill="black" stroke="black" stroke-width="0.3" points="181.378,-194.175 190.487,-188.763 179.992,-187.314 181.378,-194.175"/>
<text text-anchor="middle" x="125" y="-210.8" font-family="Helvetica,sans-Serif" font-size="14.00">Indicates</text>
</g>
<!-- threat_actor -->
<g id="node6" class="node"><title>threat_actor</title>
<polygon fill="none" stroke="black" stroke-width="0" points="249.5,-135.5 190.5,-135.5 190.5,-76.5 249.5,-76.5 249.5,-135.5"/>
<image xlink:href="/cti-documentation/img/icons/threat_actor.png" width="44.25px" height="44.25px" preserveAspectRatio="xMinYMin meet" x="197.875" y="-128.125"/>
</g>
<!-- indicator&#45;&gt;threat_actor -->
<g id="edge5" class="edge"><title>indicator&#45;&gt;threat_actor</title>
<path fill="none" stroke="black" stroke-width="0.3" d="M59.5066,-201.058C70.7576,-193.358 83.8717,-184.592 96,-177 124.169,-159.367 156.771,-140.621 181.33,-126.821"/>
<polygon fill="black" stroke="black" stroke-width="0.3" points="183.307,-129.726 190.323,-121.787 179.887,-123.618 183.307,-129.726"/>
<text text-anchor="middle" x="125" y="-180.8" font-family="Helvetica,sans-Serif" font-size="14.00">Indicates</text>
</g>
<!-- tool -->
<g id="node7" class="node"><title>tool</title>
<polygon fill="none" stroke="black" stroke-width="0" points="249.5,-58.5 190.5,-58.5 190.5,0.5 249.5,0.5 249.5,-58.5"/>
<image xlink:href="/cti-documentation/img/icons/tool.png" width="44.25px" height="44.25px" preserveAspectRatio="xMinYMin meet" x="197.875" y="-51.125"/>
</g>
<!-- indicator&#45;&gt;tool -->
<g id="edge6" class="edge"><title>indicator&#45;&gt;tool</title>
<path fill="none" stroke="black" stroke-width="0.3" d="M47.2625,-191.635C59.2476,-171.412 76.7568,-144.583 96,-124 121.743,-96.4638 156.021,-70.6892 181.851,-52.9544"/>
<polygon fill="black" stroke="black" stroke-width="0.3" points="183.945,-55.763 190.262,-47.2573 180.02,-49.9673 183.945,-55.763"/>
<text text-anchor="middle" x="125" y="-127.8" font-family="Helvetica,sans-Serif" font-size="14.00">Indicates</text>
</g>
</g>
</svg>
