<?xml version="1.0" encoding="UTF-8" standalone="no"?>
<!DOCTYPE svg PUBLIC "-//W3C//DTD SVG 1.1//EN"
 "http://www.w3.org/Graphics/SVG/1.1/DTD/svg11.dtd">
<!-- Generated by graphviz version 2.42.3 (20191010.1750)
 -->
<!-- Title: STIX Pages: 1 -->
<svg width="637pt" height="742pt"
 viewBox="0.00 0.00 637.15 742.00" xmlns="http://www.w3.org/2000/svg" xmlns:xlink="http://www.w3.org/1999/xlink">
<g id="graph0" class="graph" transform="scale(1 1) rotate(0) translate(4 738)">
<title>STIX</title>
<polygon fill="white" stroke="transparent" points="-4,4 -4,-738 633.15,-738 633.15,4 -4,4"/>
<!-- attack_pattern -->
<g id="node1" class="node">
<title>attack_pattern</title>
<polygon fill="none" stroke="black" stroke-width="0" points="276.35,-518 217.35,-518 217.35,-459 276.35,-459 276.35,-518"/>
<image xlink:href="/cti-documentation/img/icons/attack_pattern.png" width="59px" height="59px" preserveAspectRatio="xMinYMin meet" x="217.352" y="-518"/>
</g>
<!-- campaign -->
<g id="node2" class="node">
<title>campaign</title>
<polygon fill="none" stroke="black" stroke-width="0" points="59,-580 0,-580 0,-521 59,-521 59,-580"/>
<image xlink:href="/cti-documentation/img/icons/campaign.png" width="59px" height="59px" preserveAspectRatio="xMinYMin meet" x="0" y="-580"/>
</g>
<!-- campaign&#45;&gt;attack_pattern -->
<g id="edge29" class="edge">
<title>campaign&#45;&gt;attack_pattern</title>
<path fill="none" stroke="black" stroke-width="0.3" d="M59.24,-562.48C90.75,-573.69 142.06,-586.14 181.35,-567.5 199.44,-558.92 214.13,-542.51 224.9,-526.86"/>
<polygon fill="black" stroke="black" stroke-width="0.3" points="227.95,-528.58 230.47,-518.29 222.08,-524.76 227.95,-528.58"/>
<text text-anchor="middle" x="138.18" y="-579.3" font-family="Helvetica,sans-Serif" font-size="14.00">Uses</text>
</g>
<!-- infrastructure -->
<g id="node6" class="node">
<title>infrastructure</title>
<polygon fill="none" stroke="black" stroke-width="0" points="276.35,-313 217.35,-313 217.35,-254 276.35,-254 276.35,-313"/>
<image xlink:href="/cti-documentation/img/icons/infrastructure.png" width="59px" height="59px" preserveAspectRatio="xMinYMin meet" x="217.352" y="-313"/>
</g>
<!-- campaign&#45;&gt;infrastructure -->
<g id="edge12" class="edge">
<title>campaign&#45;&gt;infrastructure</title>
<path fill="none" stroke="black" stroke-width="0.3" d="M59.07,-550.4C97.68,-549.66 163.73,-546.07 181.35,-530.5 212.19,-503.26 232.22,-385.61 240.9,-323.02"/>
<polygon fill="black" stroke="black" stroke-width="0.3" points="244.37,-323.48 242.25,-313.11 237.44,-322.54 244.37,-323.48"/>
<text text-anchor="middle" x="138.18" y="-551.3" font-family="Helvetica,sans-Serif" font-size="14.00">Compromises</text>
</g>
<!-- campaign&#45;&gt;infrastructure -->
<g id="edge24" class="edge">
<title>campaign&#45;&gt;infrastructure</title>
<path fill="none" stroke="black" stroke-width="0.3" d="M59.05,-531.06C69.92,-524.37 82.66,-517.35 95,-512.5 131.57,-498.13 152.46,-520.13 181.35,-493.5 229.19,-449.4 241.92,-370.82 245.08,-323.3"/>
<polygon fill="black" stroke="black" stroke-width="0.3" points="248.59,-323.25 245.64,-313.08 241.6,-322.87 248.59,-323.25"/>
<text text-anchor="middle" x="138.18" y="-515.3" font-family="Helvetica,sans-Serif" font-size="14.00">Uses</text>
</g>
<!-- course_of_action -->
<g id="node3" class="node">
<title>course_of_action</title>
<polygon fill="none" stroke="black" stroke-width="0" points="59,-657 0,-657 0,-598 59,-598 59,-657"/>
<image xlink:href="/cti-documentation/img/icons/course_of_action.png" width="59px" height="59px" preserveAspectRatio="xMinYMin meet" x="0" y="-657"/>
</g>
<!-- course_of_action&#45;&gt;attack_pattern -->
<g id="edge32" class="edge">
<title>course_of_action&#45;&gt;attack_pattern</title>
<path fill="none" stroke="black" stroke-width="0.3" d="M59.01,-627.75C91.5,-626.66 144.8,-620.58 181.35,-594.5 204.37,-578.08 220.74,-550.63 231.23,-527.78"/>
<polygon fill="black" stroke="black" stroke-width="0.3" points="234.56,-528.88 235.36,-518.32 228.15,-526.08 234.56,-528.88"/>
<text text-anchor="middle" x="138.18" y="-627.3" font-family="Helvetica,sans-Serif" font-size="14.00">Mitigates</text>
</g>
<!-- identity -->
<g id="node4" class="node">
<title>identity</title>
<polygon fill="none" stroke="black" stroke-width="0" points="59,-734 0,-734 0,-675 59,-675 59,-734"/>
<image xlink:href="/cti-documentation/img/icons/identity.png" width="59px" height="59px" preserveAspectRatio="xMinYMin meet" x="0" y="-734"/>
</g>
<!-- indicator -->
<g id="node5" class="node">
<title>indicator</title>
<polygon fill="none" stroke="black" stroke-width="0" points="59,-487 0,-487 0,-428 59,-428 59,-487"/>
<image xlink:href="/cti-documentation/img/icons/indicator.png" width="59px" height="59px" preserveAspectRatio="xMinYMin meet" x="0" y="-487"/>
</g>
<!-- indicator&#45;&gt;attack_pattern -->
<g id="edge33" class="edge">
<title>indicator&#45;&gt;attack_pattern</title>
<path fill="none" stroke="black" stroke-width="0.3" d="M59.1,-461.62C97.15,-467.09 164.56,-476.8 207.14,-482.93"/>
<polygon fill="black" stroke="black" stroke-width="0.3" points="206.74,-486.41 217.14,-484.37 207.74,-479.48 206.74,-486.41"/>
<text text-anchor="middle" x="138.18" y="-481.3" font-family="Helvetica,sans-Serif" font-size="14.00">Indicates</text>
</g>
<!-- indicator&#45;&gt;infrastructure -->
<g id="edge19" class="edge">
<title>indicator&#45;&gt;infrastructure</title>
<path fill="none" stroke="black" stroke-width="0.3" d="M59.13,-453.26C97.47,-447.1 162.83,-434.71 181.35,-419.5 211.11,-395.07 227.98,-353.71 236.94,-323"/>
<polygon fill="black" stroke="black" stroke-width="0.3" points="240.4,-323.6 239.68,-313.03 233.65,-321.75 240.4,-323.6"/>
<text text-anchor="middle" x="138.18" y="-450.3" font-family="Helvetica,sans-Serif" font-size="14.00">Indicates</text>
</g>
<!-- infrastructure&#45;&gt;infrastructure -->
<g id="edge1" class="edge">
<title>infrastructure&#45;&gt;infrastructure</title>
<path fill="none" stroke="black" stroke-width="0.3" d="M241.98,-313.19C241.98,-323.08 243.6,-331 246.85,-331 248.88,-331 250.28,-327.91 251.04,-323.17"/>
<polygon fill="black" stroke="black" stroke-width="0.3" points="254.53,-323.4 251.73,-313.19 247.55,-322.92 254.53,-323.4"/>
<text text-anchor="middle" x="246.85" y="-333.8" font-family="Helvetica,sans-Serif" font-size="14.00">Communicates&#45;with</text>
</g>
<!-- infrastructure&#45;&gt;infrastructure -->
<g id="edge2" class="edge">
<title>infrastructure&#45;&gt;infrastructure</title>
<path fill="none" stroke="black" stroke-width="0.3" d="M237.79,-313.14C235.6,-331.51 238.62,-349 246.85,-349 253.54,-349 256.78,-337.46 256.59,-323.27"/>
<polygon fill="black" stroke="black" stroke-width="0.3" points="260.08,-322.88 255.91,-313.14 253.09,-323.35 260.08,-322.88"/>
<text text-anchor="middle" x="246.85" y="-351.8" font-family="Helvetica,sans-Serif" font-size="14.00">Consists&#45;of</text>
</g>
<!-- infrastructure&#45;&gt;infrastructure -->
<g id="edge4" class="edge">
<title>infrastructure&#45;&gt;infrastructure</title>
<path fill="none" stroke="black" stroke-width="0.3" d="M234.73,-313.03C229.03,-339.17 233.06,-367 246.85,-367 258.86,-367 263.47,-345.88 260.69,-323.16"/>
<polygon fill="black" stroke="black" stroke-width="0.3" points="264.1,-322.3 258.97,-313.03 257.19,-323.48 264.1,-322.3"/>
<text text-anchor="middle" x="246.85" y="-369.8" font-family="Helvetica,sans-Serif" font-size="14.00">Controls</text>
</g>
<!-- infrastructure&#45;&gt;infrastructure -->
<g id="edge11" class="edge">
<title>infrastructure&#45;&gt;infrastructure</title>
<path fill="none" stroke="black" stroke-width="0.3" d="M232.38,-313.11C222.43,-346.54 227.25,-385 246.85,-385 264.54,-385 270.19,-353.68 263.82,-323.01"/>
<polygon fill="black" stroke="black" stroke-width="0.3" points="267.16,-321.95 261.32,-313.11 260.37,-323.66 267.16,-321.95"/>
<text text-anchor="middle" x="246.85" y="-387.8" font-family="Helvetica,sans-Serif" font-size="14.00">Uses</text>
</g>
<!-- malware -->
<g id="node8" class="node">
<title>malware</title>
<polygon fill="none" stroke="black" stroke-width="0" points="557.15,-424 498.15,-424 498.15,-365 557.15,-365 557.15,-424"/>
<image xlink:href="/cti-documentation/img/icons/malware.png" width="59px" height="59px" preserveAspectRatio="xMinYMin meet" x="498.151" y="-424"/>
</g>
<!-- infrastructure&#45;&gt;malware -->
<g id="edge5" class="edge">
<title>infrastructure&#45;&gt;malware</title>
<path fill="none" stroke="black" stroke-width="0.3" d="M247.42,-313.05C248.56,-358.42 258.23,-444.09 312.35,-483.5 368.38,-524.3 445.89,-470.06 490.7,-430.1"/>
<polygon fill="black" stroke="black" stroke-width="0.3" points="493.1,-432.65 498.14,-423.33 488.39,-427.47 493.1,-432.65"/>
<text text-anchor="middle" x="351.25" y="-501.3" font-family="Helvetica,sans-Serif" font-size="14.00">Controls</text>
</g>
<!-- infrastructure&#45;&gt;malware -->
<g id="edge6" class="edge">
<title>infrastructure&#45;&gt;malware</title>
<path fill="none" stroke="black" stroke-width="0.3" d="M249.91,-313.14C254.34,-351.38 268.31,-416.56 312.35,-446.5 366.52,-483.32 444.01,-447.7 489.45,-420.02"/>
<polygon fill="black" stroke="black" stroke-width="0.3" points="491.47,-422.88 498.09,-414.61 487.76,-416.95 491.47,-422.88"/>
<text text-anchor="middle" x="351.25" y="-465.3" font-family="Helvetica,sans-Serif" font-size="14.00">Delivers</text>
</g>
<!-- infrastructure&#45;&gt;malware -->
<g id="edge9" class="edge">
<title>infrastructure&#45;&gt;malware</title>
<path fill="none" stroke="black" stroke-width="0.3" d="M253.67,-313.03C261.37,-343.24 278.18,-388.6 312.35,-409.5 366.3,-442.49 442.8,-425.2 488.31,-409.76"/>
<polygon fill="black" stroke="black" stroke-width="0.3" points="489.53,-413.04 497.8,-406.41 487.21,-406.44 489.53,-413.04"/>
<text text-anchor="middle" x="351.25" y="-431.3" font-family="Helvetica,sans-Serif" font-size="14.00">Hosts</text>
</g>
<!-- location -->
<g id="node9" class="node">
<title>location</title>
<polygon fill="none" stroke="black" stroke-width="0" points="557.15,-342 498.15,-342 498.15,-283 557.15,-283 557.15,-342"/>
<image xlink:href="/cti-documentation/img/icons/location.png" width="59px" height="59px" preserveAspectRatio="xMinYMin meet" x="498.151" y="-342"/>
</g>
<!-- infrastructure&#45;&gt;location -->
<g id="edge10" class="edge">
<title>infrastructure&#45;&gt;location</title>
<path fill="none" stroke="black" stroke-width="0.3" d="M276.37,-263.48C287.13,-257.05 299.82,-250.76 312.35,-247.5 345.82,-238.79 357.25,-236.86 390.15,-247.5 408.93,-253.57 408.81,-264.08 426.15,-273.5 445.9,-284.23 469.23,-293.47 488.44,-300.27"/>
<polygon fill="black" stroke="black" stroke-width="0.3" points="487.47,-303.64 498.07,-303.59 489.76,-297.02 487.47,-303.64"/>
<text text-anchor="middle" x="351.25" y="-250.3" font-family="Helvetica,sans-Serif" font-size="14.00">Located&#45;at</text>
</g>
<!-- observed_data -->
<g id="node10" class="node">
<title>observed_data</title>
<polygon fill="none" stroke="black" stroke-width="0" points="629.15,-264.5 426.15,-264.5 426.15,-154.5 629.15,-154.5 629.15,-264.5"/>
<image xlink:href="/cti-documentation/img/icons/observed_data.png" width="203px" height="110px" preserveAspectRatio="xMinYMin meet" x="426.151" y="-264.5"/>
</g>
<!-- infrastructure&#45;&gt;observed_data -->
<g id="edge3" class="edge">
<title>infrastructure&#45;&gt;observed_data</title>
<path fill="none" stroke="black" stroke-width="0.3" d="M271.08,-253.83C282.19,-241.9 296.51,-229.37 312.35,-222.5 344.33,-208.64 381.55,-203.17 415.9,-201.81"/>
<polygon fill="black" stroke="black" stroke-width="0.3" points="416.09,-205.3 425.98,-201.52 415.89,-198.31 416.09,-205.3"/>
<text text-anchor="middle" x="351.25" y="-225.3" font-family="Helvetica,sans-Serif" font-size="14.00">Consists&#45;of</text>
</g>
<!-- tool -->
<g id="node12" class="node">
<title>tool</title>
<polygon fill="none" stroke="black" stroke-width="0" points="557.15,-136 498.15,-136 498.15,-77 557.15,-77 557.15,-136"/>
<image xlink:href="/cti-documentation/img/icons/tool.png" width="59px" height="59px" preserveAspectRatio="xMinYMin meet" x="498.151" y="-136"/>
</g>
<!-- infrastructure&#45;&gt;tool -->
<g id="edge8" class="edge">
<title>infrastructure&#45;&gt;tool</title>
<path fill="none" stroke="black" stroke-width="0.3" d="M261.22,-253.99C272.22,-232.63 289.7,-204.47 312.35,-186.5 326.65,-175.16 430.95,-138.84 488.6,-119.27"/>
<polygon fill="black" stroke="black" stroke-width="0.3" points="489.76,-122.58 498.11,-116.05 487.52,-115.95 489.76,-122.58"/>
<text text-anchor="middle" x="351.25" y="-189.3" font-family="Helvetica,sans-Serif" font-size="14.00">Hosts</text>
</g>
<!-- vulnerability -->
<g id="node13" class="node">
<title>vulnerability</title>
<polygon fill="none" stroke="black" stroke-width="0" points="557.15,-59 498.15,-59 498.15,0 557.15,0 557.15,-59"/>
<image xlink:href="/cti-documentation/img/icons/vulnerability.png" width="59px" height="59px" preserveAspectRatio="xMinYMin meet" x="498.151" y="-59"/>
</g>
<!-- infrastructure&#45;&gt;vulnerability -->
<g id="edge7" class="edge">
<title>infrastructure&#45;&gt;vulnerability</title>
<path fill="none" stroke="black" stroke-width="0.3" d="M246.93,-253.87C247.17,-205.24 255.35,-108.97 312.35,-59.5 361.02,-17.26 440.68,-18.16 487.95,-23.35"/>
<polygon fill="black" stroke="black" stroke-width="0.3" points="487.74,-26.85 498.09,-24.58 488.59,-19.9 487.74,-26.85"/>
<text text-anchor="middle" x="351.25" y="-62.3" font-family="Helvetica,sans-Serif" font-size="14.00">Has</text>
</g>
<!-- intrusion_set -->
<g id="node7" class="node">
<title>intrusion_set</title>
<polygon fill="none" stroke="black" stroke-width="0" points="59,-360 0,-360 0,-301 59,-301 59,-360"/>
<image xlink:href="/cti-documentation/img/icons/intrusion_set.png" width="59px" height="59px" preserveAspectRatio="xMinYMin meet" x="0" y="-360"/>
</g>
<!-- intrusion_set&#45;&gt;attack_pattern -->
<g id="edge30" class="edge">
<title>intrusion_set&#45;&gt;attack_pattern</title>
<path fill="none" stroke="black" stroke-width="0.3" d="M59.26,-351.09C70.15,-358.39 82.85,-366.31 95,-372.5 131.61,-391.15 148.34,-381.04 181.35,-405.5 186.12,-409.03 202.7,-430.4 217.85,-450.57"/>
<polygon fill="black" stroke="black" stroke-width="0.3" points="215.2,-452.88 224,-458.79 220.81,-448.69 215.2,-452.88"/>
<text text-anchor="middle" x="138.18" y="-408.3" font-family="Helvetica,sans-Serif" font-size="14.00">Uses</text>
</g>
<!-- intrusion_set&#45;&gt;infrastructure -->
<g id="edge13" class="edge">
<title>intrusion_set&#45;&gt;infrastructure</title>
<path fill="none" stroke="black" stroke-width="0.3" d="M47.95,-300.67C59.14,-284.65 75.27,-266.4 95,-257.5 131.12,-241.22 176.33,-252.71 207.79,-265.16"/>
<polygon fill="black" stroke="black" stroke-width="0.3" points="206.51,-268.42 217.09,-269.02 209.2,-261.95 206.51,-268.42"/>
<text text-anchor="middle" x="138.18" y="-260.3" font-family="Helvetica,sans-Serif" font-size="14.00">Compromises</text>
</g>
<!-- intrusion_set&#45;&gt;infrastructure -->
<g id="edge17" class="edge">
<title>intrusion_set&#45;&gt;infrastructure</title>
<path fill="none" stroke="black" stroke-width="0.3" d="M59.15,-341.08C90.36,-350.87 141.19,-361.67 181.35,-345.5 194.68,-340.13 206.81,-330.54 216.85,-320.49"/>
<polygon fill="black" stroke="black" stroke-width="0.3" points="219.47,-322.81 223.78,-313.13 214.38,-318.01 219.47,-322.81"/>
<text text-anchor="middle" x="138.18" y="-357.3" font-family="Helvetica,sans-Serif" font-size="14.00">Hosts</text>
</g>
<!-- intrusion_set&#45;&gt;infrastructure -->
<g id="edge20" class="edge">
<title>intrusion_set&#45;&gt;infrastructure</title>
<path fill="none" stroke="black" stroke-width="0.3" d="M59.24,-328.25C89.88,-325.4 139.63,-319.48 181.35,-308.5 190.04,-306.21 199.17,-303.13 207.72,-299.9"/>
<polygon fill="black" stroke="black" stroke-width="0.3" points="209.05,-303.14 217.09,-296.24 206.5,-296.62 209.05,-303.14"/>
<text text-anchor="middle" x="138.18" y="-327.3" font-family="Helvetica,sans-Serif" font-size="14.00">Owns</text>
</g>
<!-- intrusion_set&#45;&gt;infrastructure -->
<g id="edge25" class="edge">
<title>intrusion_set&#45;&gt;infrastructure</title>
<path fill="none" stroke="black" stroke-width="0.3" d="M59.14,-308.39C69.82,-301.36 82.41,-294.4 95,-290.5 131.9,-279.06 176.29,-278.47 207.33,-280.03"/>
<polygon fill="black" stroke="black" stroke-width="0.3" points="207.13,-283.52 217.32,-280.63 207.55,-276.53 207.13,-283.52"/>
<text text-anchor="middle" x="138.18" y="-293.3" font-family="Helvetica,sans-Serif" font-size="14.00">Uses</text>
</g>
<!-- malware&#45;&gt;infrastructure -->
<g id="edge15" class="edge">
<title>malware&#45;&gt;infrastructure</title>
<path fill="none" stroke="black" stroke-width="0.3" d="M497.8,-394.41C446.81,-393.79 343.21,-390.29 312.35,-372.5 292.32,-360.95 276.8,-340.4 266.01,-321.95"/>
<polygon fill="black" stroke="black" stroke-width="0.3" points="269.01,-320.15 261.09,-313.11 262.9,-323.55 269.01,-320.15"/>
<text text-anchor="middle" x="351.25" y="-392.3" font-family="Helvetica,sans-Serif" font-size="14.00">Beacons&#45;to</text>
</g>
<!-- malware&#45;&gt;infrastructure -->
<g id="edge16" class="edge">
<title>malware&#45;&gt;infrastructure</title>
<path fill="none" stroke="black" stroke-width="0.3" d="M498,-385.69C470.45,-377.32 427.6,-364.55 390.15,-354.5 355.77,-345.27 344.26,-351.27 312.35,-335.5 302.68,-330.72 293.13,-324.27 284.48,-317.55"/>
<polygon fill="black" stroke="black" stroke-width="0.3" points="286.44,-314.64 276.47,-311.07 282.04,-320.08 286.44,-314.64"/>
<text text-anchor="middle" x="351.25" y="-357.3" font-family="Helvetica,sans-Serif" font-size="14.00">Exfiltrates&#45;to</text>
</g>
<!-- malware&#45;&gt;infrastructure -->
<g id="edge22" class="edge">
<title>malware&#45;&gt;infrastructure</title>
<path fill="none" stroke="black" stroke-width="0.3" d="M498.1,-384.88C477.26,-377.18 448.81,-365.26 426.15,-350.5 407.96,-338.65 409.32,-327.68 390.15,-317.5 387.81,-316.25 327.81,-302.13 286.48,-292.48"/>
<polygon fill="black" stroke="black" stroke-width="0.3" points="287.22,-289.06 276.68,-290.2 285.63,-295.88 287.22,-289.06"/>
<text text-anchor="middle" x="351.25" y="-320.3" font-family="Helvetica,sans-Serif" font-size="14.00">Targets</text>
</g>
<!-- malware&#45;&gt;infrastructure -->
<g id="edge26" class="edge">
<title>malware&#45;&gt;infrastructure</title>
<path fill="none" stroke="black" stroke-width="0.3" d="M497.74,-387.49C475.9,-380.96 446.33,-369.35 426.15,-350.5 400.87,-326.89 419.73,-299.43 390.15,-281.5 359.11,-262.69 316.84,-266.12 286.45,-272.47"/>
<polygon fill="black" stroke="black" stroke-width="0.3" points="285.6,-269.07 276.63,-274.7 287.16,-275.9 285.6,-269.07"/>
<text text-anchor="middle" x="351.25" y="-284.3" font-family="Helvetica,sans-Serif" font-size="14.00">Uses</text>
</g>
<!-- threat_actor -->
<g id="node11" class="node">
<title>threat_actor</title>
<polygon fill="none" stroke="black" stroke-width="0" points="59,-175 0,-175 0,-116 59,-116 59,-175"/>
<image xlink:href="/cti-documentation/img/icons/threat_actor.png" width="59px" height="59px" preserveAspectRatio="xMinYMin meet" x="0" y="-175"/>
</g>
<!-- threat_actor&#45;&gt;attack_pattern -->
<g id="edge31" class="edge">
<title>threat_actor&#45;&gt;attack_pattern</title>
<path fill="none" stroke="black" stroke-width="0.3" d="M59.31,-171.84C70,-180.75 82.57,-190.27 95,-197.5 130.65,-218.24 155.43,-199.42 181.35,-231.5 243.08,-307.88 179.35,-358.95 217.35,-449.5 217.39,-449.6 217.43,-449.69 217.47,-449.79"/>
<polygon fill="black" stroke="black" stroke-width="0.3" points="214.34,-451.34 221.99,-458.66 220.57,-448.17 214.34,-451.34"/>
<text text-anchor="middle" x="138.18" y="-234.3" font-family="Helvetica,sans-Serif" font-size="14.00">Uses</text>
</g>
<!-- threat_actor&#45;&gt;infrastructure -->
<g id="edge14" class="edge">
<title>threat_actor&#45;&gt;infrastructure</title>
<path fill="none" stroke="black" stroke-width="0.3" d="M59.08,-152.13C101.4,-162.03 176.33,-179.9 181.35,-183.5 202.7,-198.82 218.76,-223.6 229.51,-244.65"/>
<polygon fill="black" stroke="black" stroke-width="0.3" points="226.4,-246.27 233.93,-253.72 232.69,-243.19 226.4,-246.27"/>
<text text-anchor="middle" x="138.18" y="-186.3" font-family="Helvetica,sans-Serif" font-size="14.00">Compromises</text>
</g>
<!-- threat_actor&#45;&gt;infrastructure -->
<g id="edge18" class="edge">
<title>threat_actor&#45;&gt;infrastructure</title>
<path fill="none" stroke="black" stroke-width="0.3" d="M59.15,-136.69C91.52,-128.56 144.49,-120.97 181.35,-144.5 215.39,-166.23 231.74,-211.06 239.41,-243.96"/>
<polygon fill="black" stroke="black" stroke-width="0.3" points="235.99,-244.71 241.52,-253.75 242.83,-243.23 235.99,-244.71"/>
<text text-anchor="middle" x="138.18" y="-147.3" font-family="Helvetica,sans-Serif" font-size="14.00">Hosts</text>
</g>
<!-- threat_actor&#45;&gt;infrastructure -->
<g id="edge21" class="edge">
<title>threat_actor&#45;&gt;infrastructure</title>
<path fill="none" stroke="black" stroke-width="0.3" d="M59.16,-126.77C91.53,-108.21 144.5,-85.96 181.35,-111.5 224.15,-141.16 238.59,-202.96 243.44,-243.83"/>
<polygon fill="black" stroke="black" stroke-width="0.3" points="239.98,-244.41 244.5,-254 246.94,-243.69 239.98,-244.41"/>
<text text-anchor="middle" x="138.18" y="-114.3" font-family="Helvetica,sans-Serif" font-size="14.00">Owns</text>
</g>
<!-- threat_actor&#45;&gt;infrastructure -->
<g id="edge27" class="edge">
<title>threat_actor&#45;&gt;infrastructure</title>
<path fill="none" stroke="black" stroke-width="0.3" d="M52.18,-115.73C63.36,-102.93 78.18,-89.35 95,-82.5 130.54,-68.02 150.34,-59.89 181.35,-82.5 231.87,-119.34 243.7,-196.34 245.97,-243.62"/>
<polygon fill="black" stroke="black" stroke-width="0.3" points="242.48,-243.93 246.34,-253.8 249.48,-243.68 242.48,-243.93"/>
<text text-anchor="middle" x="138.18" y="-85.3" font-family="Helvetica,sans-Serif" font-size="14.00">Uses</text>
</g>
<!-- tool&#45;&gt;infrastructure -->
<g id="edge23" class="edge">
<title>tool&#45;&gt;infrastructure</title>
<path fill="none" stroke="black" stroke-width="0.3" d="M497.75,-107.44C446.16,-109.64 340.95,-116.75 312.35,-138.5 278.96,-163.89 262.48,-210.37 254.59,-243.87"/>
<polygon fill="black" stroke="black" stroke-width="0.3" points="251.14,-243.29 252.42,-253.81 257.98,-244.79 251.14,-243.29"/>
<text text-anchor="middle" x="351.25" y="-141.3" font-family="Helvetica,sans-Serif" font-size="14.00">Targets</text>
</g>
<!-- tool&#45;&gt;infrastructure -->
<g id="edge28" class="edge">
<title>tool&#45;&gt;infrastructure</title>
<path fill="none" stroke="black" stroke-width="0.3" d="M497.87,-95.5C453.55,-80.6 367.92,-60.1 312.35,-99.5 266.34,-132.13 252.9,-200.24 249.12,-243.82"/>
<polygon fill="black" stroke="black" stroke-width="0.3" points="245.63,-243.57 248.39,-253.8 252.61,-244.08 245.63,-243.57"/>
<text text-anchor="middle" x="351.25" y="-102.3" font-family="Helvetica,sans-Serif" font-size="14.00">Uses</text>
</g>
</g>
</svg>
