<?xml version="1.0" encoding="UTF-8" standalone="no"?>
<!DOCTYPE svg PUBLIC "-//W3C//DTD SVG 1.1//EN"
 "http://www.w3.org/Graphics/SVG/1.1/DTD/svg11.dtd">
<!-- Generated by graphviz version 2.42.3 (20191010.1750)
 -->
<!-- Title: STIX Pages: 1 -->
<svg width="493pt" height="490pt"
 viewBox="0.00 0.00 493.15 489.50" xmlns="http://www.w3.org/2000/svg" xmlns:xlink="http://www.w3.org/1999/xlink">
<g id="graph0" class="graph" transform="scale(1 1) rotate(0) translate(4 485.5)">
<title>STIX</title>
<polygon fill="white" stroke="transparent" points="-4,4 -4,-485.5 489.15,-485.5 489.15,4 -4,4"/>
<!-- campaign -->
<g id="node1" class="node">
<title>campaign</title>
<polygon fill="none" stroke="black" stroke-width="0" points="59,-471 0,-471 0,-412 59,-412 59,-471"/>
<image xlink:href="/cti-documentation/img/icons/campaign.png" width="59px" height="59px" preserveAspectRatio="xMinYMin meet" x="0" y="-471"/>
</g>
<!-- infrastructure -->
<g id="node3" class="node">
<title>infrastructure</title>
<polygon fill="none" stroke="black" stroke-width="0" points="276.35,-284 217.35,-284 217.35,-225 276.35,-225 276.35,-284"/>
<image xlink:href="/cti-documentation/img/icons/infrastructure.png" width="59px" height="59px" preserveAspectRatio="xMinYMin meet" x="217.352" y="-284"/>
</g>
<!-- campaign&#45;&gt;infrastructure -->
<g id="edge12" class="edge">
<title>campaign&#45;&gt;infrastructure</title>
<path fill="none" stroke="black" stroke-width="0.3" d="M59.1,-445.04C92.15,-447.5 146.46,-446.35 181.35,-418.5 219.27,-388.23 234.96,-332.53 241.41,-294.52"/>
<polygon fill="black" stroke="black" stroke-width="0.3" points="244.92,-294.72 243,-284.3 238.01,-293.65 244.92,-294.72"/>
<text text-anchor="middle" x="138.18" y="-447.3" font-family="Helvetica,sans-Serif" font-size="14.00">Compromises</text>
</g>
<!-- campaign&#45;&gt;infrastructure -->
<g id="edge24" class="edge">
<title>campaign&#45;&gt;infrastructure</title>
<path fill="none" stroke="black" stroke-width="0.3" d="M59.3,-420.53C70.1,-413.4 82.73,-405.88 95,-400.5 131.37,-384.55 150.32,-402.29 181.35,-377.5 207.94,-356.25 224.82,-321.04 234.61,-293.72"/>
<polygon fill="black" stroke="black" stroke-width="0.3" points="237.99,-294.65 237.9,-284.05 231.37,-292.39 237.99,-294.65"/>
<text text-anchor="middle" x="138.18" y="-403.3" font-family="Helvetica,sans-Serif" font-size="14.00">Uses</text>
</g>
<!-- indicator -->
<g id="node2" class="node">
<title>indicator</title>
<polygon fill="none" stroke="black" stroke-width="0" points="59,-394 0,-394 0,-335 59,-335 59,-394"/>
<image xlink:href="/cti-documentation/img/icons/indicator.png" width="59px" height="59px" preserveAspectRatio="xMinYMin meet" x="0" y="-394"/>
</g>
<!-- indicator&#45;&gt;infrastructure -->
<g id="edge19" class="edge">
<title>indicator&#45;&gt;infrastructure</title>
<path fill="none" stroke="black" stroke-width="0.3" d="M59.23,-363.95C91.19,-362.14 143.34,-355.52 181.35,-332.5 197.56,-322.69 211.56,-307.3 222.33,-292.78"/>
<polygon fill="black" stroke="black" stroke-width="0.3" points="225.36,-294.56 228.3,-284.37 219.65,-290.5 225.36,-294.56"/>
<text text-anchor="middle" x="138.18" y="-362.3" font-family="Helvetica,sans-Serif" font-size="14.00">Indicates</text>
</g>
<!-- infrastructure&#45;&gt;infrastructure -->
<g id="edge1" class="edge">
<title>infrastructure&#45;&gt;infrastructure</title>
<path fill="none" stroke="black" stroke-width="0.3" d="M241.98,-284.19C241.98,-294.08 243.6,-302 246.85,-302 248.88,-302 250.28,-298.91 251.04,-294.17"/>
<polygon fill="black" stroke="black" stroke-width="0.3" points="254.53,-294.4 251.73,-284.19 247.55,-293.92 254.53,-294.4"/>
<text text-anchor="middle" x="246.85" y="-304.8" font-family="Helvetica,sans-Serif" font-size="14.00">Communicates&#45;with</text>
</g>
<!-- infrastructure&#45;&gt;infrastructure -->
<g id="edge2" class="edge">
<title>infrastructure&#45;&gt;infrastructure</title>
<path fill="none" stroke="black" stroke-width="0.3" d="M237.79,-284.14C235.6,-302.51 238.62,-320 246.85,-320 253.54,-320 256.78,-308.46 256.59,-294.27"/>
<polygon fill="black" stroke="black" stroke-width="0.3" points="260.08,-293.88 255.91,-284.14 253.09,-294.35 260.08,-293.88"/>
<text text-anchor="middle" x="246.85" y="-322.8" font-family="Helvetica,sans-Serif" font-size="14.00">Consists&#45;of</text>
</g>
<!-- infrastructure&#45;&gt;infrastructure -->
<g id="edge4" class="edge">
<title>infrastructure&#45;&gt;infrastructure</title>
<path fill="none" stroke="black" stroke-width="0.3" d="M234.73,-284.03C229.03,-310.17 233.06,-338 246.85,-338 258.86,-338 263.47,-316.88 260.69,-294.16"/>
<polygon fill="black" stroke="black" stroke-width="0.3" points="264.1,-293.3 258.97,-284.03 257.19,-294.48 264.1,-293.3"/>
<text text-anchor="middle" x="246.85" y="-340.8" font-family="Helvetica,sans-Serif" font-size="14.00">Controls</text>
</g>
<!-- infrastructure&#45;&gt;infrastructure -->
<g id="edge11" class="edge">
<title>infrastructure&#45;&gt;infrastructure</title>
<path fill="none" stroke="black" stroke-width="0.3" d="M232.38,-284.11C222.43,-317.54 227.25,-356 246.85,-356 264.54,-356 270.19,-324.68 263.82,-294.01"/>
<polygon fill="black" stroke="black" stroke-width="0.3" points="267.16,-292.95 261.32,-284.11 260.37,-294.66 267.16,-292.95"/>
<text text-anchor="middle" x="246.85" y="-358.8" font-family="Helvetica,sans-Serif" font-size="14.00">Uses</text>
</g>
<!-- malware -->
<g id="node5" class="node">
<title>malware</title>
<polygon fill="none" stroke="black" stroke-width="0" points="485.15,-395 426.15,-395 426.15,-336 485.15,-336 485.15,-395"/>
<image xlink:href="/cti-documentation/img/icons/malware.png" width="59px" height="59px" preserveAspectRatio="xMinYMin meet" x="426.151" y="-395"/>
</g>
<!-- infrastructure&#45;&gt;malware -->
<g id="edge5" class="edge">
<title>infrastructure&#45;&gt;malware</title>
<path fill="none" stroke="black" stroke-width="0.3" d="M247.42,-284.05C248.56,-329.42 258.23,-415.09 312.35,-454.5 340.3,-474.85 359.35,-470.22 390.15,-454.5 410.89,-443.92 426.52,-423.2 437.19,-404.41"/>
<polygon fill="black" stroke="black" stroke-width="0.3" points="440.38,-405.87 442.03,-395.4 434.21,-402.55 440.38,-405.87"/>
<text text-anchor="middle" x="351.25" y="-470.3" font-family="Helvetica,sans-Serif" font-size="14.00">Controls</text>
</g>
<!-- infrastructure&#45;&gt;malware -->
<g id="edge6" class="edge">
<title>infrastructure&#45;&gt;malware</title>
<path fill="none" stroke="black" stroke-width="0.3" d="M249.91,-284.14C254.34,-322.38 268.31,-387.56 312.35,-417.5 340.95,-436.94 357.54,-429.01 390.15,-417.5 400.22,-413.95 409.88,-408.08 418.52,-401.54"/>
<polygon fill="black" stroke="black" stroke-width="0.3" points="420.89,-404.12 426.46,-395.11 416.48,-398.68 420.89,-404.12"/>
<text text-anchor="middle" x="351.25" y="-431.3" font-family="Helvetica,sans-Serif" font-size="14.00">Delivers</text>
</g>
<!-- infrastructure&#45;&gt;malware -->
<g id="edge9" class="edge">
<title>infrastructure&#45;&gt;malware</title>
<path fill="none" stroke="black" stroke-width="0.3" d="M253.67,-284.03C261.37,-314.24 278.18,-359.6 312.35,-380.5 343.48,-399.54 385.74,-391.79 416.11,-381.73"/>
<polygon fill="black" stroke="black" stroke-width="0.3" points="417.65,-384.89 425.91,-378.26 415.32,-378.29 417.65,-384.89"/>
<text text-anchor="middle" x="351.25" y="-394.3" font-family="Helvetica,sans-Serif" font-size="14.00">Hosts</text>
</g>
<!-- location -->
<g id="node6" class="node">
<title>location</title>
<polygon fill="none" stroke="black" stroke-width="0" points="485.15,-290 426.15,-290 426.15,-231 485.15,-231 485.15,-290"/>
<image xlink:href="/cti-documentation/img/icons/location.png" width="59px" height="59px" preserveAspectRatio="xMinYMin meet" x="426.151" y="-290"/>
</g>
<!-- infrastructure&#45;&gt;location -->
<g id="edge10" class="edge">
<title>infrastructure&#45;&gt;location</title>
<path fill="none" stroke="black" stroke-width="0.3" d="M276.37,-234.48C287.13,-228.05 299.82,-221.76 312.35,-218.5 345.82,-209.79 357,-208.66 390.15,-218.5 399.56,-221.29 408.89,-225.94 417.4,-231.16"/>
<polygon fill="black" stroke="black" stroke-width="0.3" points="415.65,-234.2 425.94,-236.73 419.48,-228.34 415.65,-234.2"/>
<text text-anchor="middle" x="351.25" y="-221.3" font-family="Helvetica,sans-Serif" font-size="14.00">Located&#45;at</text>
</g>
<!-- observed_data -->
<g id="node7" class="node">
<title>observed_data</title>
<polygon fill="none" stroke="black" stroke-width="0" points="485.15,-213 426.15,-213 426.15,-154 485.15,-154 485.15,-213"/>
<image xlink:href="/cti-documentation/img/icons/observed_data.png" width="59px" height="59px" preserveAspectRatio="xMinYMin meet" x="426.151" y="-213"/>
</g>
<!-- infrastructure&#45;&gt;observed_data -->
<g id="edge3" class="edge">
<title>infrastructure&#45;&gt;observed_data</title>
<path fill="none" stroke="black" stroke-width="0.3" d="M271.11,-224.9C282.23,-212.99 296.55,-200.44 312.35,-193.5 345.07,-179.13 386.11,-177.78 415.7,-179.34"/>
<polygon fill="black" stroke="black" stroke-width="0.3" points="415.83,-182.86 426.04,-180.03 416.3,-175.87 415.83,-182.86"/>
<text text-anchor="middle" x="351.25" y="-196.3" font-family="Helvetica,sans-Serif" font-size="14.00">Consists&#45;of</text>
</g>
<!-- tool -->
<g id="node9" class="node">
<title>tool</title>
<polygon fill="none" stroke="black" stroke-width="0" points="485.15,-59 426.15,-59 426.15,0 485.15,0 485.15,-59"/>
<image xlink:href="/cti-documentation/img/icons/tool.png" width="59px" height="59px" preserveAspectRatio="xMinYMin meet" x="426.151" y="-59"/>
</g>
<!-- infrastructure&#45;&gt;tool -->
<g id="edge8" class="edge">
<title>infrastructure&#45;&gt;tool</title>
<path fill="none" stroke="black" stroke-width="0.3" d="M252.66,-224.75C259.75,-190.6 276.28,-135.22 312.35,-103.5 339.33,-79.77 358.23,-98 390.15,-81.5 399.74,-76.55 409.24,-70.03 417.9,-63.29"/>
<polygon fill="black" stroke="black" stroke-width="0.3" points="420.33,-65.82 425.9,-56.81 415.93,-60.38 420.33,-65.82"/>
<text text-anchor="middle" x="351.25" y="-106.3" font-family="Helvetica,sans-Serif" font-size="14.00">Hosts</text>
</g>
<!-- vulnerability -->
<g id="node10" class="node">
<title>vulnerability</title>
<polygon fill="none" stroke="black" stroke-width="0" points="485.15,-136 426.15,-136 426.15,-77 485.15,-77 485.15,-136"/>
<image xlink:href="/cti-documentation/img/icons/vulnerability.png" width="59px" height="59px" preserveAspectRatio="xMinYMin meet" x="426.151" y="-136"/>
</g>
<!-- infrastructure&#45;&gt;vulnerability -->
<g id="edge7" class="edge">
<title>infrastructure&#45;&gt;vulnerability</title>
<path fill="none" stroke="black" stroke-width="0.3" d="M262.16,-224.64C273.32,-204.13 290.57,-177.62 312.35,-160.5 342.96,-136.44 385.48,-122.19 416.05,-114.42"/>
<polygon fill="black" stroke="black" stroke-width="0.3" points="417.03,-117.79 425.93,-112.04 415.39,-110.99 417.03,-117.79"/>
<text text-anchor="middle" x="351.25" y="-163.3" font-family="Helvetica,sans-Serif" font-size="14.00">Has</text>
</g>
<!-- intrusion_set -->
<g id="node4" class="node">
<title>intrusion_set</title>
<polygon fill="none" stroke="black" stroke-width="0" points="59,-302 0,-302 0,-243 59,-243 59,-302"/>
<image xlink:href="/cti-documentation/img/icons/intrusion_set.png" width="59px" height="59px" preserveAspectRatio="xMinYMin meet" x="0" y="-302"/>
</g>
<!-- intrusion_set&#45;&gt;infrastructure -->
<g id="edge13" class="edge">
<title>intrusion_set&#45;&gt;infrastructure</title>
<path fill="none" stroke="black" stroke-width="0.3" d="M59.15,-291.42C69.93,-297.49 82.59,-303.43 95,-306.5 132.26,-315.72 145.16,-319.27 181.35,-306.5 191.42,-302.95 201.08,-297.08 209.72,-290.54"/>
<polygon fill="black" stroke="black" stroke-width="0.3" points="212.09,-293.12 217.66,-284.11 207.68,-287.68 212.09,-293.12"/>
<text text-anchor="middle" x="138.18" y="-317.3" font-family="Helvetica,sans-Serif" font-size="14.00">Compromises</text>
</g>
<!-- intrusion_set&#45;&gt;infrastructure -->
<g id="edge17" class="edge">
<title>intrusion_set&#45;&gt;infrastructure</title>
<path fill="none" stroke="black" stroke-width="0.3" d="M59.27,-273.7C89.72,-274.56 139.11,-274.77 181.35,-269.5 189.79,-268.45 198.73,-266.75 207.18,-264.87"/>
<polygon fill="black" stroke="black" stroke-width="0.3" points="208.25,-268.22 217.19,-262.52 206.65,-261.4 208.25,-268.22"/>
<text text-anchor="middle" x="138.18" y="-276.3" font-family="Helvetica,sans-Serif" font-size="14.00">Hosts</text>
</g>
<!-- intrusion_set&#45;&gt;infrastructure -->
<g id="edge20" class="edge">
<title>intrusion_set&#45;&gt;infrastructure</title>
<path fill="none" stroke="black" stroke-width="0.3" d="M59.24,-261C70.24,-257.17 83.02,-253.4 95,-251.5 132.72,-245.51 176.41,-247.32 207.03,-249.98"/>
<polygon fill="black" stroke="black" stroke-width="0.3" points="207,-253.5 217.29,-250.95 207.66,-246.53 207,-253.5"/>
<text text-anchor="middle" x="138.18" y="-254.3" font-family="Helvetica,sans-Serif" font-size="14.00">Owns</text>
</g>
<!-- intrusion_set&#45;&gt;infrastructure -->
<g id="edge25" class="edge">
<title>intrusion_set&#45;&gt;infrastructure</title>
<path fill="none" stroke="black" stroke-width="0.3" d="M59.05,-247.62C69.63,-239.93 82.18,-232.46 95,-228.5 131.67,-217.18 143.68,-221.19 181.35,-228.5 190.14,-230.2 199.24,-233.1 207.74,-236.36"/>
<polygon fill="black" stroke="black" stroke-width="0.3" points="206.45,-239.61 217.04,-240.14 209.09,-233.13 206.45,-239.61"/>
<text text-anchor="middle" x="138.18" y="-231.3" font-family="Helvetica,sans-Serif" font-size="14.00">Uses</text>
</g>
<!-- malware&#45;&gt;infrastructure -->
<g id="edge15" class="edge">
<title>malware&#45;&gt;infrastructure</title>
<path fill="none" stroke="black" stroke-width="0.3" d="M425.92,-363.67C389.98,-360.93 330.91,-354.84 312.35,-343.5 292.76,-331.53 277.34,-311.15 266.49,-292.91"/>
<polygon fill="black" stroke="black" stroke-width="0.3" points="269.52,-291.15 261.54,-284.18 263.43,-294.6 269.52,-291.15"/>
<text text-anchor="middle" x="351.25" y="-362.3" font-family="Helvetica,sans-Serif" font-size="14.00">Beacons&#45;to</text>
</g>
<!-- malware&#45;&gt;infrastructure -->
<g id="edge16" class="edge">
<title>malware&#45;&gt;infrastructure</title>
<path fill="none" stroke="black" stroke-width="0.3" d="M425.84,-344.93C415.05,-337.96 402.42,-330.65 390.15,-325.5 357.33,-311.73 344.26,-322.27 312.35,-306.5 302.68,-301.72 293.13,-295.27 284.48,-288.55"/>
<polygon fill="black" stroke="black" stroke-width="0.3" points="286.44,-285.64 276.47,-282.07 282.04,-291.08 286.44,-285.64"/>
<text text-anchor="middle" x="351.25" y="-328.3" font-family="Helvetica,sans-Serif" font-size="14.00">Exfiltrates&#45;to</text>
</g>
<!-- malware&#45;&gt;infrastructure -->
<g id="edge22" class="edge">
<title>malware&#45;&gt;infrastructure</title>
<path fill="none" stroke="black" stroke-width="0.3" d="M436.64,-335.81C425.26,-319.49 409.13,-300.24 390.15,-288.5 389.02,-287.8 328.32,-273.43 286.58,-263.6"/>
<polygon fill="black" stroke="black" stroke-width="0.3" points="287.22,-260.15 276.68,-261.27 285.61,-266.97 287.22,-260.15"/>
<text text-anchor="middle" x="351.25" y="-291.3" font-family="Helvetica,sans-Serif" font-size="14.00">Targets</text>
</g>
<!-- malware&#45;&gt;infrastructure -->
<g id="edge26" class="edge">
<title>malware&#45;&gt;infrastructure</title>
<path fill="none" stroke="black" stroke-width="0.3" d="M442.01,-335.83C428.33,-305.31 406.31,-260.92 390.15,-251.5 358.8,-233.21 316.57,-236.9 286.28,-243.37"/>
<polygon fill="black" stroke="black" stroke-width="0.3" points="285.44,-239.97 276.49,-245.64 287.02,-246.78 285.44,-239.97"/>
<text text-anchor="middle" x="351.25" y="-254.3" font-family="Helvetica,sans-Serif" font-size="14.00">Uses</text>
</g>
<!-- threat_actor -->
<g id="node8" class="node">
<title>threat_actor</title>
<polygon fill="none" stroke="black" stroke-width="0" points="59,-155 0,-155 0,-96 59,-96 59,-155"/>
<image xlink:href="/cti-documentation/img/icons/threat_actor.png" width="59px" height="59px" preserveAspectRatio="xMinYMin meet" x="0" y="-155"/>
</g>
<!-- threat_actor&#45;&gt;infrastructure -->
<g id="edge14" class="edge">
<title>threat_actor&#45;&gt;infrastructure</title>
<path fill="none" stroke="black" stroke-width="0.3" d="M59.07,-140.13C70.27,-145.86 83.24,-152.49 95,-158.5 133.36,-178.09 145.2,-179.08 181.35,-202.5 190.78,-208.61 200.46,-215.83 209.35,-222.91"/>
<polygon fill="black" stroke="black" stroke-width="0.3" points="207.31,-225.76 217.28,-229.35 211.72,-220.33 207.31,-225.76"/>
<text text-anchor="middle" x="138.18" y="-205.3" font-family="Helvetica,sans-Serif" font-size="14.00">Compromises</text>
</g>
<!-- threat_actor&#45;&gt;infrastructure -->
<g id="edge18" class="edge">
<title>threat_actor&#45;&gt;infrastructure</title>
<path fill="none" stroke="black" stroke-width="0.3" d="M59.16,-125.27C97.19,-125.48 161.84,-127.78 181.35,-140.5 207.71,-157.67 224.41,-189.57 234.2,-215.27"/>
<polygon fill="black" stroke="black" stroke-width="0.3" points="230.94,-216.55 237.62,-224.77 237.53,-214.18 230.94,-216.55"/>
<text text-anchor="middle" x="138.18" y="-143.3" font-family="Helvetica,sans-Serif" font-size="14.00">Hosts</text>
</g>
<!-- threat_actor&#45;&gt;infrastructure -->
<g id="edge21" class="edge">
<title>threat_actor&#45;&gt;infrastructure</title>
<path fill="none" stroke="black" stroke-width="0.3" d="M59.15,-111.75C91.52,-98.41 144.48,-83.41 181.35,-107.5 217.56,-131.15 233.57,-180.15 240.57,-215.07"/>
<polygon fill="black" stroke="black" stroke-width="0.3" points="237.13,-215.76 242.39,-224.96 244.02,-214.49 237.13,-215.76"/>
<text text-anchor="middle" x="138.18" y="-110.3" font-family="Helvetica,sans-Serif" font-size="14.00">Owns</text>
</g>
<!-- threat_actor&#45;&gt;infrastructure -->
<g id="edge27" class="edge">
<title>threat_actor&#45;&gt;infrastructure</title>
<path fill="none" stroke="black" stroke-width="0.3" d="M59.28,-97.31C69.68,-88.94 82.07,-80.85 95,-76.5 131.37,-64.25 149.93,-54.46 181.35,-76.5 225.64,-107.55 239.64,-172.23 243.99,-214.48"/>
<polygon fill="black" stroke="black" stroke-width="0.3" points="240.53,-215.05 244.9,-224.7 247.5,-214.43 240.53,-215.05"/>
<text text-anchor="middle" x="138.18" y="-79.3" font-family="Helvetica,sans-Serif" font-size="14.00">Uses</text>
</g>
<!-- tool&#45;&gt;infrastructure -->
<g id="edge23" class="edge">
<title>tool&#45;&gt;infrastructure</title>
<path fill="none" stroke="black" stroke-width="0.3" d="M426.12,-36.14C384.89,-45.75 313.42,-62.53 312.35,-63.5 269.49,-102.63 255.09,-171.21 250.27,-214.67"/>
<polygon fill="black" stroke="black" stroke-width="0.3" points="246.76,-214.58 249.26,-224.87 253.72,-215.26 246.76,-214.58"/>
<text text-anchor="middle" x="351.25" y="-66.3" font-family="Helvetica,sans-Serif" font-size="14.00">Targets</text>
</g>
<!-- tool&#45;&gt;infrastructure -->
<g id="edge28" class="edge">
<title>tool&#45;&gt;infrastructure</title>
<path fill="none" stroke="black" stroke-width="0.3" d="M426.11,-19.69C394.89,-10.91 344.98,-2.85 312.35,-27.5 282.52,-50.04 262.43,-155.85 253.37,-214.72"/>
<polygon fill="black" stroke="black" stroke-width="0.3" points="249.88,-214.38 251.85,-224.79 256.8,-215.42 249.88,-214.38"/>
<text text-anchor="middle" x="351.25" y="-30.3" font-family="Helvetica,sans-Serif" font-size="14.00">Uses</text>
</g>
</g>
</svg>
