<?xml version="1.0" encoding="UTF-8" standalone="no"?>
<!DOCTYPE svg PUBLIC "-//W3C//DTD SVG 1.1//EN"
 "http://www.w3.org/Graphics/SVG/1.1/DTD/svg11.dtd">
<!-- Generated by graphviz version 2.36.0 (20140111.2315)
 -->
<!-- Title: STIX Pages: 1 -->
<svg width="468pt" height="451pt"
 viewBox="0.00 0.00 468.00 451.00" xmlns="http://www.w3.org/2000/svg" xmlns:xlink="http://www.w3.org/1999/xlink">
<g id="graph0" class="graph" transform="scale(1 1) rotate(0) translate(4 447)">
<title>STIX</title>
<polygon fill="white" stroke="none" points="-4,4 -4,-447 464,-447 464,4 -4,4"/>
<!-- attack_pattern -->
<g id="node1" class="node"><title>attack_pattern</title>
<polygon fill="none" stroke="black" stroke-width="0" points="459.5,-443.5 400.5,-443.5 400.5,-384.5 459.5,-384.5 459.5,-443.5"/>
<image xlink:href="/cti-documentation/img/icons/attack_pattern.png" width="44.25px" height="44.25px" preserveAspectRatio="xMinYMin meet" x="407.875" y="-436.125"/>
</g>
<!-- identity -->
<g id="node2" class="node"><title>identity</title>
<polygon fill="none" stroke="black" stroke-width="0" points="459.5,-366.5 400.5,-366.5 400.5,-307.5 459.5,-307.5 459.5,-366.5"/>
<image xlink:href="/cti-documentation/img/icons/identity.png" width="44.25px" height="44.25px" preserveAspectRatio="xMinYMin meet" x="407.875" y="-359.125"/>
</g>
<!-- indicator -->
<g id="node3" class="node"><title>indicator</title>
<polygon fill="none" stroke="black" stroke-width="0" points="59.5,-250.5 0.5,-250.5 0.5,-191.5 59.5,-191.5 59.5,-250.5"/>
<image xlink:href="/cti-documentation/img/icons/indicator.png" width="44.25px" height="44.25px" preserveAspectRatio="xMinYMin meet" x="7.875" y="-243.125"/>
</g>
<!-- intrusion_set -->
<g id="node4" class="node"><title>intrusion_set</title>
<polygon fill="none" stroke="black" stroke-width="0" points="249.5,-250.5 190.5,-250.5 190.5,-191.5 249.5,-191.5 249.5,-250.5"/>
<image xlink:href="/cti-documentation/img/icons/intrusion_set.png" width="44.25px" height="44.25px" preserveAspectRatio="xMinYMin meet" x="197.875" y="-243.125"/>
</g>
<!-- indicator&#45;&gt;intrusion_set -->
<g id="edge1" class="edge"><title>indicator&#45;&gt;intrusion_set</title>
<path fill="none" stroke="black" stroke-width="0.3" d="M59.5532,-221C91.8075,-221 144.471,-221 180.379,-221"/>
<polygon fill="black" stroke="black" stroke-width="0.3" points="180.487,-224.5 190.487,-221 180.487,-217.5 180.487,-224.5"/>
<text text-anchor="middle" x="125" y="-224.8" font-family="Helvetica,sans-Serif" font-size="14.00">Indicates</text>
</g>
<!-- intrusion_set&#45;&gt;attack_pattern -->
<g id="edge5" class="edge"><title>intrusion_set&#45;&gt;attack_pattern</title>
<path fill="none" stroke="black" stroke-width="0.3" d="M234.739,-250.4C246.198,-272.722 264.149,-303.19 286,-325 316.854,-355.796 360.267,-380.906 391.148,-396.509"/>
<polygon fill="black" stroke="black" stroke-width="0.3" points="389.788,-399.741 400.302,-401.042 392.894,-393.468 389.788,-399.741"/>
<text text-anchor="middle" x="325" y="-384.8" font-family="Helvetica,sans-Serif" font-size="14.00">Uses</text>
</g>
<!-- intrusion_set&#45;&gt;identity -->
<g id="edge3" class="edge"><title>intrusion_set&#45;&gt;identity</title>
<path fill="none" stroke="black" stroke-width="0.3" d="M249.533,-242.081C260.675,-249.957 273.707,-258.745 286,-266 320.528,-286.379 361.692,-306.396 390.969,-319.954"/>
<polygon fill="black" stroke="black" stroke-width="0.3" points="389.867,-323.3 400.415,-324.295 392.79,-316.939 389.867,-323.3"/>
<text text-anchor="middle" x="325" y="-309.8" font-family="Helvetica,sans-Serif" font-size="14.00">Targets</text>
</g>
<!-- malware -->
<g id="node5" class="node"><title>malware</title>
<polygon fill="none" stroke="black" stroke-width="0" points="459.5,-289.5 400.5,-289.5 400.5,-230.5 459.5,-230.5 459.5,-289.5"/>
<image xlink:href="/cti-documentation/img/icons/malware.png" width="44.25px" height="44.25px" preserveAspectRatio="xMinYMin meet" x="407.875" y="-282.125"/>
</g>
<!-- intrusion_set&#45;&gt;malware -->
<g id="edge6" class="edge"><title>intrusion_set&#45;&gt;malware</title>
<path fill="none" stroke="black" stroke-width="0.3" d="M249.922,-226.423C286.556,-233.292 349.804,-245.151 390.495,-252.78"/>
<polygon fill="black" stroke="black" stroke-width="0.3" points="389.85,-256.22 400.324,-254.623 391.14,-249.34 389.85,-256.22"/>
<text text-anchor="middle" x="325" y="-250.8" font-family="Helvetica,sans-Serif" font-size="14.00">Uses</text>
</g>
<!-- threat_actor -->
<g id="node6" class="node"><title>threat_actor</title>
<polygon fill="none" stroke="black" stroke-width="0" points="459.5,-212.5 400.5,-212.5 400.5,-153.5 459.5,-153.5 459.5,-212.5"/>
<image xlink:href="/cti-documentation/img/icons/threat_actor.png" width="44.25px" height="44.25px" preserveAspectRatio="xMinYMin meet" x="407.875" y="-205.125"/>
</g>
<!-- intrusion_set&#45;&gt;threat_actor -->
<g id="edge2" class="edge"><title>intrusion_set&#45;&gt;threat_actor</title>
<path fill="none" stroke="black" stroke-width="0.3" d="M249.922,-215.716C286.478,-209.038 349.536,-197.518 390.236,-190.082"/>
<polygon fill="black" stroke="black" stroke-width="0.3" points="391.116,-193.479 400.324,-188.239 389.858,-186.593 391.116,-193.479"/>
<text text-anchor="middle" x="325" y="-212.8" font-family="Helvetica,sans-Serif" font-size="14.00">Attributed&#45;to</text>
</g>
<!-- tool -->
<g id="node7" class="node"><title>tool</title>
<polygon fill="none" stroke="black" stroke-width="0" points="459.5,-135.5 400.5,-135.5 400.5,-76.5 459.5,-76.5 459.5,-135.5"/>
<image xlink:href="/cti-documentation/img/icons/tool.png" width="44.25px" height="44.25px" preserveAspectRatio="xMinYMin meet" x="407.875" y="-128.125"/>
</g>
<!-- intrusion_set&#45;&gt;tool -->
<g id="edge7" class="edge"><title>intrusion_set&#45;&gt;tool</title>
<path fill="none" stroke="black" stroke-width="0.3" d="M249.586,-200.436C260.735,-192.74 273.758,-184.14 286,-177 320.634,-156.802 361.784,-136.761 391.029,-123.149"/>
<polygon fill="black" stroke="black" stroke-width="0.3" points="392.855,-126.161 400.464,-118.788 389.918,-119.807 392.855,-126.161"/>
<text text-anchor="middle" x="325" y="-180.8" font-family="Helvetica,sans-Serif" font-size="14.00">Uses</text>
</g>
<!-- vulnerability -->
<g id="node8" class="node"><title>vulnerability</title>
<polygon fill="none" stroke="black" stroke-width="0" points="459.5,-58.5 400.5,-58.5 400.5,0.5 459.5,0.5 459.5,-58.5"/>
<image xlink:href="/cti-documentation/img/icons/vulnerability.png" width="44.25px" height="44.25px" preserveAspectRatio="xMinYMin meet" x="407.875" y="-51.125"/>
</g>
<!-- intrusion_set&#45;&gt;vulnerability -->
<g id="edge4" class="edge"><title>intrusion_set&#45;&gt;vulnerability</title>
<path fill="none" stroke="black" stroke-width="0.3" d="M235.036,-191.431C246.536,-169.37 264.402,-139.463 286,-118 316.921,-87.2711 360.323,-62.15 391.183,-46.5261"/>
<polygon fill="black" stroke="black" stroke-width="0.3" points="392.929,-49.5673 400.331,-41.9866 389.817,-43.297 392.929,-49.5673"/>
<text text-anchor="middle" x="325" y="-121.8" font-family="Helvetica,sans-Serif" font-size="14.00">Targets</text>
</g>
</g>
</svg>
