<?xml version="1.0" encoding="UTF-8" standalone="no"?>
<!DOCTYPE svg PUBLIC "-//W3C//DTD SVG 1.1//EN"
 "http://www.w3.org/Graphics/SVG/1.1/DTD/svg11.dtd">
<!-- Generated by graphviz version 2.42.3 (20191010.1750)
 -->
<!-- Title: STIX Pages: 1 -->
<svg width="502pt" height="634pt"
 viewBox="0.00 0.00 501.73 634.00" xmlns="http://www.w3.org/2000/svg" xmlns:xlink="http://www.w3.org/1999/xlink">
<g id="graph0" class="graph" transform="scale(1 1) rotate(0) translate(4 630)">
<title>STIX</title>
<polygon fill="white" stroke="transparent" points="-4,4 -4,-630 497.73,-630 497.73,4 -4,4"/>
<!-- attack_pattern -->
<g id="node1" class="node">
<title>attack_pattern</title>
<polygon fill="none" stroke="black" stroke-width="0" points="493.73,-626 434.73,-626 434.73,-567 493.73,-567 493.73,-626"/>
<image xlink:href="attack_pattern.png" width="59px" height="59px" preserveAspectRatio="xMinYMin meet" x="434.73" y="-626"/>
</g>
<!-- campaign -->
<g id="node2" class="node">
<title>campaign</title>
<polygon fill="none" stroke="black" stroke-width="0" points="59,-403 0,-403 0,-344 59,-344 59,-403"/>
<image xlink:href="campaign.png" width="59px" height="59px" preserveAspectRatio="xMinYMin meet" x="0" y="-403"/>
</g>
<!-- intrusion_set -->
<g id="node6" class="node">
<title>intrusion_set</title>
<polygon fill="none" stroke="black" stroke-width="0" points="266.26,-364 207.26,-364 207.26,-305 266.26,-305 266.26,-364"/>
<image xlink:href="intrusion_set.png" width="59px" height="59px" preserveAspectRatio="xMinYMin meet" x="207.262" y="-364"/>
</g>
<!-- campaign&#45;&gt;intrusion_set -->
<g id="edge1" class="edge">
<title>campaign&#45;&gt;intrusion_set</title>
<path fill="none" stroke="black" stroke-width="0.3" d="M59.04,-368.08C95.01,-361.24 156.99,-349.47 197.17,-341.83"/>
<polygon fill="black" stroke="black" stroke-width="0.3" points="197.96,-345.24 207.13,-339.94 196.66,-338.37 197.96,-345.24"/>
<text text-anchor="middle" x="133.13" y="-363.3" font-family="Helvetica,sans-Serif" font-size="14.00">Attributed&#45;to</text>
</g>
<!-- identity -->
<g id="node3" class="node">
<title>identity</title>
<polygon fill="none" stroke="black" stroke-width="0" points="493.73,-549 434.73,-549 434.73,-490 493.73,-490 493.73,-549"/>
<image xlink:href="identity.png" width="59px" height="59px" preserveAspectRatio="xMinYMin meet" x="434.73" y="-549"/>
</g>
<!-- indicator -->
<g id="node4" class="node">
<title>indicator</title>
<polygon fill="none" stroke="black" stroke-width="0" points="59,-326 0,-326 0,-267 59,-267 59,-326"/>
<image xlink:href="indicator.png" width="59px" height="59px" preserveAspectRatio="xMinYMin meet" x="0" y="-326"/>
</g>
<!-- indicator&#45;&gt;intrusion_set -->
<g id="edge3" class="edge">
<title>indicator&#45;&gt;intrusion_set</title>
<path fill="none" stroke="black" stroke-width="0.3" d="M59.04,-301.78C95.01,-308.44 156.99,-319.92 197.17,-327.36"/>
<polygon fill="black" stroke="black" stroke-width="0.3" points="196.66,-330.82 207.13,-329.2 197.94,-323.94 196.66,-330.82"/>
<text text-anchor="middle" x="133.13" y="-324.3" font-family="Helvetica,sans-Serif" font-size="14.00">Indicates</text>
</g>
<!-- infrastructure -->
<g id="node5" class="node">
<title>infrastructure</title>
<polygon fill="none" stroke="black" stroke-width="0" points="493.73,-458 434.73,-458 434.73,-399 493.73,-399 493.73,-458"/>
<image xlink:href="infrastructure.png" width="59px" height="59px" preserveAspectRatio="xMinYMin meet" x="434.73" y="-458"/>
</g>
<!-- intrusion_set&#45;&gt;attack_pattern -->
<g id="edge12" class="edge">
<title>intrusion_set&#45;&gt;attack_pattern</title>
<path fill="none" stroke="black" stroke-width="0.3" d="M239.13,-364.29C242.72,-408.12 255.67,-490.03 302.26,-538.5 334.67,-572.22 388.11,-586.4 424.45,-592.32"/>
<polygon fill="black" stroke="black" stroke-width="0.3" points="424.26,-595.84 434.67,-593.85 425.3,-588.91 424.26,-595.84"/>
<text text-anchor="middle" x="350.5" y="-589.3" font-family="Helvetica,sans-Serif" font-size="14.00">Uses</text>
</g>
<!-- intrusion_set&#45;&gt;identity -->
<g id="edge9" class="edge">
<title>intrusion_set&#45;&gt;identity</title>
<path fill="none" stroke="black" stroke-width="0.3" d="M241.56,-364.05C247.75,-399.52 263.52,-458.15 302.26,-489.5 336.75,-517.41 389.03,-522.44 424.58,-522.11"/>
<polygon fill="black" stroke="black" stroke-width="0.3" points="424.67,-525.61 434.58,-521.88 424.5,-518.61 424.67,-525.61"/>
<text text-anchor="middle" x="350.5" y="-523.3" font-family="Helvetica,sans-Serif" font-size="14.00">Targets</text>
</g>
<!-- intrusion_set&#45;&gt;infrastructure -->
<g id="edge5" class="edge">
<title>intrusion_set&#45;&gt;infrastructure</title>
<path fill="none" stroke="black" stroke-width="0.3" d="M243.58,-364.03C251.28,-394.24 268.09,-439.6 302.26,-460.5 339.92,-483.53 390.96,-466.96 425.38,-450.29"/>
<polygon fill="black" stroke="black" stroke-width="0.3" points="427.28,-453.26 434.63,-445.62 424.12,-447.01 427.28,-453.26"/>
<text text-anchor="middle" x="350.5" y="-474.3" font-family="Helvetica,sans-Serif" font-size="14.00">Compromises</text>
</g>
<!-- intrusion_set&#45;&gt;infrastructure -->
<g id="edge6" class="edge">
<title>intrusion_set&#45;&gt;infrastructure</title>
<path fill="none" stroke="black" stroke-width="0.3" d="M250.5,-364.18C261.09,-384.82 278.32,-410.81 302.26,-423.5 340.1,-443.55 390.28,-441.4 424.49,-436.44"/>
<polygon fill="black" stroke="black" stroke-width="0.3" points="425.24,-439.86 434.56,-434.83 424.13,-432.95 425.24,-439.86"/>
<text text-anchor="middle" x="350.5" y="-442.3" font-family="Helvetica,sans-Serif" font-size="14.00">Hosts</text>
</g>
<!-- intrusion_set&#45;&gt;infrastructure -->
<g id="edge7" class="edge">
<title>intrusion_set&#45;&gt;infrastructure</title>
<path fill="none" stroke="black" stroke-width="0.3" d="M266.54,-362.66C277.04,-371.52 289.49,-380.54 302.26,-386.5 341.86,-404.97 356.6,-393.91 398.73,-405.5 407.39,-407.88 416.56,-410.86 425.18,-413.88"/>
<polygon fill="black" stroke="black" stroke-width="0.3" points="424.03,-417.19 434.62,-417.27 426.4,-410.6 424.03,-417.19"/>
<text text-anchor="middle" x="350.5" y="-408.3" font-family="Helvetica,sans-Serif" font-size="14.00">Owns</text>
</g>
<!-- intrusion_set&#45;&gt;infrastructure -->
<g id="edge13" class="edge">
<title>intrusion_set&#45;&gt;infrastructure</title>
<path fill="none" stroke="black" stroke-width="0.3" d="M266.29,-341.35C277.49,-343.99 290.46,-346.97 302.26,-349.5 344.99,-358.67 359.81,-348.64 398.73,-368.5 410.23,-374.37 421.16,-382.89 430.65,-391.68"/>
<polygon fill="black" stroke="black" stroke-width="0.3" points="428.31,-394.29 437.93,-398.74 433.19,-389.27 428.31,-394.29"/>
<text text-anchor="middle" x="350.5" y="-371.3" font-family="Helvetica,sans-Serif" font-size="14.00">Uses</text>
</g>
<!-- malware -->
<g id="node7" class="node">
<title>malware</title>
<polygon fill="none" stroke="black" stroke-width="0" points="493.73,-367 434.73,-367 434.73,-308 493.73,-308 493.73,-367"/>
<image xlink:href="malware.png" width="59px" height="59px" preserveAspectRatio="xMinYMin meet" x="434.73" y="-367"/>
</g>
<!-- intrusion_set&#45;&gt;malware -->
<g id="edge14" class="edge">
<title>intrusion_set&#45;&gt;malware</title>
<path fill="none" stroke="black" stroke-width="0.3" d="M266.55,-334.46C298.76,-334.47 352.49,-334.64 398.73,-335.5 407.09,-335.66 416.06,-335.89 424.57,-336.15"/>
<polygon fill="black" stroke="black" stroke-width="0.3" points="424.55,-339.65 434.66,-336.46 424.77,-332.65 424.55,-339.65"/>
<text text-anchor="middle" x="350.5" y="-338.3" font-family="Helvetica,sans-Serif" font-size="14.00">Uses</text>
</g>
<!-- location -->
<g id="node8" class="node">
<title>location</title>
<polygon fill="none" stroke="black" stroke-width="0" points="493.73,-290 434.73,-290 434.73,-231 493.73,-231 493.73,-290"/>
<image xlink:href="location.png" width="59px" height="59px" preserveAspectRatio="xMinYMin meet" x="434.73" y="-290"/>
</g>
<!-- intrusion_set&#45;&gt;location -->
<g id="edge8" class="edge">
<title>intrusion_set&#45;&gt;location</title>
<path fill="none" stroke="black" stroke-width="0.3" d="M260.65,-304.78C271.79,-292.58 286.24,-279.66 302.26,-272.5 341.05,-255.18 390.35,-254.16 424.1,-256.22"/>
<polygon fill="black" stroke="black" stroke-width="0.3" points="424.26,-259.74 434.48,-256.97 424.77,-252.75 424.26,-259.74"/>
<text text-anchor="middle" x="350.5" y="-275.3" font-family="Helvetica,sans-Serif" font-size="14.00">Originates&#45;from</text>
</g>
<!-- intrusion_set&#45;&gt;location -->
<g id="edge10" class="edge">
<title>intrusion_set&#45;&gt;location</title>
<path fill="none" stroke="black" stroke-width="0.3" d="M248.43,-304.82C258.45,-281.85 275.88,-251.64 302.26,-237.5 340.53,-216.99 390.93,-229.43 425.06,-242.63"/>
<polygon fill="black" stroke="black" stroke-width="0.3" points="424.08,-246.01 434.66,-246.53 426.71,-239.52 424.08,-246.01"/>
<text text-anchor="middle" x="350.5" y="-240.3" font-family="Helvetica,sans-Serif" font-size="14.00">Targets</text>
</g>
<!-- threat_actor -->
<g id="node9" class="node">
<title>threat_actor</title>
<polygon fill="none" stroke="black" stroke-width="0" points="493.73,-213 434.73,-213 434.73,-154 493.73,-154 493.73,-213"/>
<image xlink:href="threat_actor.png" width="59px" height="59px" preserveAspectRatio="xMinYMin meet" x="434.73" y="-213"/>
</g>
<!-- intrusion_set&#45;&gt;threat_actor -->
<g id="edge4" class="edge">
<title>intrusion_set&#45;&gt;threat_actor</title>
<path fill="none" stroke="black" stroke-width="0.3" d="M244.74,-304.9C253.23,-275.8 270.53,-232.51 302.26,-209.5 337.68,-183.83 388.98,-179.67 424.09,-180.41"/>
<polygon fill="black" stroke="black" stroke-width="0.3" points="424.32,-183.92 434.43,-180.78 424.57,-176.93 424.32,-183.92"/>
<text text-anchor="middle" x="350.5" y="-212.3" font-family="Helvetica,sans-Serif" font-size="14.00">Attributed&#45;to</text>
</g>
<!-- tool -->
<g id="node10" class="node">
<title>tool</title>
<polygon fill="none" stroke="black" stroke-width="0" points="493.73,-136 434.73,-136 434.73,-77 493.73,-77 493.73,-136"/>
<image xlink:href="tool.png" width="59px" height="59px" preserveAspectRatio="xMinYMin meet" x="434.73" y="-136"/>
</g>
<!-- intrusion_set&#45;&gt;tool -->
<g id="edge15" class="edge">
<title>intrusion_set&#45;&gt;tool</title>
<path fill="none" stroke="black" stroke-width="0.3" d="M241.24,-305C247.2,-267.25 262.83,-202.14 302.26,-163.5 335.51,-130.92 388.52,-116.87 424.55,-110.86"/>
<polygon fill="black" stroke="black" stroke-width="0.3" points="425.33,-114.29 434.68,-109.31 424.27,-107.37 425.33,-114.29"/>
<text text-anchor="middle" x="350.5" y="-166.3" font-family="Helvetica,sans-Serif" font-size="14.00">Uses</text>
</g>
<!-- vulnerability -->
<g id="node11" class="node">
<title>vulnerability</title>
<polygon fill="none" stroke="black" stroke-width="0" points="493.73,-59 434.73,-59 434.73,0 493.73,0 493.73,-59"/>
<image xlink:href="vulnerability.png" width="59px" height="59px" preserveAspectRatio="xMinYMin meet" x="434.73" y="-59"/>
</g>
<!-- intrusion_set&#45;&gt;vulnerability -->
<g id="edge11" class="edge">
<title>intrusion_set&#45;&gt;vulnerability</title>
<path fill="none" stroke="black" stroke-width="0.3" d="M238.03,-304.73C240.02,-256.07 250.72,-158.96 302.26,-99.5 333.92,-62.98 388.13,-44.85 424.8,-36.33"/>
<polygon fill="black" stroke="black" stroke-width="0.3" points="425.62,-39.73 434.64,-34.18 424.13,-32.9 425.62,-39.73"/>
<text text-anchor="middle" x="350.5" y="-102.3" font-family="Helvetica,sans-Serif" font-size="14.00">Targets</text>
</g>
<!-- malware&#45;&gt;intrusion_set -->
<g id="edge2" class="edge">
<title>malware&#45;&gt;intrusion_set</title>
<path fill="none" stroke="black" stroke-width="0.3" d="M434.61,-315.62C423.93,-308.73 411.34,-302.01 398.73,-298.5 357.43,-286.98 343.76,-287.7 302.26,-298.5 293.06,-300.9 283.77,-304.92 275.22,-309.44"/>
<polygon fill="black" stroke="black" stroke-width="0.3" points="273.28,-306.52 266.28,-314.48 276.71,-312.62 273.28,-306.52"/>
<text text-anchor="middle" x="350.5" y="-301.3" font-family="Helvetica,sans-Serif" font-size="14.00">Authored&#45;by</text>
</g>
</g>
</svg>
