<?xml version="1.0" encoding="UTF-8" standalone="no"?>
<!DOCTYPE svg PUBLIC "-//W3C//DTD SVG 1.1//EN"
 "http://www.w3.org/Graphics/SVG/1.1/DTD/svg11.dtd">
<!-- Generated by graphviz version 2.42.3 (20191010.1750)
 -->
<!-- Title: STIX Pages: 1 -->
<svg width="297pt" height="606pt"
 viewBox="0.00 0.00 296.57 606.00" xmlns="http://www.w3.org/2000/svg" xmlns:xlink="http://www.w3.org/1999/xlink">
<g id="graph0" class="graph" transform="scale(1 1) rotate(0) translate(4 602)">
<title>STIX</title>
<polygon fill="white" stroke="transparent" points="-4,4 -4,-602 292.57,-602 292.57,4 -4,4"/>
<!-- attack_pattern -->
<g id="node1" class="node">
<title>attack_pattern</title>
<polygon fill="none" stroke="black" stroke-width="0" points="59,-598 0,-598 0,-539 59,-539 59,-598"/>
<image xlink:href="attack_pattern.png" width="59px" height="59px" preserveAspectRatio="xMinYMin meet" x="0" y="-598"/>
</g>
<!-- location -->
<g id="node9" class="node">
<title>location</title>
<polygon fill="none" stroke="black" stroke-width="0" points="288.61,-295.5 227.42,-295.5 227.42,-259.5 288.61,-259.5 288.61,-295.5"/>
<text text-anchor="middle" x="258.02" y="-273.3" font-family="Times,serif" font-size="14.00">location</text>
</g>
<!-- attack_pattern&#45;&gt;location -->
<g id="edge7" class="edge">
<title>attack_pattern&#45;&gt;location</title>
<path fill="none" stroke="black" stroke-width="0.3" d="M59.23,-566.82C95.21,-563.16 156.39,-551.52 191.47,-514.5 246.89,-456.02 256.22,-354.96 257.3,-305.88"/>
<polygon fill="black" stroke="black" stroke-width="0.3" points="260.8,-305.72 257.42,-295.68 253.8,-305.64 260.8,-305.72"/>
<text text-anchor="middle" x="143.23" y="-563.3" font-family="Helvetica,sans-Serif" font-size="14.00">Targets</text>
</g>
<!-- campaign -->
<g id="node2" class="node">
<title>campaign</title>
<polygon fill="none" stroke="black" stroke-width="0" points="59,-521 0,-521 0,-462 59,-462 59,-521"/>
<image xlink:href="campaign.png" width="59px" height="59px" preserveAspectRatio="xMinYMin meet" x="0" y="-521"/>
</g>
<!-- campaign&#45;&gt;location -->
<g id="edge4" class="edge">
<title>campaign&#45;&gt;location</title>
<path fill="none" stroke="black" stroke-width="0.3" d="M59.03,-495.69C94.25,-499.19 154.05,-499.45 191.47,-468.5 240.67,-427.8 253.04,-348.33 256.08,-305.86"/>
<polygon fill="black" stroke="black" stroke-width="0.3" points="259.59,-305.85 256.68,-295.66 252.6,-305.43 259.59,-305.85"/>
<text text-anchor="middle" x="143.23" y="-499.3" font-family="Helvetica,sans-Serif" font-size="14.00">Originates&#45;from</text>
</g>
<!-- campaign&#45;&gt;location -->
<g id="edge8" class="edge">
<title>campaign&#45;&gt;location</title>
<path fill="none" stroke="black" stroke-width="0.3" d="M59.24,-472.11C70.23,-464.99 83.02,-457.07 95,-450.5 136.49,-427.76 157.41,-438.33 191.47,-405.5 220.45,-377.57 238.92,-334.06 248.63,-305.67"/>
<polygon fill="black" stroke="black" stroke-width="0.3" points="252.03,-306.54 251.81,-295.95 245.37,-304.36 252.03,-306.54"/>
<text text-anchor="middle" x="143.23" y="-453.3" font-family="Helvetica,sans-Serif" font-size="14.00">Targets</text>
</g>
<!-- identity -->
<g id="node3" class="node">
<title>identity</title>
<polygon fill="none" stroke="black" stroke-width="0" points="59,-444 0,-444 0,-385 59,-385 59,-444"/>
<image xlink:href="identity.png" width="59px" height="59px" preserveAspectRatio="xMinYMin meet" x="0" y="-444"/>
</g>
<!-- identity&#45;&gt;location -->
<g id="edge1" class="edge">
<title>identity&#45;&gt;location</title>
<path fill="none" stroke="black" stroke-width="0.3" d="M59.25,-404.05C92.59,-391.25 148.48,-367.61 191.47,-338.5 206.46,-328.35 221.38,-314.8 233.19,-303.06"/>
<polygon fill="black" stroke="black" stroke-width="0.3" points="235.96,-305.24 240.47,-295.65 230.97,-300.33 235.96,-305.24"/>
<text text-anchor="middle" x="143.23" y="-390.3" font-family="Helvetica,sans-Serif" font-size="14.00">Located&#45;at</text>
</g>
<!-- infrastructure -->
<g id="node4" class="node">
<title>infrastructure</title>
<polygon fill="none" stroke="black" stroke-width="0" points="59,-367 0,-367 0,-308 59,-308 59,-367"/>
<image xlink:href="infrastructure.png" width="59px" height="59px" preserveAspectRatio="xMinYMin meet" x="0" y="-367"/>
</g>
<!-- infrastructure&#45;&gt;location -->
<g id="edge2" class="edge">
<title>infrastructure&#45;&gt;location</title>
<path fill="none" stroke="black" stroke-width="0.3" d="M59.07,-330.52C91.31,-322.58 145.28,-309.07 191.47,-296.5 199.93,-294.2 208.98,-291.64 217.57,-289.16"/>
<polygon fill="black" stroke="black" stroke-width="0.3" points="218.75,-292.46 227.38,-286.31 216.8,-285.74 218.75,-292.46"/>
<text text-anchor="middle" x="143.23" y="-323.3" font-family="Helvetica,sans-Serif" font-size="14.00">Located&#45;at</text>
</g>
<!-- intrusion_set -->
<g id="node5" class="node">
<title>intrusion_set</title>
<polygon fill="none" stroke="black" stroke-width="0" points="59,-290 0,-290 0,-231 59,-231 59,-290"/>
<image xlink:href="intrusion_set.png" width="59px" height="59px" preserveAspectRatio="xMinYMin meet" x="0" y="-290"/>
</g>
<!-- intrusion_set&#45;&gt;location -->
<g id="edge5" class="edge">
<title>intrusion_set&#45;&gt;location</title>
<path fill="none" stroke="black" stroke-width="0.3" d="M59.2,-267.99C70.3,-270.55 83.16,-273.12 95,-274.5 136.48,-279.34 184.33,-279.57 217.21,-278.92"/>
<polygon fill="black" stroke="black" stroke-width="0.3" points="217.42,-282.41 227.34,-278.68 217.26,-275.42 217.42,-282.41"/>
<text text-anchor="middle" x="143.23" y="-281.3" font-family="Helvetica,sans-Serif" font-size="14.00">Originates&#45;from</text>
</g>
<!-- intrusion_set&#45;&gt;location -->
<g id="edge9" class="edge">
<title>intrusion_set&#45;&gt;location</title>
<path fill="none" stroke="black" stroke-width="0.3" d="M59.2,-256.71C91.55,-253.14 145.62,-249.34 191.47,-256.5 200.12,-257.85 209.2,-260.15 217.74,-262.75"/>
<polygon fill="black" stroke="black" stroke-width="0.3" points="216.88,-266.15 227.47,-265.89 219.03,-259.48 216.88,-266.15"/>
<text text-anchor="middle" x="143.23" y="-259.3" font-family="Helvetica,sans-Serif" font-size="14.00">Targets</text>
</g>
<!-- malware -->
<g id="node6" class="node">
<title>malware</title>
<polygon fill="none" stroke="black" stroke-width="0" points="59,-213 0,-213 0,-154 59,-154 59,-213"/>
<image xlink:href="malware.png" width="59px" height="59px" preserveAspectRatio="xMinYMin meet" x="0" y="-213"/>
</g>
<!-- malware&#45;&gt;location -->
<g id="edge6" class="edge">
<title>malware&#45;&gt;location</title>
<path fill="none" stroke="black" stroke-width="0.3" d="M59.02,-191.28C98.56,-202.26 167.84,-222.2 191.47,-233.5 203.06,-239.04 214.95,-246.43 225.37,-253.56"/>
<polygon fill="black" stroke="black" stroke-width="0.3" points="223.54,-256.56 233.74,-259.45 227.57,-250.83 223.54,-256.56"/>
<text text-anchor="middle" x="143.23" y="-236.3" font-family="Helvetica,sans-Serif" font-size="14.00">Originates&#45;from</text>
</g>
<!-- malware&#45;&gt;location -->
<g id="edge10" class="edge">
<title>malware&#45;&gt;location</title>
<path fill="none" stroke="black" stroke-width="0.3" d="M59.13,-175.93C92.86,-168.65 149.6,-161.65 191.47,-183.5 218.05,-197.37 236.05,-227.48 246.36,-249.91"/>
<polygon fill="black" stroke="black" stroke-width="0.3" points="243.24,-251.51 250.44,-259.29 249.66,-248.72 243.24,-251.51"/>
<text text-anchor="middle" x="143.23" y="-186.3" font-family="Helvetica,sans-Serif" font-size="14.00">Targets</text>
</g>
<!-- threat_actor -->
<g id="node7" class="node">
<title>threat_actor</title>
<polygon fill="none" stroke="black" stroke-width="0" points="59,-136 0,-136 0,-77 59,-77 59,-136"/>
<image xlink:href="threat_actor.png" width="59px" height="59px" preserveAspectRatio="xMinYMin meet" x="0" y="-136"/>
</g>
<!-- threat_actor&#45;&gt;location -->
<g id="edge3" class="edge">
<title>threat_actor&#45;&gt;location</title>
<path fill="none" stroke="black" stroke-width="0.3" d="M59.02,-115.12C70.21,-118.45 83.19,-122.23 95,-125.5 137.69,-137.31 156.86,-122.86 191.47,-150.5 223.07,-175.74 241,-220.32 249.86,-249.38"/>
<polygon fill="black" stroke="black" stroke-width="0.3" points="246.59,-250.68 252.72,-259.32 253.32,-248.74 246.59,-250.68"/>
<text text-anchor="middle" x="143.23" y="-153.3" font-family="Helvetica,sans-Serif" font-size="14.00">Located&#45;at</text>
</g>
<!-- threat_actor&#45;&gt;location -->
<g id="edge11" class="edge">
<title>threat_actor&#45;&gt;location</title>
<path fill="none" stroke="black" stroke-width="0.3" d="M59.25,-97.7C93.88,-88.97 152.26,-80.42 191.47,-107.5 238.08,-139.7 251.55,-210.04 255.44,-249.4"/>
<polygon fill="black" stroke="black" stroke-width="0.3" points="251.96,-249.72 256.29,-259.39 258.93,-249.13 251.96,-249.72"/>
<text text-anchor="middle" x="143.23" y="-110.3" font-family="Helvetica,sans-Serif" font-size="14.00">Targets</text>
</g>
<!-- tool -->
<g id="node8" class="node">
<title>tool</title>
<polygon fill="none" stroke="black" stroke-width="0" points="59,-59 0,-59 0,0 59,0 59,-59"/>
<image xlink:href="tool.png" width="59px" height="59px" preserveAspectRatio="xMinYMin meet" x="0" y="-59"/>
</g>
<!-- tool&#45;&gt;location -->
<g id="edge12" class="edge">
<title>tool&#45;&gt;location</title>
<path fill="none" stroke="black" stroke-width="0.3" d="M59.16,-28.84C94.79,-29.6 155.3,-36.35 191.47,-70.5 241.98,-118.2 253.74,-204.51 256.36,-249.11"/>
<polygon fill="black" stroke="black" stroke-width="0.3" points="252.87,-249.42 256.84,-259.25 259.86,-249.09 252.87,-249.42"/>
<text text-anchor="middle" x="143.23" y="-73.3" font-family="Helvetica,sans-Serif" font-size="14.00">Targets</text>
</g>
</g>
</svg>
