<?xml version="1.0" encoding="UTF-8" standalone="no"?>
<!DOCTYPE svg PUBLIC "-//W3C//DTD SVG 1.1//EN"
 "http://www.w3.org/Graphics/SVG/1.1/DTD/svg11.dtd">
<!-- Generated by graphviz version 2.42.3 (20191010.1750)
 -->
<!-- Title: STIX Pages: 1 -->
<svg width="294pt" height="606pt"
 viewBox="0.00 0.00 294.47 606.00" xmlns="http://www.w3.org/2000/svg" xmlns:xlink="http://www.w3.org/1999/xlink">
<g id="graph0" class="graph" transform="scale(1 1) rotate(0) translate(4 602)">
<title>STIX</title>
<polygon fill="white" stroke="transparent" points="-4,4 -4,-602 290.47,-602 290.47,4 -4,4"/>
<!-- attack_pattern -->
<g id="node1" class="node">
<title>attack_pattern</title>
<polygon fill="none" stroke="black" stroke-width="0" points="59,-598 0,-598 0,-539 59,-539 59,-598"/>
<image xlink:href="attack_pattern.png" width="59px" height="59px" preserveAspectRatio="xMinYMin meet" x="0" y="-598"/>
</g>
<!-- location -->
<g id="node6" class="node">
<title>location</title>
<polygon fill="none" stroke="black" stroke-width="0" points="286.47,-307 227.47,-307 227.47,-248 286.47,-248 286.47,-307"/>
<image xlink:href="location.png" width="59px" height="59px" preserveAspectRatio="xMinYMin meet" x="227.469" y="-307"/>
</g>
<!-- attack_pattern&#45;&gt;location -->
<g id="edge7" class="edge">
<title>attack_pattern&#45;&gt;location</title>
<path fill="none" stroke="black" stroke-width="0.3" d="M59.25,-566.85C95.26,-563.21 156.47,-551.59 191.47,-514.5 242.67,-460.24 254.01,-369.46 256.06,-317.41"/>
<polygon fill="black" stroke="black" stroke-width="0.3" points="259.57,-317.33 256.36,-307.23 252.57,-317.12 259.57,-317.33"/>
<text text-anchor="middle" x="143.23" y="-563.3" font-family="Helvetica,sans-Serif" font-size="14.00">Targets</text>
</g>
<!-- campaign -->
<g id="node2" class="node">
<title>campaign</title>
<polygon fill="none" stroke="black" stroke-width="0" points="59,-521 0,-521 0,-462 59,-462 59,-521"/>
<image xlink:href="campaign.png" width="59px" height="59px" preserveAspectRatio="xMinYMin meet" x="0" y="-521"/>
</g>
<!-- campaign&#45;&gt;location -->
<g id="edge4" class="edge">
<title>campaign&#45;&gt;location</title>
<path fill="none" stroke="black" stroke-width="0.3" d="M59.06,-495.72C94.3,-499.25 154.13,-499.54 191.47,-468.5 236.44,-431.11 250.19,-361.15 254.31,-317.07"/>
<polygon fill="black" stroke="black" stroke-width="0.3" points="257.8,-317.25 255.12,-307 250.83,-316.69 257.8,-317.25"/>
<text text-anchor="middle" x="143.23" y="-499.3" font-family="Helvetica,sans-Serif" font-size="14.00">Originates&#45;from</text>
</g>
<!-- campaign&#45;&gt;location -->
<g id="edge8" class="edge">
<title>campaign&#45;&gt;location</title>
<path fill="none" stroke="black" stroke-width="0.3" d="M59.24,-472.11C70.23,-464.99 83.02,-457.07 95,-450.5 136.49,-427.76 157.51,-438.44 191.47,-405.5 216.68,-381.04 233.7,-344.64 243.9,-316.9"/>
<polygon fill="black" stroke="black" stroke-width="0.3" points="247.32,-317.7 247.35,-307.11 240.72,-315.37 247.32,-317.7"/>
<text text-anchor="middle" x="143.23" y="-453.3" font-family="Helvetica,sans-Serif" font-size="14.00">Targets</text>
</g>
<!-- identity -->
<g id="node3" class="node">
<title>identity</title>
<polygon fill="none" stroke="black" stroke-width="0" points="59,-444 0,-444 0,-385 59,-385 59,-444"/>
<image xlink:href="identity.png" width="59px" height="59px" preserveAspectRatio="xMinYMin meet" x="0" y="-444"/>
</g>
<!-- identity&#45;&gt;location -->
<g id="edge1" class="edge">
<title>identity&#45;&gt;location</title>
<path fill="none" stroke="black" stroke-width="0.3" d="M59.29,-404.11C92.67,-391.36 148.6,-367.79 191.47,-338.5 201.71,-331.5 211.89,-322.88 221.02,-314.34"/>
<polygon fill="black" stroke="black" stroke-width="0.3" points="223.65,-316.68 228.44,-307.23 218.8,-311.63 223.65,-316.68"/>
<text text-anchor="middle" x="143.23" y="-390.3" font-family="Helvetica,sans-Serif" font-size="14.00">Located&#45;at</text>
</g>
<!-- infrastructure -->
<g id="node4" class="node">
<title>infrastructure</title>
<polygon fill="none" stroke="black" stroke-width="0" points="59,-367 0,-367 0,-308 59,-308 59,-367"/>
<image xlink:href="infrastructure.png" width="59px" height="59px" preserveAspectRatio="xMinYMin meet" x="0" y="-367"/>
</g>
<!-- infrastructure&#45;&gt;location -->
<g id="edge2" class="edge">
<title>infrastructure&#45;&gt;location</title>
<path fill="none" stroke="black" stroke-width="0.3" d="M59.08,-330.56C91.33,-322.65 145.31,-309.17 191.47,-296.5 199.96,-294.17 209.06,-291.56 217.66,-289.04"/>
<polygon fill="black" stroke="black" stroke-width="0.3" points="218.86,-292.33 227.46,-286.15 216.88,-285.62 218.86,-292.33"/>
<text text-anchor="middle" x="143.23" y="-323.3" font-family="Helvetica,sans-Serif" font-size="14.00">Located&#45;at</text>
</g>
<!-- intrusion_set -->
<g id="node5" class="node">
<title>intrusion_set</title>
<polygon fill="none" stroke="black" stroke-width="0" points="59,-290 0,-290 0,-231 59,-231 59,-290"/>
<image xlink:href="intrusion_set.png" width="59px" height="59px" preserveAspectRatio="xMinYMin meet" x="0" y="-290"/>
</g>
<!-- intrusion_set&#45;&gt;location -->
<g id="edge5" class="edge">
<title>intrusion_set&#45;&gt;location</title>
<path fill="none" stroke="black" stroke-width="0.3" d="M59.2,-267.98C70.3,-270.55 83.16,-273.12 95,-274.5 136.58,-279.35 184.62,-279.55 217.31,-278.89"/>
<polygon fill="black" stroke="black" stroke-width="0.3" points="217.45,-282.38 227.36,-278.64 217.28,-275.39 217.45,-282.38"/>
<text text-anchor="middle" x="143.23" y="-281.3" font-family="Helvetica,sans-Serif" font-size="14.00">Originates&#45;from</text>
</g>
<!-- intrusion_set&#45;&gt;location -->
<g id="edge9" class="edge">
<title>intrusion_set&#45;&gt;location</title>
<path fill="none" stroke="black" stroke-width="0.3" d="M59.2,-256.67C91.56,-253.07 145.64,-249.23 191.47,-256.5 200.08,-257.87 209.1,-260.2 217.58,-262.82"/>
<polygon fill="black" stroke="black" stroke-width="0.3" points="216.64,-266.2 227.23,-266 218.82,-259.55 216.64,-266.2"/>
<text text-anchor="middle" x="143.23" y="-259.3" font-family="Helvetica,sans-Serif" font-size="14.00">Targets</text>
</g>
<!-- malware -->
<g id="node7" class="node">
<title>malware</title>
<polygon fill="none" stroke="black" stroke-width="0" points="59,-213 0,-213 0,-154 59,-154 59,-213"/>
<image xlink:href="malware.png" width="59px" height="59px" preserveAspectRatio="xMinYMin meet" x="0" y="-213"/>
</g>
<!-- malware&#45;&gt;location -->
<g id="edge6" class="edge">
<title>malware&#45;&gt;location</title>
<path fill="none" stroke="black" stroke-width="0.3" d="M59.03,-191.26C98.58,-202.2 167.88,-222.11 191.47,-233.5 200.72,-237.97 210.14,-243.64 218.82,-249.42"/>
<polygon fill="black" stroke="black" stroke-width="0.3" points="217,-252.41 227.22,-255.19 220.96,-246.64 217,-252.41"/>
<text text-anchor="middle" x="143.23" y="-236.3" font-family="Helvetica,sans-Serif" font-size="14.00">Originates&#45;from</text>
</g>
<!-- malware&#45;&gt;location -->
<g id="edge10" class="edge">
<title>malware&#45;&gt;location</title>
<path fill="none" stroke="black" stroke-width="0.3" d="M59.16,-175.88C92.91,-168.54 149.68,-161.49 191.47,-183.5 213.64,-195.18 229.66,-218.29 240.19,-238.68"/>
<polygon fill="black" stroke="black" stroke-width="0.3" points="237.11,-240.35 244.64,-247.81 243.4,-237.28 237.11,-240.35"/>
<text text-anchor="middle" x="143.23" y="-186.3" font-family="Helvetica,sans-Serif" font-size="14.00">Targets</text>
</g>
<!-- threat_actor -->
<g id="node8" class="node">
<title>threat_actor</title>
<polygon fill="none" stroke="black" stroke-width="0" points="59,-136 0,-136 0,-77 59,-77 59,-136"/>
<image xlink:href="threat_actor.png" width="59px" height="59px" preserveAspectRatio="xMinYMin meet" x="0" y="-136"/>
</g>
<!-- threat_actor&#45;&gt;location -->
<g id="edge3" class="edge">
<title>threat_actor&#45;&gt;location</title>
<path fill="none" stroke="black" stroke-width="0.3" d="M59.02,-115.12C70.21,-118.45 83.19,-122.23 95,-125.5 137.69,-137.31 156.95,-122.75 191.47,-150.5 219.05,-172.68 235.95,-209.75 245.5,-238.14"/>
<polygon fill="black" stroke="black" stroke-width="0.3" points="242.2,-239.31 248.57,-247.78 248.87,-237.19 242.2,-239.31"/>
<text text-anchor="middle" x="143.23" y="-153.3" font-family="Helvetica,sans-Serif" font-size="14.00">Located&#45;at</text>
</g>
<!-- threat_actor&#45;&gt;location -->
<g id="edge11" class="edge">
<title>threat_actor&#45;&gt;location</title>
<path fill="none" stroke="black" stroke-width="0.3" d="M59.28,-97.66C93.93,-88.9 152.34,-80.31 191.47,-107.5 233.56,-136.74 248.21,-197.28 253.29,-237.65"/>
<polygon fill="black" stroke="black" stroke-width="0.3" points="249.82,-238.15 254.41,-247.7 256.78,-237.37 249.82,-238.15"/>
<text text-anchor="middle" x="143.23" y="-110.3" font-family="Helvetica,sans-Serif" font-size="14.00">Targets</text>
</g>
<!-- tool -->
<g id="node9" class="node">
<title>tool</title>
<polygon fill="none" stroke="black" stroke-width="0" points="59,-59 0,-59 0,0 59,0 59,-59"/>
<image xlink:href="tool.png" width="59px" height="59px" preserveAspectRatio="xMinYMin meet" x="0" y="-59"/>
</g>
<!-- tool&#45;&gt;location -->
<g id="edge12" class="edge">
<title>tool&#45;&gt;location</title>
<path fill="none" stroke="black" stroke-width="0.3" d="M59.19,-28.81C94.84,-29.55 155.38,-36.26 191.47,-70.5 237.8,-114.46 251.05,-191.07 254.72,-237.75"/>
<polygon fill="black" stroke="black" stroke-width="0.3" points="251.23,-238.06 255.4,-247.8 258.21,-237.59 251.23,-238.06"/>
<text text-anchor="middle" x="143.23" y="-73.3" font-family="Helvetica,sans-Serif" font-size="14.00">Targets</text>
</g>
</g>
</svg>
