<?xml version="1.0" encoding="UTF-8" standalone="no"?>
<!DOCTYPE svg PUBLIC "-//W3C//DTD SVG 1.1//EN"
 "http://www.w3.org/Graphics/SVG/1.1/DTD/svg11.dtd">
<!-- Generated by graphviz version 2.42.3 (20191010.1750)
 -->
<!-- Title: STIX Pages: 1 -->
<svg width="412pt" height="144pt"
 viewBox="0.00 0.00 412.02 144.00" xmlns="http://www.w3.org/2000/svg" xmlns:xlink="http://www.w3.org/1999/xlink">
<g id="graph0" class="graph" transform="scale(1 1) rotate(0) translate(4 140)">
<title>STIX</title>
<polygon fill="white" stroke="transparent" points="-4,4 -4,-140 408.02,-140 408.02,4 -4,4"/>
<!-- indicator -->
<g id="node1" class="node">
<title>indicator</title>
<polygon fill="none" stroke="black" stroke-width="0" points="59,-136 0,-136 0,-77 59,-77 59,-136"/>
<image xlink:href="/cti-documentation/img/icons/indicator.png" width="59px" height="59px" preserveAspectRatio="xMinYMin meet" x="0" y="-136"/>
</g>
<!-- observed_data -->
<g id="node3" class="node">
<title>observed_data</title>
<polygon fill="none" stroke="black" stroke-width="0" points="404.02,-122.5 201.02,-122.5 201.02,-12.5 404.02,-12.5 404.02,-122.5"/>
<image xlink:href="/cti-documentation/img/icons/observed_data.png" width="203px" height="110px" preserveAspectRatio="xMinYMin meet" x="201.021" y="-122.5"/>
</g>
<!-- indicator&#45;&gt;observed_data -->
<g id="edge1" class="edge">
<title>indicator&#45;&gt;observed_data</title>
<path fill="none" stroke="black" stroke-width="0.3" d="M59.25,-102.36C90.6,-97.85 142.71,-90.35 190.59,-83.46"/>
<polygon fill="black" stroke="black" stroke-width="0.3" points="191.33,-86.89 200.73,-82 190.34,-79.96 191.33,-86.89"/>
<text text-anchor="middle" x="130.01" y="-99.3" font-family="Helvetica,sans-Serif" font-size="14.00">Based&#45;on</text>
</g>
<!-- infrastructure -->
<g id="node2" class="node">
<title>infrastructure</title>
<polygon fill="none" stroke="black" stroke-width="0" points="59,-59 0,-59 0,0 59,0 59,-59"/>
<image xlink:href="/cti-documentation/img/icons/infrastructure.png" width="59px" height="59px" preserveAspectRatio="xMinYMin meet" x="0" y="-59"/>
</g>
<!-- infrastructure&#45;&gt;observed_data -->
<g id="edge2" class="edge">
<title>infrastructure&#45;&gt;observed_data</title>
<path fill="none" stroke="black" stroke-width="0.3" d="M59.25,-33.53C90.6,-37.93 142.71,-45.23 190.59,-51.95"/>
<polygon fill="black" stroke="black" stroke-width="0.3" points="190.34,-55.45 200.73,-53.37 191.32,-48.51 190.34,-55.45"/>
<text text-anchor="middle" x="130.01" y="-49.3" font-family="Helvetica,sans-Serif" font-size="14.00">Consists&#45;of</text>
</g>
</g>
</svg>
