<?xml version="1.0" encoding="UTF-8" standalone="no"?>
<!DOCTYPE svg PUBLIC "-//W3C//DTD SVG 1.1//EN"
 "http://www.w3.org/Graphics/SVG/1.1/DTD/svg11.dtd">
<!-- Generated by graphviz version 2.42.3 (20191010.1750)
 -->
<!-- Title: STIX Pages: 1 -->
<svg width="268pt" height="144pt"
 viewBox="0.00 0.00 268.02 144.00" xmlns="http://www.w3.org/2000/svg" xmlns:xlink="http://www.w3.org/1999/xlink">
<g id="graph0" class="graph" transform="scale(1 1) rotate(0) translate(4 140)">
<title>STIX</title>
<polygon fill="white" stroke="transparent" points="-4,4 -4,-140 264.02,-140 264.02,4 -4,4"/>
<!-- indicator -->
<g id="node1" class="node">
<title>indicator</title>
<polygon fill="none" stroke="black" stroke-width="0" points="59,-136 0,-136 0,-77 59,-77 59,-136"/>
<image xlink:href="/cti-documentation/img/icons/indicator.png" width="59px" height="59px" preserveAspectRatio="xMinYMin meet" x="0" y="-136"/>
</g>
<!-- observed_data -->
<g id="node3" class="node">
<title>observed_data</title>
<polygon fill="none" stroke="black" stroke-width="0" points="260.02,-97 201.02,-97 201.02,-38 260.02,-38 260.02,-97"/>
<image xlink:href="/cti-documentation/img/icons/observed_data.png" width="59px" height="59px" preserveAspectRatio="xMinYMin meet" x="201.021" y="-97"/>
</g>
<!-- indicator&#45;&gt;observed_data -->
<g id="edge1" class="edge">
<title>indicator&#45;&gt;observed_data</title>
<path fill="none" stroke="black" stroke-width="0.3" d="M59.01,-100.91C93.65,-94.13 152.22,-82.65 190.88,-75.07"/>
<polygon fill="black" stroke="black" stroke-width="0.3" points="191.6,-78.5 200.74,-73.14 190.25,-71.63 191.6,-78.5"/>
<text text-anchor="middle" x="130.01" y="-95.3" font-family="Helvetica,sans-Serif" font-size="14.00">Based&#45;on</text>
</g>
<!-- infrastructure -->
<g id="node2" class="node">
<title>infrastructure</title>
<polygon fill="none" stroke="black" stroke-width="0" points="59,-59 0,-59 0,0 59,0 59,-59"/>
<image xlink:href="/cti-documentation/img/icons/infrastructure.png" width="59px" height="59px" preserveAspectRatio="xMinYMin meet" x="0" y="-59"/>
</g>
<!-- infrastructure&#45;&gt;observed_data -->
<g id="edge2" class="edge">
<title>infrastructure&#45;&gt;observed_data</title>
<path fill="none" stroke="black" stroke-width="0.3" d="M59.01,-34.94C93.65,-41.56 152.22,-52.74 190.88,-60.12"/>
<polygon fill="black" stroke="black" stroke-width="0.3" points="190.26,-63.57 200.74,-62 191.57,-56.69 190.26,-63.57"/>
<text text-anchor="middle" x="130.01" y="-56.3" font-family="Helvetica,sans-Serif" font-size="14.00">Consists&#45;of</text>
</g>
</g>
</svg>
