<?xml version="1.0" encoding="UTF-8" standalone="no"?>
<!DOCTYPE svg PUBLIC "-//W3C//DTD SVG 1.1//EN"
 "http://www.w3.org/Graphics/SVG/1.1/DTD/svg11.dtd">
<!-- Generated by graphviz version 2.36.0 (20140111.2315)
 -->
<!-- Title: STIX Pages: 1 -->
<svg width="1478pt" height="930pt"
 viewBox="0.00 0.00 1478.00 929.71" xmlns="http://www.w3.org/2000/svg" xmlns:xlink="http://www.w3.org/1999/xlink">
<g id="graph0" class="graph" transform="scale(1 1) rotate(0) translate(4 925.712)">
<title>STIX</title>
<polygon fill="white" stroke="none" points="-4,4 -4,-925.712 1474,-925.712 1474,4 -4,4"/>
<g id="clust1" class="cluster"><title>cluster_01</title>
<polygon fill="none" stroke="black" points="8,-718.712 8,-913.712 345,-913.712 345,-718.712 8,-718.712"/>
<text text-anchor="middle" x="176.5" y="-898.512" font-family="Times,serif" font-size="14.00">Legend</text>
</g>
<!-- attack_pattern -->
<g id="node1" class="node"><title>attack_pattern</title>
<polygon fill="none" stroke="black" stroke-width="0" points="791.5,-480.212 732.5,-480.212 732.5,-421.212 791.5,-421.212 791.5,-480.212"/>
<image xlink:href="/cti-documentation/img/icons/attack_pattern.png" width="44.25px" height="44.25px" preserveAspectRatio="xMinYMin meet" x="739.875" y="-472.837"/>
</g>
<!-- identity -->
<g id="node4" class="node"><title>identity</title>
<polygon fill="none" stroke="black" stroke-width="0" points="1469.5,-118.212 1410.5,-118.212 1410.5,-59.2124 1469.5,-59.2124 1469.5,-118.212"/>
<image xlink:href="/cti-documentation/img/icons/identity.png" width="44.25px" height="44.25px" preserveAspectRatio="xMinYMin meet" x="1417.88" y="-110.837"/>
</g>
<!-- attack_pattern&#45;&gt;identity -->
<g id="edge1" class="edge"><title>attack_pattern&#45;&gt;identity</title>
<path fill="none" stroke="#ff2216" d="M791.715,-442.019C839.778,-427.005 939.018,-394.019 1018,-354.712 1167.13,-280.497 1330.25,-167.324 1401.83,-115.87"/>
<polygon fill="#ff2216" stroke="#ff2216" points="1404.04,-118.596 1410.1,-109.908 1399.94,-112.918 1404.04,-118.596"/>
</g>
<!-- malware -->
<g id="node7" class="node"><title>malware</title>
<polygon fill="none" stroke="black" stroke-width="0" points="1017.5,-328.212 958.5,-328.212 958.5,-269.212 1017.5,-269.212 1017.5,-328.212"/>
<image xlink:href="/cti-documentation/img/icons/malware.png" width="44.25px" height="44.25px" preserveAspectRatio="xMinYMin meet" x="965.875" y="-320.837"/>
</g>
<!-- attack_pattern&#45;&gt;malware -->
<g id="edge3" class="edge"><title>attack_pattern&#45;&gt;malware</title>
<path fill="none" stroke="#3a5459" d="M791.826,-431.152C832.148,-403.79 905.422,-354.069 949.811,-323.948"/>
<polygon fill="#3a5459" stroke="#3a5459" points="951.976,-326.709 958.285,-318.197 948.045,-320.916 951.976,-326.709"/>
</g>
<!-- tool -->
<g id="node11" class="node"><title>tool</title>
<polygon fill="none" stroke="black" stroke-width="0" points="1243.5,-500.212 1184.5,-500.212 1184.5,-441.212 1243.5,-441.212 1243.5,-500.212"/>
<image xlink:href="/cti-documentation/img/icons/tool.png" width="44.25px" height="44.25px" preserveAspectRatio="xMinYMin meet" x="1191.88" y="-492.837"/>
</g>
<!-- attack_pattern&#45;&gt;tool -->
<g id="edge4" class="edge"><title>attack_pattern&#45;&gt;tool</title>
<path fill="none" stroke="#3a5459" d="M791.834,-451.994C869.938,-455.465 1085.66,-465.053 1174.25,-468.99"/>
<polygon fill="#3a5459" stroke="#3a5459" points="1174.26,-472.494 1184.41,-469.442 1174.57,-465.501 1174.26,-472.494"/>
</g>
<!-- vulnerability -->
<g id="node12" class="node"><title>vulnerability</title>
<polygon fill="none" stroke="black" stroke-width="0" points="1469.5,-500.212 1410.5,-500.212 1410.5,-441.212 1469.5,-441.212 1469.5,-500.212"/>
<image xlink:href="/cti-documentation/img/icons/vulnerability.png" width="44.25px" height="44.25px" preserveAspectRatio="xMinYMin meet" x="1417.88" y="-492.837"/>
</g>
<!-- attack_pattern&#45;&gt;vulnerability -->
<g id="edge2" class="edge"><title>attack_pattern&#45;&gt;vulnerability</title>
<path fill="none" stroke="#ff2216" d="M791.683,-458.532C866.173,-477.89 1071.95,-525.32 1244,-508.712 1298.84,-503.419 1361.16,-489.938 1400.27,-480.547"/>
<polygon fill="#ff2216" stroke="#ff2216" points="1401.29,-483.901 1410.18,-478.136 1399.64,-477.1 1401.29,-483.901"/>
</g>
<!-- campaign -->
<g id="node2" class="node"><title>campaign</title>
<polygon fill="none" stroke="black" stroke-width="0" points="565.5,-346.212 506.5,-346.212 506.5,-287.212 565.5,-287.212 565.5,-346.212"/>
<image xlink:href="/cti-documentation/img/icons/campaign.png" width="44.25px" height="44.25px" preserveAspectRatio="xMinYMin meet" x="513.875" y="-338.837"/>
</g>
<!-- campaign&#45;&gt;attack_pattern -->
<g id="edge7" class="edge"><title>campaign&#45;&gt;attack_pattern</title>
<path fill="none" stroke="#3a5459" d="M565.826,-333.956C606.064,-358.028 679.117,-401.729 723.533,-428.299"/>
<polygon fill="#3a5459" stroke="#3a5459" points="721.907,-431.405 732.285,-433.535 725.5,-425.397 721.907,-431.405"/>
</g>
<!-- campaign&#45;&gt;identity -->
<g id="edge5" class="edge"><title>campaign&#45;&gt;identity</title>
<path fill="none" stroke="#ff2216" d="M565.656,-306.713C603.595,-293.543 672.631,-269.818 732,-250.712 931.945,-186.369 977.941,-153.428 1184,-112.712 1259.75,-97.7445 1350.06,-92.0398 1400.33,-89.9185"/>
<polygon fill="#ff2216" stroke="#ff2216" points="1400.58,-93.4116 1410.43,-89.5182 1400.3,-86.4171 1400.58,-93.4116"/>
</g>
<!-- campaign&#45;&gt;malware -->
<g id="edge8" class="edge"><title>campaign&#45;&gt;malware</title>
<path fill="none" stroke="#3a5459" d="M565.834,-315.559C643.938,-312.435 859.656,-303.806 948.25,-300.262"/>
<polygon fill="#3a5459" stroke="#3a5459" points="948.554,-303.753 958.406,-299.856 948.274,-296.759 948.554,-303.753"/>
</g>
<!-- campaign&#45;&gt;tool -->
<g id="edge9" class="edge"><title>campaign&#45;&gt;tool</title>
<path fill="none" stroke="#3a5459" d="M565.615,-323.231C672.934,-347.68 1051.61,-433.947 1174.31,-461.899"/>
<polygon fill="#3a5459" stroke="#3a5459" points="1173.85,-465.383 1184.38,-464.192 1175.41,-458.558 1173.85,-465.383"/>
</g>
<!-- campaign&#45;&gt;vulnerability -->
<g id="edge6" class="edge"><title>campaign&#45;&gt;vulnerability</title>
<path fill="none" stroke="#ff2216" d="M565.569,-306.552C640.63,-281.308 849.266,-220.512 1018,-259.712 1170.74,-295.197 1330.92,-395.947 1401.66,-444.251"/>
<polygon fill="#ff2216" stroke="#ff2216" points="1400.02,-447.368 1410.24,-450.151 1403.99,-441.6 1400.02,-447.368"/>
</g>
<!-- course_of_action -->
<g id="node3" class="node"><title>course_of_action</title>
<polygon fill="none" stroke="black" stroke-width="0" points="565.5,-557.212 506.5,-557.212 506.5,-498.212 565.5,-498.212 565.5,-557.212"/>
<image xlink:href="/cti-documentation/img/icons/course_of_action.png" width="44.25px" height="44.25px" preserveAspectRatio="xMinYMin meet" x="513.875" y="-549.837"/>
</g>
<!-- course_of_action&#45;&gt;attack_pattern -->
<g id="edge10" class="edge"><title>course_of_action&#45;&gt;attack_pattern</title>
<path fill="none" stroke="#00cc06" d="M565.826,-517.804C605.812,-504.058 678.203,-479.174 722.695,-463.88"/>
<polygon fill="#00cc06" stroke="#00cc06" points="723.966,-467.144 732.285,-460.583 721.69,-460.524 723.966,-467.144"/>
</g>
<!-- course_of_action&#45;&gt;malware -->
<g id="edge11" class="edge"><title>course_of_action&#45;&gt;malware</title>
<path fill="none" stroke="#00cc06" d="M565.857,-528.871C614.982,-529.668 716.834,-526.149 792,-488.712 863.944,-452.88 926.347,-380.823 960.142,-336.472"/>
<polygon fill="#00cc06" stroke="#00cc06" points="963.105,-338.356 966.315,-328.259 957.509,-334.15 963.105,-338.356"/>
</g>
<!-- course_of_action&#45;&gt;tool -->
<g id="edge12" class="edge"><title>course_of_action&#45;&gt;tool</title>
<path fill="none" stroke="#00cc06" d="M565.711,-526.576C612.949,-524.607 710.006,-520.147 792,-513.712 933.02,-502.646 1100.05,-483.903 1174.2,-475.29"/>
<polygon fill="#00cc06" stroke="#00cc06" points="1174.93,-478.73 1184.46,-474.095 1174.12,-471.777 1174.93,-478.73"/>
</g>
<!-- course_of_action&#45;&gt;vulnerability -->
<g id="edge13" class="edge"><title>course_of_action&#45;&gt;vulnerability</title>
<path fill="none" stroke="#00cc06" d="M565.828,-530.404C662.39,-538.821 983.049,-561.942 1244,-524.712 1299.55,-516.788 1361.69,-497.73 1400.58,-484.517"/>
<polygon fill="#00cc06" stroke="#00cc06" points="1402.11,-487.692 1410.42,-481.127 1399.83,-481.073 1402.11,-487.692"/>
</g>
<!-- indicator -->
<g id="node5" class="node"><title>indicator</title>
<polygon fill="none" stroke="black" stroke-width="0" points="94.5,-372.212 35.5,-372.212 35.5,-313.212 94.5,-313.212 94.5,-372.212"/>
<image xlink:href="/cti-documentation/img/icons/indicator.png" width="44.25px" height="44.25px" preserveAspectRatio="xMinYMin meet" x="42.875" y="-364.837"/>
</g>
<!-- indicator&#45;&gt;attack_pattern -->
<g id="edge14" class="edge"><title>indicator&#45;&gt;attack_pattern</title>
<path fill="none" stroke="#2216ff" d="M94.8338,-354.582C135.395,-370.711 211.964,-399.099 280,-412.712 442.101,-445.148 640.125,-450.157 722.353,-450.75"/>
<polygon fill="#2216ff" stroke="#2216ff" points="722.467,-454.251 732.485,-450.804 722.504,-447.251 722.467,-454.251"/>
</g>
<!-- indicator&#45;&gt;campaign -->
<g id="edge15" class="edge"><title>indicator&#45;&gt;campaign</title>
<path fill="none" stroke="#2216ff" d="M94.6321,-341.125C175.268,-336.655 404.343,-323.956 496.198,-318.863"/>
<polygon fill="#2216ff" stroke="#2216ff" points="496.654,-322.344 506.445,-318.295 496.267,-315.354 496.654,-322.344"/>
</g>
<!-- intrusion_set -->
<g id="node6" class="node"><title>intrusion_set</title>
<polygon fill="none" stroke="black" stroke-width="0" points="339.5,-404.212 280.5,-404.212 280.5,-345.212 339.5,-345.212 339.5,-404.212"/>
<image xlink:href="/cti-documentation/img/icons/intrusion_set.png" width="44.25px" height="44.25px" preserveAspectRatio="xMinYMin meet" x="287.875" y="-396.837"/>
</g>
<!-- indicator&#45;&gt;intrusion_set -->
<g id="edge16" class="edge"><title>indicator&#45;&gt;intrusion_set</title>
<path fill="none" stroke="#2216ff" d="M94.8295,-346.509C138.4,-352.247 221.115,-363.139 270.018,-369.579"/>
<polygon fill="#2216ff" stroke="#2216ff" points="269.837,-373.085 280.208,-370.921 270.751,-366.145 269.837,-373.085"/>
</g>
<!-- indicator&#45;&gt;malware -->
<g id="edge17" class="edge"><title>indicator&#45;&gt;malware</title>
<path fill="none" stroke="#2216ff" d="M94.6669,-336.985C164.597,-323.34 349.669,-289.197 506,-277.712 532.595,-275.759 539.342,-277.048 566,-277.712 706.853,-281.223 873.967,-291.331 948.172,-296.127"/>
<polygon fill="#2216ff" stroke="#2216ff" points="948.226,-299.638 958.432,-296.795 948.681,-292.653 948.226,-299.638"/>
</g>
<!-- threat_actor -->
<g id="node10" class="node"><title>threat_actor</title>
<polygon fill="none" stroke="black" stroke-width="0" points="565.5,-98.2124 506.5,-98.2124 506.5,-39.2124 565.5,-39.2124 565.5,-98.2124"/>
<image xlink:href="/cti-documentation/img/icons/threat_actor.png" width="44.25px" height="44.25px" preserveAspectRatio="xMinYMin meet" x="513.875" y="-90.8374"/>
</g>
<!-- indicator&#45;&gt;threat_actor -->
<g id="edge18" class="edge"><title>indicator&#45;&gt;threat_actor</title>
<path fill="none" stroke="#2216ff" d="M94.6321,-325.985C175.677,-278.637 406.673,-143.684 497.586,-90.5704"/>
<polygon fill="#2216ff" stroke="#2216ff" points="499.577,-93.4611 506.445,-85.3946 496.045,-87.417 499.577,-93.4611"/>
</g>
<!-- indicator&#45;&gt;tool -->
<g id="edge19" class="edge"><title>indicator&#45;&gt;tool</title>
<path fill="none" stroke="#2216ff" d="M84.5864,-372.148C140.985,-457.441 319.563,-698.712 535,-698.712 535,-698.712 535,-698.712 763,-698.712 933.271,-698.712 1104.46,-567.214 1176.97,-503.947"/>
<polygon fill="#2216ff" stroke="#2216ff" points="1179.31,-506.551 1184.49,-497.313 1174.68,-501.299 1179.31,-506.551"/>
</g>
<!-- intrusion_set&#45;&gt;attack_pattern -->
<g id="edge23" class="edge"><title>intrusion_set&#45;&gt;attack_pattern</title>
<path fill="none" stroke="#3a5459" d="M339.834,-379.582C418.018,-392.786 634.094,-429.279 722.52,-444.213"/>
<polygon fill="#3a5459" stroke="#3a5459" points="721.963,-447.669 732.406,-445.883 723.129,-440.767 721.963,-447.669"/>
</g>
<!-- intrusion_set&#45;&gt;identity -->
<g id="edge21" class="edge"><title>intrusion_set&#45;&gt;identity</title>
<path fill="none" stroke="#ff2216" d="M339.56,-345.29C406.546,-279.597 581.701,-126.712 761,-126.712 761,-126.712 761,-126.712 989,-126.712 1102.5,-126.712 1130.94,-122.762 1244,-112.712 1298.42,-107.875 1361.09,-99.6944 1400.37,-94.2487"/>
<polygon fill="#ff2216" stroke="#ff2216" points="1400.9,-97.7088 1410.32,-92.8586 1399.93,-90.7762 1400.9,-97.7088"/>
</g>
<!-- intrusion_set&#45;&gt;malware -->
<g id="edge24" class="edge"><title>intrusion_set&#45;&gt;malware</title>
<path fill="none" stroke="#3a5459" d="M339.728,-372.966C386.991,-369.98 484.081,-363.367 566,-354.712 707.175,-339.798 874.127,-315.642 948.232,-304.582"/>
<polygon fill="#3a5459" stroke="#3a5459" points="949.106,-307.99 958.477,-303.048 948.069,-301.067 949.106,-307.99"/>
</g>
<!-- intrusion_set&#45;&gt;threat_actor -->
<g id="edge20" class="edge"><title>intrusion_set&#45;&gt;threat_actor</title>
<path fill="none" stroke="#ba3aff" d="M332.478,-345.372C373.37,-289.51 462.348,-167.96 507.514,-106.26"/>
<polygon fill="#ba3aff" stroke="#ba3aff" points="510.504,-108.101 513.587,-97.9641 504.856,-103.966 510.504,-108.101"/>
</g>
<!-- intrusion_set&#45;&gt;tool -->
<g id="edge25" class="edge"><title>intrusion_set&#45;&gt;tool</title>
<path fill="none" stroke="#3a5459" d="M329.689,-404.086C360.208,-448.965 425.49,-532.852 506,-565.712 746.138,-663.726 1066.54,-537.793 1175.16,-488.731"/>
<polygon fill="#3a5459" stroke="#3a5459" points="1176.77,-491.845 1184.41,-484.507 1173.86,-485.478 1176.77,-491.845"/>
</g>
<!-- intrusion_set&#45;&gt;vulnerability -->
<g id="edge22" class="edge"><title>intrusion_set&#45;&gt;vulnerability</title>
<path fill="none" stroke="#ff2216" d="M329.675,-404.06C360.647,-450.327 427.11,-539.963 506,-588.712 606.181,-650.618 643.236,-660.712 761,-660.712 761,-660.712 761,-660.712 989,-660.712 1153.61,-660.712 1327.31,-551.476 1401.68,-498.658"/>
<polygon fill="#ff2216" stroke="#ff2216" points="1404.16,-501.182 1410.25,-492.508 1400.08,-495.495 1404.16,-501.182"/>
</g>
<!-- malware&#45;&gt;identity -->
<g id="edge26" class="edge"><title>malware&#45;&gt;identity</title>
<path fill="none" stroke="#ff2216" d="M1017.83,-285.256C1096.26,-248.66 1313.41,-147.32 1401.32,-106.295"/>
<polygon fill="#ff2216" stroke="#ff2216" points="1402.82,-109.457 1410.41,-102.056 1399.86,-103.113 1402.82,-109.457"/>
</g>
<!-- malware&#45;&gt;malware -->
<g id="edge29" class="edge"><title>malware&#45;&gt;malware</title>
<path fill="none" stroke="#844a07" d="M958.298,-311.227C934.4,-326.969 944.301,-345.712 988,-345.712 1025.9,-345.712 1038.37,-331.617 1025.44,-317.607"/>
<polygon fill="#844a07" stroke="#844a07" points="1027.64,-314.891 1017.7,-311.227 1023.19,-320.29 1027.64,-314.891"/>
</g>
<!-- malware&#45;&gt;tool -->
<g id="edge28" class="edge"><title>malware&#45;&gt;tool</title>
<path fill="none" stroke="#3a5459" d="M1017.83,-320.846C1058.23,-351.873 1131.73,-408.307 1176.09,-442.369"/>
<polygon fill="#3a5459" stroke="#3a5459" points="1174.22,-445.349 1184.29,-448.663 1178.49,-439.797 1174.22,-445.349"/>
</g>
<!-- malware&#45;&gt;vulnerability -->
<g id="edge27" class="edge"><title>malware&#45;&gt;vulnerability</title>
<path fill="none" stroke="#ff2216" d="M1017.83,-309.733C1096.18,-339.678 1312.97,-422.542 1401.06,-456.21"/>
<polygon fill="#ff2216" stroke="#ff2216" points="1399.82,-459.482 1410.41,-459.783 1402.31,-452.943 1399.82,-459.482"/>
</g>
<!-- observed_data -->
<g id="node8" class="node"><title>observed_data</title>
<polygon fill="none" stroke="black" stroke-width="0" points="94.5,-553.212 35.5,-553.212 35.5,-494.212 94.5,-494.212 94.5,-553.212"/>
<image xlink:href="/cti-documentation/img/icons/observed_data.png" width="44.25px" height="44.25px" preserveAspectRatio="xMinYMin meet" x="42.875" y="-545.837"/>
</g>
<!-- report -->
<g id="node9" class="node"><title>report</title>
<polygon fill="none" stroke="black" stroke-width="0" points="94.5,-682.212 35.5,-682.212 35.5,-623.212 94.5,-623.212 94.5,-682.212"/>
<image xlink:href="/cti-documentation/img/icons/report.png" width="44.25px" height="44.25px" preserveAspectRatio="xMinYMin meet" x="42.875" y="-674.837"/>
</g>
<!-- threat_actor&#45;&gt;attack_pattern -->
<g id="edge34" class="edge"><title>threat_actor&#45;&gt;attack_pattern</title>
<path fill="none" stroke="#3a5459" d="M554.205,-98.053C594.272,-166.381 693.791,-336.098 738.556,-412.438"/>
<polygon fill="#3a5459" stroke="#3a5459" points="735.659,-414.416 743.736,-421.272 741.697,-410.875 735.659,-414.416"/>
</g>
<!-- threat_actor&#45;&gt;identity -->
<g id="edge30" class="edge"><title>threat_actor&#45;&gt;identity</title>
<path fill="none" stroke="#ba3aff" d="M565.565,-50.2271C603.405,-36.6772 672.332,-23.5757 732,-18.7124 958.803,-0.226485 1018.37,10.8546 1244,-18.7124 1299.73,-26.0148 1362.18,-44.5818 1401.05,-61.858"/>
<polygon fill="#ba3aff" stroke="#ba3aff" points="1399.86,-65.166 1410.4,-66.2148 1402.81,-58.8203 1399.86,-65.166"/>
</g>
<!-- threat_actor&#45;&gt;identity -->
<g id="edge31" class="edge"><title>threat_actor&#45;&gt;identity</title>
<path fill="none" stroke="#ffba3a" d="M565.565,-62.5263C603.405,-54.6772 672.332,-41.5757 732,-36.7124 958.803,-18.2265 1018.37,-7.14544 1244,-36.7124 1299.49,-43.9839 1361.65,-62.4247 1400.55,-75.2663"/>
<polygon fill="#ffba3a" stroke="#ffba3a" points="1399.81,-78.7084 1410.4,-78.5628 1402.03,-72.0702 1399.81,-78.7084"/>
</g>
<!-- threat_actor&#45;&gt;identity -->
<g id="edge32" class="edge"><title>threat_actor&#45;&gt;identity</title>
<path fill="none" stroke="#ff2216" d="M565.565,-74.8255C603.405,-72.6772 672.332,-59.5757 732,-54.7124 958.803,-36.2265 1018.37,-25.1454 1244,-54.7124 1299.49,-61.9839 1361.65,-80.4247 1400.55,-88.8942"/>
<polygon fill="#ff2216" stroke="#ff2216" points="1399.9,-92.3341 1410.4,-90.9108 1401.31,-85.4763 1399.9,-92.3341"/>
</g>
<!-- threat_actor&#45;&gt;malware -->
<g id="edge35" class="edge"><title>threat_actor&#45;&gt;malware</title>
<path fill="none" stroke="#3a5459" d="M565.708,-85.7879C603.419,-108.014 671.909,-147.678 732,-178.712 807.963,-217.944 899.031,-259.527 949.192,-281.974"/>
<polygon fill="#3a5459" stroke="#3a5459" points="947.808,-285.189 958.366,-286.069 950.662,-278.797 947.808,-285.189"/>
</g>
<!-- threat_actor&#45;&gt;tool -->
<g id="edge36" class="edge"><title>threat_actor&#45;&gt;tool</title>
<path fill="none" stroke="#3a5459" d="M565.698,-75.3228C643.741,-94.2591 864.272,-154.228 1018,-259.712 1088.66,-308.199 1152.31,-386.64 1186.53,-432.99"/>
<polygon fill="#3a5459" stroke="#3a5459" points="1183.84,-435.249 1192.57,-441.257 1189.49,-431.119 1183.84,-435.249"/>
</g>
<!-- threat_actor&#45;&gt;vulnerability -->
<g id="edge33" class="edge"><title>threat_actor&#45;&gt;vulnerability</title>
<path fill="none" stroke="#ff2216" d="M565.851,-71.2901C613.696,-76.0937 712.108,-88.2252 792,-112.712 1002.73,-177.3 1055.67,-202.225 1244,-316.712 1303.19,-352.695 1364.85,-404.129 1402.59,-437.472"/>
<polygon fill="#ff2216" stroke="#ff2216" points="1400.47,-440.272 1410.27,-444.301 1405.12,-435.041 1400.47,-440.272"/>
</g>
<!-- tool&#45;&gt;identity -->
<g id="edge37" class="edge"><title>tool&#45;&gt;identity</title>
<path fill="none" stroke="#ff2216" d="M1232.2,-441.372C1272.27,-373.044 1371.79,-203.327 1416.56,-126.987"/>
<polygon fill="#ff2216" stroke="#ff2216" points="1419.7,-128.55 1421.74,-118.153 1413.66,-125.009 1419.7,-128.55"/>
</g>
<!-- tool&#45;&gt;vulnerability -->
<g id="edge38" class="edge"><title>tool&#45;&gt;vulnerability</title>
<path fill="none" stroke="#ff2216" d="M1243.83,-470.712C1283.64,-470.712 1355.6,-470.712 1400.13,-470.712"/>
<polygon fill="#ff2216" stroke="#ff2216" points="1400.29,-474.212 1410.29,-470.712 1400.29,-467.212 1400.29,-474.212"/>
</g>
<!-- key -->
<g id="node13" class="node"><title>key</title>
<text text-anchor="start" x="61" y="-864.012" font-family="Times,serif" font-size="14.00">Targets</text>
<text text-anchor="start" x="75" y="-842.512" font-family="Times,serif" font-size="14.00">Uses</text>
<text text-anchor="start" x="52" y="-821.512" font-family="Times,serif" font-size="14.00">Indicates</text>
<text text-anchor="start" x="50" y="-800.512" font-family="Times,serif" font-size="14.00">Mitigates</text>
<text text-anchor="start" x="29" y="-779.512" font-family="Times,serif" font-size="14.00">Attributed&#45;to</text>
<text text-anchor="start" x="44" y="-758.512" font-family="Times,serif" font-size="14.00">Variant&#45;of</text>
<text text-anchor="start" x="28" y="-737.512" font-family="Times,serif" font-size="14.00">Impersonates</text>
</g>
<!-- key2 -->
<g id="node14" class="node"><title>key2</title>
<text text-anchor="start" x="308.5" y="-864.012" font-family="Times,serif" font-size="14.00"> </text>
<text text-anchor="start" x="308.5" y="-842.512" font-family="Times,serif" font-size="14.00"> </text>
<text text-anchor="start" x="308.5" y="-821.512" font-family="Times,serif" font-size="14.00"> </text>
<text text-anchor="start" x="308.5" y="-800.512" font-family="Times,serif" font-size="14.00"> </text>
<text text-anchor="start" x="308.5" y="-779.512" font-family="Times,serif" font-size="14.00"> </text>
<text text-anchor="start" x="308.5" y="-758.512" font-family="Times,serif" font-size="14.00"> </text>
<text text-anchor="start" x="308.5" y="-737.512" font-family="Times,serif" font-size="14.00"> </text>
</g>
<!-- key&#45;&gt;key2 -->
<g id="edge39" class="edge"><title>key:i1:e&#45;&gt;key2:i1:w</title>
<path fill="none" stroke="#ff2216" d="M107,-867.712C190.964,-867.712 214.538,-867.712 293.549,-867.712"/>
<polygon fill="#ff2216" stroke="#ff2216" points="294,-871.212 304,-867.712 294,-864.212 294,-871.212"/>
</g>
<!-- key&#45;&gt;key2 -->
<g id="edge40" class="edge"><title>key:i2:e&#45;&gt;key2:i2:w</title>
<path fill="none" stroke="#3a5459" d="M107,-846.712C190.964,-846.712 214.538,-846.712 293.549,-846.712"/>
<polygon fill="#3a5459" stroke="#3a5459" points="294,-850.212 304,-846.712 294,-843.212 294,-850.212"/>
</g>
<!-- key&#45;&gt;key2 -->
<g id="edge41" class="edge"><title>key:i3:e&#45;&gt;key2:i3:w</title>
<path fill="none" stroke="#2216ff" d="M107,-825.712C190.964,-825.712 214.538,-825.712 293.549,-825.712"/>
<polygon fill="#2216ff" stroke="#2216ff" points="294,-829.212 304,-825.712 294,-822.212 294,-829.212"/>
</g>
<!-- key&#45;&gt;key2 -->
<g id="edge42" class="edge"><title>key:i4:e&#45;&gt;key2:i4:w</title>
<path fill="none" stroke="#00cc06" d="M107,-803.712C190.964,-803.712 214.538,-803.712 293.549,-803.712"/>
<polygon fill="#00cc06" stroke="#00cc06" points="294,-807.212 304,-803.712 294,-800.212 294,-807.212"/>
</g>
<!-- key&#45;&gt;key2 -->
<g id="edge43" class="edge"><title>key:i5:e&#45;&gt;key2:i5:w</title>
<path fill="none" stroke="#ba3aff" d="M107,-782.712C190.964,-782.712 214.538,-782.712 293.549,-782.712"/>
<polygon fill="#ba3aff" stroke="#ba3aff" points="294,-786.212 304,-782.712 294,-779.212 294,-786.212"/>
</g>
<!-- key&#45;&gt;key2 -->
<g id="edge44" class="edge"><title>key:i6:e&#45;&gt;key2:i6:w</title>
<path fill="none" stroke="#844a07" d="M107,-761.712C190.964,-761.712 214.538,-761.712 293.549,-761.712"/>
<polygon fill="#844a07" stroke="#844a07" points="294,-765.212 304,-761.712 294,-758.212 294,-765.212"/>
</g>
<!-- key&#45;&gt;key2 -->
<g id="edge45" class="edge"><title>key:i7:e&#45;&gt;key2:i7:w</title>
<path fill="none" stroke="#ffba3a" d="M107,-740.712C190.964,-740.712 214.538,-740.712 293.549,-740.712"/>
<polygon fill="#ffba3a" stroke="#ffba3a" points="294,-744.212 304,-740.712 294,-737.212 294,-744.212"/>
</g>
</g>
</svg>
