<?xml version="1.0" encoding="UTF-8" standalone="no"?>
<!DOCTYPE svg PUBLIC "-//W3C//DTD SVG 1.1//EN"
 "http://www.w3.org/Graphics/SVG/1.1/DTD/svg11.dtd">
<!-- Generated by graphviz version 2.36.0 (20140111.2315)
 -->
<!-- Title: STIX Pages: 1 -->
<svg width="1798pt" height="859pt"
 viewBox="0.00 0.00 1798.00 859.00" xmlns="http://www.w3.org/2000/svg" xmlns:xlink="http://www.w3.org/1999/xlink">
<g id="graph0" class="graph" transform="scale(1 1) rotate(0) translate(4 855)">
<title>STIX</title>
<polygon fill="white" stroke="none" points="-4,4 -4,-855 1794,-855 1794,4 -4,4"/>
<!-- attack_pattern -->
<g id="node1" class="node"><title>attack_pattern</title>
<polygon fill="none" stroke="black" stroke-width="0" points="931.5,-477.5 872.5,-477.5 872.5,-418.5 931.5,-418.5 931.5,-477.5"/>
<image xlink:href="/cti-documentation/img/icons/attack_pattern.png" width="44.25px" height="44.25px" preserveAspectRatio="xMinYMin meet" x="879.875" y="-470.125"/>
</g>
<!-- identity -->
<g id="node4" class="node"><title>identity</title>
<polygon fill="none" stroke="black" stroke-width="0" points="1789.5,-203.5 1730.5,-203.5 1730.5,-144.5 1789.5,-144.5 1789.5,-203.5"/>
<image xlink:href="/cti-documentation/img/icons/identity.png" width="44.25px" height="44.25px" preserveAspectRatio="xMinYMin meet" x="1737.88" y="-196.125"/>
</g>
<!-- attack_pattern&#45;&gt;identity -->
<g id="edge1" class="edge"><title>attack_pattern&#45;&gt;identity</title>
<path fill="none" stroke="black" stroke-width="0.3" d="M931.564,-433.961C953.938,-423.281 986.02,-408.655 1015,-398 1289.7,-297.004 1368.27,-302.262 1647,-213 1671.66,-205.104 1699.11,-195.556 1720.67,-187.883"/>
<polygon fill="black" stroke="black" stroke-width="0.3" points="1721.89,-191.164 1730.13,-184.503 1719.53,-184.573 1721.89,-191.164"/>
<text text-anchor="middle" x="1349" y="-306.8" font-family="Helvetica,sans-Serif" font-size="14.00">Targets</text>
</g>
<!-- malware -->
<g id="node7" class="node"><title>malware</title>
<polygon fill="none" stroke="black" stroke-width="0" points="1228.5,-570.5 1169.5,-570.5 1169.5,-511.5 1228.5,-511.5 1228.5,-570.5"/>
<image xlink:href="/cti-documentation/img/icons/malware.png" width="44.25px" height="44.25px" preserveAspectRatio="xMinYMin meet" x="1176.88" y="-563.125"/>
</g>
<!-- attack_pattern&#45;&gt;malware -->
<g id="edge3" class="edge"><title>attack_pattern&#45;&gt;malware</title>
<path fill="none" stroke="black" stroke-width="0.3" d="M931.667,-449.415C966.031,-451.782 1024.99,-457.989 1073,-474 1104.07,-484.361 1136.59,-502.042 1160.68,-516.639"/>
<polygon fill="black" stroke="black" stroke-width="0.3" points="1159.13,-519.794 1169.48,-522.062 1162.8,-513.835 1159.13,-519.794"/>
<text text-anchor="middle" x="1044" y="-477.8" font-family="Helvetica,sans-Serif" font-size="14.00">Uses</text>
</g>
<!-- tool -->
<g id="node11" class="node"><title>tool</title>
<polygon fill="none" stroke="black" stroke-width="0" points="1515.5,-423.5 1456.5,-423.5 1456.5,-364.5 1515.5,-364.5 1515.5,-423.5"/>
<image xlink:href="/cti-documentation/img/icons/tool.png" width="44.25px" height="44.25px" preserveAspectRatio="xMinYMin meet" x="1463.88" y="-416.125"/>
</g>
<!-- attack_pattern&#45;&gt;tool -->
<g id="edge4" class="edge"><title>attack_pattern&#45;&gt;tool</title>
<path fill="none" stroke="black" stroke-width="0.3" d="M931.649,-445.957C1005.09,-440.636 1206.04,-425.533 1373,-408 1397.45,-405.432 1424.84,-402.019 1446.41,-399.205"/>
<polygon fill="black" stroke="black" stroke-width="0.3" points="1447.04,-402.653 1456.49,-397.878 1446.12,-395.713 1447.04,-402.653"/>
<text text-anchor="middle" x="1199" y="-432.8" font-family="Helvetica,sans-Serif" font-size="14.00">Uses</text>
</g>
<!-- vulnerability -->
<g id="node12" class="node"><title>vulnerability</title>
<polygon fill="none" stroke="black" stroke-width="0" points="1789.5,-707.5 1730.5,-707.5 1730.5,-648.5 1789.5,-648.5 1789.5,-707.5"/>
<image xlink:href="/cti-documentation/img/icons/vulnerability.png" width="44.25px" height="44.25px" preserveAspectRatio="xMinYMin meet" x="1737.88" y="-700.125"/>
</g>
<!-- attack_pattern&#45;&gt;vulnerability -->
<g id="edge2" class="edge"><title>attack_pattern&#45;&gt;vulnerability</title>
<path fill="none" stroke="black" stroke-width="0.3" d="M931.501,-473.764C975.779,-511.986 1065.45,-582.382 1156,-612 1260.28,-646.112 1538,-651.417 1647,-664 1671.42,-666.82 1698.81,-670.238 1720.39,-672.992"/>
<polygon fill="black" stroke="black" stroke-width="0.3" points="1720.11,-676.485 1730.48,-674.284 1721,-669.542 1720.11,-676.485"/>
<text text-anchor="middle" x="1349" y="-647.8" font-family="Helvetica,sans-Serif" font-size="14.00">Targets</text>
</g>
<!-- campaign -->
<g id="node2" class="node"><title>campaign</title>
<polygon fill="none" stroke="black" stroke-width="0" points="647.5,-455.5 588.5,-455.5 588.5,-396.5 647.5,-396.5 647.5,-455.5"/>
<image xlink:href="/cti-documentation/img/icons/campaign.png" width="44.25px" height="44.25px" preserveAspectRatio="xMinYMin meet" x="595.875" y="-448.125"/>
</g>
<!-- campaign&#45;&gt;attack_pattern -->
<g id="edge7" class="edge"><title>campaign&#45;&gt;attack_pattern</title>
<path fill="none" stroke="black" stroke-width="0.3" d="M647.592,-428.231C698.474,-432.2 804.777,-440.493 862.203,-444.973"/>
<polygon fill="black" stroke="black" stroke-width="0.3" points="862.091,-448.475 872.333,-445.764 862.635,-441.496 862.091,-448.475"/>
<text text-anchor="middle" x="760" y="-442.8" font-family="Helvetica,sans-Serif" font-size="14.00">Uses</text>
</g>
<!-- campaign&#45;&gt;identity -->
<g id="edge5" class="edge"><title>campaign&#45;&gt;identity</title>
<path fill="none" stroke="black" stroke-width="0.3" d="M647.548,-418.29C681.795,-408.657 740.643,-390.875 789,-370 827.525,-353.369 833.893,-342.569 872,-325 933.839,-296.49 948.985,-286.698 1015,-270 1279.2,-203.172 1608.57,-181.453 1720.06,-175.749"/>
<polygon fill="black" stroke="black" stroke-width="0.3" points="1720.35,-179.239 1730.16,-175.246 1720,-172.248 1720.35,-179.239"/>
<text text-anchor="middle" x="1199" y="-243.8" font-family="Helvetica,sans-Serif" font-size="14.00">Targets</text>
</g>
<!-- campaign&#45;&gt;malware -->
<g id="edge8" class="edge"><title>campaign&#45;&gt;malware</title>
<path fill="none" stroke="black" stroke-width="0.3" d="M647.92,-434.606C670.484,-441.238 702.65,-450.509 731,-458 856.584,-491.182 886.71,-506.646 1015,-527 1064.27,-534.816 1121.71,-538.308 1158.91,-539.842"/>
<polygon fill="black" stroke="black" stroke-width="0.3" points="1159.18,-543.355 1169.3,-540.241 1159.45,-536.36 1159.18,-543.355"/>
<text text-anchor="middle" x="902" y="-515.8" font-family="Helvetica,sans-Serif" font-size="14.00">Uses</text>
</g>
<!-- campaign&#45;&gt;tool -->
<g id="edge9" class="edge"><title>campaign&#45;&gt;tool</title>
<path fill="none" stroke="black" stroke-width="0.3" d="M647.814,-423.662C694.748,-419.945 790.643,-412.727 872,-409 1088.79,-399.069 1349.03,-395.442 1446.05,-394.377"/>
<polygon fill="black" stroke="black" stroke-width="0.3" points="1446.3,-397.875 1456.26,-394.268 1446.22,-390.875 1446.3,-397.875"/>
<text text-anchor="middle" x="1044" y="-407.8" font-family="Helvetica,sans-Serif" font-size="14.00">Uses</text>
</g>
<!-- campaign&#45;&gt;vulnerability -->
<g id="edge6" class="edge"><title>campaign&#45;&gt;vulnerability</title>
<path fill="none" stroke="black" stroke-width="0.3" d="M647.593,-451.102C681.634,-481.132 740.038,-533.111 789,-579 826.608,-614.248 826.684,-635.439 872,-660 1163.04,-817.745 1590.61,-723.302 1720.31,-688.939"/>
<polygon fill="black" stroke="black" stroke-width="0.3" points="1721.43,-692.261 1730.18,-686.286 1719.62,-685.501 1721.43,-692.261"/>
<text text-anchor="middle" x="1199" y="-751.8" font-family="Helvetica,sans-Serif" font-size="14.00">Targets</text>
</g>
<!-- course_of_action -->
<g id="node3" class="node"><title>course_of_action</title>
<polygon fill="none" stroke="black" stroke-width="0" points="647.5,-676.5 588.5,-676.5 588.5,-617.5 647.5,-617.5 647.5,-676.5"/>
<image xlink:href="/cti-documentation/img/icons/course_of_action.png" width="44.25px" height="44.25px" preserveAspectRatio="xMinYMin meet" x="595.875" y="-669.125"/>
</g>
<!-- course_of_action&#45;&gt;attack_pattern -->
<g id="edge10" class="edge"><title>course_of_action&#45;&gt;attack_pattern</title>
<path fill="none" stroke="black" stroke-width="0.3" d="M647.593,-636.448C695.234,-618.837 785.974,-585.156 789,-583 808.688,-568.97 847.036,-520.415 873.325,-485.557"/>
<polygon fill="black" stroke="black" stroke-width="0.3" points="876.196,-487.561 879.399,-477.462 870.597,-483.36 876.196,-487.561"/>
<text text-anchor="middle" x="760" y="-608.8" font-family="Helvetica,sans-Serif" font-size="14.00">Mitigates</text>
</g>
<!-- course_of_action&#45;&gt;malware -->
<g id="edge11" class="edge"><title>course_of_action&#45;&gt;malware</title>
<path fill="none" stroke="black" stroke-width="0.3" d="M647.719,-648.964C681.635,-650.793 739.679,-652.377 789,-646 928.224,-627.998 1088.01,-578.177 1159.7,-554.212"/>
<polygon fill="black" stroke="black" stroke-width="0.3" points="1160.86,-557.515 1169.22,-551.008 1158.63,-550.881 1160.86,-557.515"/>
<text text-anchor="middle" x="902" y="-635.8" font-family="Helvetica,sans-Serif" font-size="14.00">Mitigates</text>
</g>
<!-- course_of_action&#45;&gt;tool -->
<g id="edge12" class="edge"><title>course_of_action&#45;&gt;tool</title>
<path fill="none" stroke="black" stroke-width="0.3" d="M647.548,-644.078C681.548,-640.267 739.911,-632.676 789,-621 805.924,-616.975 1303.22,-453.72 1446.63,-406.606"/>
<polygon fill="black" stroke="black" stroke-width="0.3" points="1447.93,-409.865 1456.34,-403.419 1445.75,-403.215 1447.93,-409.865"/>
<text text-anchor="middle" x="1044" y="-550.8" font-family="Helvetica,sans-Serif" font-size="14.00">Mitigates</text>
</g>
<!-- course_of_action&#45;&gt;vulnerability -->
<g id="edge13" class="edge"><title>course_of_action&#45;&gt;vulnerability</title>
<path fill="none" stroke="black" stroke-width="0.3" d="M646.213,-676.681C667.144,-697.251 697.994,-723.016 731,-735 922.342,-804.471 1450.76,-797.12 1647,-743 1674.05,-735.54 1701.34,-719.905 1722.22,-705.839"/>
<polygon fill="black" stroke="black" stroke-width="0.3" points="1724.22,-708.706 1730.46,-700.14 1720.24,-702.948 1724.22,-708.706"/>
<text text-anchor="middle" x="1199" y="-788.8" font-family="Helvetica,sans-Serif" font-size="14.00">Mitigates</text>
</g>
<!-- indicator -->
<g id="node5" class="node"><title>indicator</title>
<polygon fill="none" stroke="black" stroke-width="0" points="59.5,-340.5 0.5,-340.5 0.5,-281.5 59.5,-281.5 59.5,-340.5"/>
<image xlink:href="/cti-documentation/img/icons/indicator.png" width="44.25px" height="44.25px" preserveAspectRatio="xMinYMin meet" x="7.875" y="-333.125"/>
</g>
<!-- indicator&#45;&gt;attack_pattern -->
<g id="edge14" class="edge"><title>indicator&#45;&gt;attack_pattern</title>
<path fill="none" stroke="black" stroke-width="0.3" d="M59.841,-322.342C82.3629,-331.071 114.511,-343.25 143,-353 338.914,-420.048 383.267,-459.983 588,-491 614.366,-494.994 621.342,-491.661 648,-491 710.725,-489.444 727.273,-495.252 789,-484 813.978,-479.447 841.108,-470.827 862.409,-463.163"/>
<polygon fill="black" stroke="black" stroke-width="0.3" points="863.883,-466.351 872.06,-459.614 861.466,-459.781 863.883,-466.351"/>
<text text-anchor="middle" x="466" y="-479.8" font-family="Helvetica,sans-Serif" font-size="14.00">Indicates</text>
</g>
<!-- indicator&#45;&gt;campaign -->
<g id="edge15" class="edge"><title>indicator&#45;&gt;campaign</title>
<path fill="none" stroke="black" stroke-width="0.3" d="M59.5833,-307.158C149.516,-295.57 425.433,-263.966 505,-301 544.311,-319.297 575.765,-358.56 595.212,-388.231"/>
<polygon fill="black" stroke="black" stroke-width="0.3" points="592.29,-390.157 600.617,-396.708 598.192,-386.395 592.29,-390.157"/>
<text text-anchor="middle" x="314" y="-289.8" font-family="Helvetica,sans-Serif" font-size="14.00">Indicates</text>
</g>
<!-- intrusion_set -->
<g id="node6" class="node"><title>intrusion_set</title>
<polygon fill="none" stroke="black" stroke-width="0" points="343.5,-379.5 284.5,-379.5 284.5,-320.5 343.5,-320.5 343.5,-379.5"/>
<image xlink:href="/cti-documentation/img/icons/intrusion_set.png" width="44.25px" height="44.25px" preserveAspectRatio="xMinYMin meet" x="291.875" y="-372.125"/>
</g>
<!-- indicator&#45;&gt;intrusion_set -->
<g id="edge16" class="edge"><title>indicator&#45;&gt;intrusion_set</title>
<path fill="none" stroke="black" stroke-width="0.3" d="M59.5916,-314.954C110.474,-321.991 216.777,-336.693 274.203,-344.634"/>
<polygon fill="black" stroke="black" stroke-width="0.3" points="273.948,-348.132 284.333,-346.035 274.907,-341.198 273.948,-348.132"/>
<text text-anchor="middle" x="172" y="-337.8" font-family="Helvetica,sans-Serif" font-size="14.00">Indicates</text>
</g>
<!-- indicator&#45;&gt;malware -->
<g id="edge17" class="edge"><title>indicator&#45;&gt;malware</title>
<path fill="none" stroke="black" stroke-width="0.3" d="M53.6957,-340.559C129.943,-439.458 375.033,-753.931 427,-778 692.908,-901.157 821.407,-796.252 1073,-646 1105.5,-626.594 1138.1,-598.86 1161.87,-576.769"/>
<polygon fill="black" stroke="black" stroke-width="0.3" points="1164.37,-579.214 1169.26,-569.812 1159.58,-574.117 1164.37,-579.214"/>
<text text-anchor="middle" x="618" y="-835.8" font-family="Helvetica,sans-Serif" font-size="14.00">Indicates</text>
</g>
<!-- threat_actor -->
<g id="node10" class="node"><title>threat_actor</title>
<polygon fill="none" stroke="black" stroke-width="0" points="647.5,-279.5 588.5,-279.5 588.5,-220.5 647.5,-220.5 647.5,-279.5"/>
<image xlink:href="/cti-documentation/img/icons/threat_actor.png" width="44.25px" height="44.25px" preserveAspectRatio="xMinYMin meet" x="595.875" y="-272.125"/>
</g>
<!-- indicator&#45;&gt;threat_actor -->
<g id="edge18" class="edge"><title>indicator&#45;&gt;threat_actor</title>
<path fill="none" stroke="black" stroke-width="0.3" d="M59.616,-299.826C82.017,-291.438 114.112,-280.204 143,-273 300.57,-233.705 496.501,-241.286 578.306,-246.853"/>
<polygon fill="black" stroke="black" stroke-width="0.3" points="578.17,-250.352 588.392,-247.569 578.666,-243.37 578.17,-250.352"/>
<text text-anchor="middle" x="314" y="-253.8" font-family="Helvetica,sans-Serif" font-size="14.00">Indicates</text>
</g>
<!-- indicator&#45;&gt;tool -->
<g id="edge19" class="edge"><title>indicator&#45;&gt;tool</title>
<path fill="none" stroke="black" stroke-width="0.3" d="M59.9137,-294.081C81.943,-282.005 113.424,-266.459 143,-258 420.569,-178.616 501.28,-166.268 789,-190 920.11,-200.814 1255.33,-228.174 1373,-287 1405.85,-303.421 1435.52,-332.771 1456.06,-356.584"/>
<polygon fill="black" stroke="black" stroke-width="0.3" points="1453.55,-359.031 1462.67,-364.42 1458.9,-354.519 1453.55,-359.031"/>
<text text-anchor="middle" x="760" y="-193.8" font-family="Helvetica,sans-Serif" font-size="14.00">Indicates</text>
</g>
<!-- intrusion_set&#45;&gt;attack_pattern -->
<g id="edge23" class="edge"><title>intrusion_set&#45;&gt;attack_pattern</title>
<path fill="none" stroke="black" stroke-width="0.3" d="M343.671,-366.483C392.112,-393.276 494.077,-445.177 588,-464 685.134,-483.466 802.423,-467.151 862.067,-456.103"/>
<polygon fill="black" stroke="black" stroke-width="0.3" points="863.001,-459.488 872.17,-454.179 861.691,-452.612 863.001,-459.488"/>
<text text-anchor="middle" x="618" y="-475.8" font-family="Helvetica,sans-Serif" font-size="14.00">Uses</text>
</g>
<!-- intrusion_set&#45;&gt;identity -->
<g id="edge21" class="edge"><title>intrusion_set&#45;&gt;identity</title>
<path fill="none" stroke="black" stroke-width="0.3" d="M342.586,-320.461C422.635,-236.081 655.816,-0 759,-0 759,-0 759,-0 1487,-0 1587.78,-0 1681.15,-85.8047 1727.82,-136.904"/>
<polygon fill="black" stroke="black" stroke-width="0.3" points="1725.34,-139.386 1734.63,-144.483 1730.55,-134.707 1725.34,-139.386"/>
<text text-anchor="middle" x="1044" y="-3.8" font-family="Helvetica,sans-Serif" font-size="14.00">Targets</text>
</g>
<!-- intrusion_set&#45;&gt;malware -->
<g id="edge24" class="edge"><title>intrusion_set&#45;&gt;malware</title>
<path fill="none" stroke="black" stroke-width="0.3" d="M327.725,-379.408C359.566,-448.691 450.152,-621.125 588,-685 791.449,-779.272 1062.61,-628.472 1160.65,-566.058"/>
<polygon fill="black" stroke="black" stroke-width="0.3" points="1162.8,-568.835 1169.32,-560.481 1159.02,-562.948 1162.8,-568.835"/>
<text text-anchor="middle" x="760" y="-719.8" font-family="Helvetica,sans-Serif" font-size="14.00">Uses</text>
</g>
<!-- intrusion_set&#45;&gt;threat_actor -->
<g id="edge20" class="edge"><title>intrusion_set&#45;&gt;threat_actor</title>
<path fill="none" stroke="black" stroke-width="0.3" d="M343.684,-340.502C398.217,-322.445 516.88,-283.152 578.352,-262.797"/>
<polygon fill="black" stroke="black" stroke-width="0.3" points="579.673,-266.047 588.066,-259.581 577.473,-259.402 579.673,-266.047"/>
<text text-anchor="middle" x="466" y="-315.8" font-family="Helvetica,sans-Serif" font-size="14.00">Attributed&#45;to</text>
</g>
<!-- intrusion_set&#45;&gt;tool -->
<g id="edge25" class="edge"><title>intrusion_set&#45;&gt;tool</title>
<path fill="none" stroke="black" stroke-width="0.3" d="M343.727,-347.957C411.243,-343.269 585.32,-331.849 731,-328 1005.87,-320.737 1335.15,-369.443 1446.25,-387.474"/>
<polygon fill="black" stroke="black" stroke-width="0.3" points="1445.88,-390.96 1456.31,-389.12 1447.01,-384.051 1445.88,-390.96"/>
<text text-anchor="middle" x="902" y="-334.8" font-family="Helvetica,sans-Serif" font-size="14.00">Uses</text>
</g>
<!-- intrusion_set&#45;&gt;vulnerability -->
<g id="edge22" class="edge"><title>intrusion_set&#45;&gt;vulnerability</title>
<path fill="none" stroke="black" stroke-width="0.3" d="M322.249,-379.312C335.827,-429.494 369.079,-533.105 427,-602 615.463,-826.17 750.134,-836 1043,-836 1043,-836 1043,-836 1487,-836 1583.16,-836 1675.72,-761.252 1724.14,-714.582"/>
<polygon fill="black" stroke="black" stroke-width="0.3" points="1726.83,-716.846 1731.52,-707.348 1721.93,-711.845 1726.83,-716.846"/>
<text text-anchor="middle" x="1044" y="-839.8" font-family="Helvetica,sans-Serif" font-size="14.00">Targets</text>
</g>
<!-- malware&#45;&gt;identity -->
<g id="edge26" class="edge"><title>malware&#45;&gt;identity</title>
<path fill="none" stroke="black" stroke-width="0.3" d="M1228.69,-542.103C1263.71,-542.569 1324.26,-540.51 1373,-524 1508.74,-478.018 1545.6,-455.272 1647,-354 1688.89,-312.161 1722.36,-251.827 1741.45,-212.764"/>
<polygon fill="black" stroke="black" stroke-width="0.3" points="1744.81,-213.844 1745.99,-203.315 1738.51,-210.813 1744.81,-213.844"/>
<text text-anchor="middle" x="1486" y="-496.8" font-family="Helvetica,sans-Serif" font-size="14.00">Targets</text>
</g>
<!-- malware&#45;&gt;malware -->
<g id="edge29" class="edge"><title>malware&#45;&gt;malware</title>
<path fill="none" stroke="black" stroke-width="0.3" d="M1170.88,-570.375C1170.88,-580.167 1180.25,-588 1199,-588 1211.01,-588 1219.18,-584.785 1223.49,-579.9"/>
<polygon fill="black" stroke="black" stroke-width="0.3" points="1226.83,-580.966 1227.12,-570.375 1220.29,-578.472 1226.83,-580.966"/>
<text text-anchor="middle" x="1199" y="-591.8" font-family="Helvetica,sans-Serif" font-size="14.00">Variant&#45;of</text>
</g>
<!-- malware&#45;&gt;tool -->
<g id="edge28" class="edge"><title>malware&#45;&gt;tool</title>
<path fill="none" stroke="black" stroke-width="0.3" d="M1228.58,-535.414C1264.01,-527.72 1325.51,-511.806 1373,-486 1400.77,-470.913 1428.24,-448.49 1449.03,-429.558"/>
<polygon fill="black" stroke="black" stroke-width="0.3" points="1451.41,-432.122 1456.38,-422.761 1446.66,-426.984 1451.41,-432.122"/>
<text text-anchor="middle" x="1349" y="-510.8" font-family="Helvetica,sans-Serif" font-size="14.00">Uses</text>
</g>
<!-- malware&#45;&gt;vulnerability -->
<g id="edge27" class="edge"><title>malware&#45;&gt;vulnerability</title>
<path fill="none" stroke="black" stroke-width="0.3" d="M1228.63,-543.654C1300.51,-550.883 1493.79,-573.834 1647,-624 1672.73,-632.426 1700.14,-645.559 1721.4,-656.764"/>
<polygon fill="black" stroke="black" stroke-width="0.3" points="1719.94,-659.954 1730.41,-661.59 1723.25,-653.783 1719.94,-659.954"/>
<text text-anchor="middle" x="1486" y="-592.8" font-family="Helvetica,sans-Serif" font-size="14.00">Targets</text>
</g>
<!-- observed_data -->
<g id="node8" class="node"><title>observed_data</title>
<polygon fill="none" stroke="black" stroke-width="0" points="59.5,-417.5 0.5,-417.5 0.5,-358.5 59.5,-358.5 59.5,-417.5"/>
<image xlink:href="/cti-documentation/img/icons/observed_data.png" width="44.25px" height="44.25px" preserveAspectRatio="xMinYMin meet" x="7.875" y="-410.125"/>
</g>
<!-- report -->
<g id="node9" class="node"><title>report</title>
<polygon fill="none" stroke="black" stroke-width="0" points="59.5,-494.5 0.5,-494.5 0.5,-435.5 59.5,-435.5 59.5,-494.5"/>
<image xlink:href="/cti-documentation/img/icons/report.png" width="44.25px" height="44.25px" preserveAspectRatio="xMinYMin meet" x="7.875" y="-487.125"/>
</g>
<!-- threat_actor&#45;&gt;attack_pattern -->
<g id="edge34" class="edge"><title>threat_actor&#45;&gt;attack_pattern</title>
<path fill="none" stroke="black" stroke-width="0.3" d="M647.816,-271.503C670.325,-288.2 702.467,-311.828 731,-332 776.32,-364.039 829.233,-399.906 863.838,-423.159"/>
<polygon fill="black" stroke="black" stroke-width="0.3" points="861.972,-426.122 872.225,-428.789 865.873,-420.31 861.972,-426.122"/>
<text text-anchor="middle" x="760" y="-374.8" font-family="Helvetica,sans-Serif" font-size="14.00">Uses</text>
</g>
<!-- threat_actor&#45;&gt;identity -->
<g id="edge30" class="edge"><title>threat_actor&#45;&gt;identity</title>
<path fill="none" stroke="black" stroke-width="0.3" d="M647.612,-242.256C694.263,-229.899 789.77,-205.718 872,-192 997.194,-171.115 1029.25,-168.676 1156,-162 1368.91,-150.786 1624.61,-165.002 1720.33,-171.29"/>
<polygon fill="black" stroke="black" stroke-width="0.3" points="1720.2,-174.789 1730.41,-171.962 1720.67,-167.804 1720.2,-174.789"/>
<text text-anchor="middle" x="1199" y="-165.8" font-family="Helvetica,sans-Serif" font-size="14.00">Attributed&#45;to</text>
</g>
<!-- threat_actor&#45;&gt;identity -->
<g id="edge31" class="edge"><title>threat_actor&#45;&gt;identity</title>
<path fill="none" stroke="black" stroke-width="0.3" d="M647.913,-236.522C670.203,-226.591 702.018,-213.403 731,-205 792.203,-187.255 809.085,-189.115 872,-179 997.791,-158.776 1028.89,-148.687 1156,-140 1292.71,-130.657 1479.16,-146.922 1647,-161 1671.31,-163.039 1698.49,-166.173 1719.98,-168.853"/>
<polygon fill="black" stroke="black" stroke-width="0.3" points="1719.68,-172.343 1730.04,-170.125 1720.56,-165.398 1719.68,-172.343"/>
<text text-anchor="middle" x="1199" y="-143.8" font-family="Helvetica,sans-Serif" font-size="14.00">Impersonates</text>
</g>
<!-- threat_actor&#45;&gt;identity -->
<g id="edge32" class="edge"><title>threat_actor&#45;&gt;identity</title>
<path fill="none" stroke="black" stroke-width="0.3" d="M647.537,-224.986C712.734,-170.512 879.624,-46 1043,-46 1043,-46 1043,-46 1487,-46 1578.46,-46 1672.16,-105.981 1722.18,-143.824"/>
<polygon fill="black" stroke="black" stroke-width="0.3" points="1720.06,-146.607 1730.12,-149.924 1724.32,-141.056 1720.06,-146.607"/>
<text text-anchor="middle" x="1199" y="-49.8" font-family="Helvetica,sans-Serif" font-size="14.00">Targets</text>
</g>
<!-- threat_actor&#45;&gt;malware -->
<g id="edge35" class="edge"><title>threat_actor&#45;&gt;malware</title>
<path fill="none" stroke="black" stroke-width="0.3" d="M647.687,-261.161C720.594,-289.933 918.182,-370.455 1073,-457 1103.62,-474.119 1136.48,-496.369 1160.83,-513.668"/>
<polygon fill="black" stroke="black" stroke-width="0.3" points="1158.89,-516.59 1169.06,-519.564 1162.97,-510.898 1158.89,-516.59"/>
<text text-anchor="middle" x="902" y="-387.8" font-family="Helvetica,sans-Serif" font-size="14.00">Uses</text>
</g>
<!-- threat_actor&#45;&gt;tool -->
<g id="edge36" class="edge"><title>threat_actor&#45;&gt;tool</title>
<path fill="none" stroke="black" stroke-width="0.3" d="M647.795,-249.989C749.399,-250.683 1099.73,-259.312 1373,-342 1398.74,-349.788 1426.14,-362.429 1447.4,-373.297"/>
<polygon fill="black" stroke="black" stroke-width="0.3" points="1445.93,-376.473 1456.41,-377.984 1449.16,-370.263 1445.93,-376.473"/>
<text text-anchor="middle" x="1044" y="-283.8" font-family="Helvetica,sans-Serif" font-size="14.00">Uses</text>
</g>
<!-- threat_actor&#45;&gt;vulnerability -->
<g id="edge33" class="edge"><title>threat_actor&#45;&gt;vulnerability</title>
<path fill="none" stroke="black" stroke-width="0.3" d="M632.188,-279.512C651.322,-321.009 689.104,-398.215 731,-458 753.22,-489.707 764.364,-493.131 789,-523 827.744,-569.974 818.394,-603.12 872,-632 1021.31,-712.439 1568.92,-688.605 1720.11,-680.303"/>
<polygon fill="black" stroke="black" stroke-width="0.3" points="1720.51,-683.786 1730.3,-679.734 1720.12,-676.797 1720.51,-683.786"/>
<text text-anchor="middle" x="1199" y="-691.8" font-family="Helvetica,sans-Serif" font-size="14.00">Targets</text>
</g>
<!-- tool&#45;&gt;identity -->
<g id="edge37" class="edge"><title>tool&#45;&gt;identity</title>
<path fill="none" stroke="black" stroke-width="0.3" d="M1515.67,-381.103C1549.14,-365.262 1605.25,-336.238 1647,-302 1679.49,-275.358 1710.46,-238.791 1731.56,-211.562"/>
<polygon fill="black" stroke="black" stroke-width="0.3" points="1734.49,-213.5 1737.79,-203.432 1728.93,-209.245 1734.49,-213.5"/>
<text text-anchor="middle" x="1623" y="-338.8" font-family="Helvetica,sans-Serif" font-size="14.00">Targets</text>
</g>
<!-- tool&#45;&gt;vulnerability -->
<g id="edge38" class="edge"><title>tool&#45;&gt;vulnerability</title>
<path fill="none" stroke="black" stroke-width="0.3" d="M1515.08,-423.323C1564.97,-475.406 1668.91,-583.931 1723.6,-641.039"/>
<polygon fill="black" stroke="black" stroke-width="0.3" points="1721.22,-643.61 1730.66,-648.411 1726.27,-638.768 1721.22,-643.61"/>
<text text-anchor="middle" x="1623" y="-557.8" font-family="Helvetica,sans-Serif" font-size="14.00">Targets</text>
</g>
</g>
</svg>
