<?xml version="1.0" encoding="UTF-8" standalone="no"?>
<!DOCTYPE svg PUBLIC "-//W3C//DTD SVG 1.1//EN"
 "http://www.w3.org/Graphics/SVG/1.1/DTD/svg11.dtd">
<!-- Generated by graphviz version 2.42.3 (20191010.1750)
 -->
<!-- Title: STIX Pages: 1 -->
<svg width="492pt" height="591pt"
 viewBox="0.00 0.00 491.61 591.00" xmlns="http://www.w3.org/2000/svg" xmlns:xlink="http://www.w3.org/1999/xlink">
<g id="graph0" class="graph" transform="scale(1 1) rotate(0) translate(4 587)">
<title>STIX</title>
<polygon fill="white" stroke="transparent" points="-4,4 -4,-587 487.61,-587 487.61,4 -4,4"/>
<!-- attack_pattern -->
<g id="node1" class="node">
<title>attack_pattern</title>
<polygon fill="none" stroke="black" stroke-width="0" points="483.61,-506 424.61,-506 424.61,-447 483.61,-447 483.61,-506"/>
<image xlink:href="attack_pattern.png" width="59px" height="59px" preserveAspectRatio="xMinYMin meet" x="424.613" y="-506"/>
</g>
<!-- campaign -->
<g id="node2" class="node">
<title>campaign</title>
<polygon fill="none" stroke="black" stroke-width="0" points="59,-416 0,-416 0,-357 59,-357 59,-416"/>
<image xlink:href="campaign.png" width="59px" height="59px" preserveAspectRatio="xMinYMin meet" x="0" y="-416"/>
</g>
<!-- threat_actor -->
<g id="node9" class="node">
<title>threat_actor</title>
<polygon fill="none" stroke="black" stroke-width="0" points="266.26,-339 207.26,-339 207.26,-280 266.26,-280 266.26,-339"/>
<image xlink:href="threat_actor.png" width="59px" height="59px" preserveAspectRatio="xMinYMin meet" x="207.262" y="-339"/>
</g>
<!-- campaign&#45;&gt;threat_actor -->
<g id="edge14" class="edge">
<title>campaign&#45;&gt;threat_actor</title>
<path fill="none" stroke="black" stroke-width="0.3" d="M59.04,-375.79C95.17,-362.24 157.52,-338.85 197.68,-323.79"/>
<polygon fill="black" stroke="black" stroke-width="0.3" points="199,-327.03 207.13,-320.24 196.54,-320.47 199,-327.03"/>
<text text-anchor="middle" x="133.13" y="-364.3" font-family="Helvetica,sans-Serif" font-size="14.00">Attributed&#45;to</text>
</g>
<!-- identity -->
<g id="node3" class="node">
<title>identity</title>
<polygon fill="none" stroke="black" stroke-width="0" points="483.61,-429 424.61,-429 424.61,-370 483.61,-370 483.61,-429"/>
<image xlink:href="identity.png" width="59px" height="59px" preserveAspectRatio="xMinYMin meet" x="424.613" y="-429"/>
</g>
<!-- indicator -->
<g id="node4" class="node">
<title>indicator</title>
<polygon fill="none" stroke="black" stroke-width="0" points="59,-339 0,-339 0,-280 59,-280 59,-339"/>
<image xlink:href="indicator.png" width="59px" height="59px" preserveAspectRatio="xMinYMin meet" x="0" y="-339"/>
</g>
<!-- indicator&#45;&gt;threat_actor -->
<g id="edge17" class="edge">
<title>indicator&#45;&gt;threat_actor</title>
<path fill="none" stroke="black" stroke-width="0.3" d="M59.04,-309.5C94.94,-309.5 156.73,-309.5 196.91,-309.5"/>
<polygon fill="black" stroke="black" stroke-width="0.3" points="197.13,-313 207.13,-309.5 197.13,-306 197.13,-313"/>
<text text-anchor="middle" x="133.13" y="-312.3" font-family="Helvetica,sans-Serif" font-size="14.00">Indicates</text>
</g>
<!-- infrastructure -->
<g id="node5" class="node">
<title>infrastructure</title>
<polygon fill="none" stroke="black" stroke-width="0" points="483.61,-303 424.61,-303 424.61,-244 483.61,-244 483.61,-303"/>
<image xlink:href="infrastructure.png" width="59px" height="59px" preserveAspectRatio="xMinYMin meet" x="424.613" y="-303"/>
</g>
<!-- intrusion_set -->
<g id="node6" class="node">
<title>intrusion_set</title>
<polygon fill="none" stroke="black" stroke-width="0" points="59,-262 0,-262 0,-203 59,-203 59,-262"/>
<image xlink:href="intrusion_set.png" width="59px" height="59px" preserveAspectRatio="xMinYMin meet" x="0" y="-262"/>
</g>
<!-- intrusion_set&#45;&gt;threat_actor -->
<g id="edge15" class="edge">
<title>intrusion_set&#45;&gt;threat_actor</title>
<path fill="none" stroke="black" stroke-width="0.3" d="M59.04,-243.21C95.17,-256.76 157.52,-280.15 197.68,-295.21"/>
<polygon fill="black" stroke="black" stroke-width="0.3" points="196.54,-298.53 207.13,-298.76 199,-291.97 196.54,-298.53"/>
<text text-anchor="middle" x="133.13" y="-287.3" font-family="Helvetica,sans-Serif" font-size="14.00">Attributed&#45;to</text>
</g>
<!-- location -->
<g id="node7" class="node">
<title>location</title>
<polygon fill="none" stroke="black" stroke-width="0" points="481.11,-194.5 427.11,-194.5 427.11,-158.5 481.11,-158.5 481.11,-194.5"/>
</g>
<!-- malware -->
<g id="node8" class="node">
<title>malware</title>
<polygon fill="none" stroke="black" stroke-width="0" points="483.61,-583 424.61,-583 424.61,-524 483.61,-524 483.61,-583"/>
<image xlink:href="malware.png" width="59px" height="59px" preserveAspectRatio="xMinYMin meet" x="424.613" y="-583"/>
</g>
<!-- malware&#45;&gt;threat_actor -->
<g id="edge16" class="edge">
<title>malware&#45;&gt;threat_actor</title>
<path fill="none" stroke="black" stroke-width="0.3" d="M424.4,-532.31C413.62,-525.16 400.97,-517.68 388.61,-512.5 352.28,-497.27 331.62,-518.76 302.26,-492.5 261.18,-455.75 246.26,-391.21 240.85,-349.43"/>
<polygon fill="black" stroke="black" stroke-width="0.3" points="244.3,-348.85 239.67,-339.32 237.35,-349.66 244.3,-348.85"/>
<text text-anchor="middle" x="345.44" y="-515.3" font-family="Helvetica,sans-Serif" font-size="14.00">Authored&#45;by</text>
</g>
<!-- threat_actor&#45;&gt;attack_pattern -->
<g id="edge10" class="edge">
<title>threat_actor&#45;&gt;attack_pattern</title>
<path fill="none" stroke="black" stroke-width="0.3" d="M243.53,-339.29C251.28,-370.89 268.19,-419.86 302.26,-446.5 334.15,-471.43 381.17,-477.36 414.22,-478.04"/>
<polygon fill="black" stroke="black" stroke-width="0.3" points="414.4,-481.54 424.42,-478.1 414.44,-474.54 414.4,-481.54"/>
<text text-anchor="middle" x="345.44" y="-478.3" font-family="Helvetica,sans-Serif" font-size="14.00">Uses</text>
</g>
<!-- threat_actor&#45;&gt;identity -->
<g id="edge1" class="edge">
<title>threat_actor&#45;&gt;identity</title>
<path fill="none" stroke="black" stroke-width="0.3" d="M246.3,-339.12C255.5,-364.96 272.92,-400.85 302.26,-417.5 336.77,-437.08 382.81,-427.44 414.92,-416.15"/>
<polygon fill="black" stroke="black" stroke-width="0.3" points="416.25,-419.39 424.41,-412.62 413.81,-412.82 416.25,-419.39"/>
<text text-anchor="middle" x="345.44" y="-431.3" font-family="Helvetica,sans-Serif" font-size="14.00">Atributed&#45;to</text>
</g>
<!-- threat_actor&#45;&gt;identity -->
<g id="edge5" class="edge">
<title>threat_actor&#45;&gt;identity</title>
<path fill="none" stroke="black" stroke-width="0.3" d="M256.91,-339.07C268.23,-354.02 283.94,-370.98 302.26,-380.5 321.16,-390.32 376.15,-395.31 414.23,-397.66"/>
<polygon fill="black" stroke="black" stroke-width="0.3" points="414.3,-401.16 424.49,-398.25 414.7,-394.18 414.3,-401.16"/>
<text text-anchor="middle" x="345.44" y="-397.3" font-family="Helvetica,sans-Serif" font-size="14.00">Impersonates</text>
</g>
<!-- threat_actor&#45;&gt;identity -->
<g id="edge7" class="edge">
<title>threat_actor&#45;&gt;identity</title>
<path fill="none" stroke="black" stroke-width="0.3" d="M266.32,-319.74C277.52,-323.74 290.49,-328.36 302.26,-332.5 340.59,-345.99 351.64,-345.65 388.61,-362.5 397.59,-366.59 406.96,-371.54 415.69,-376.47"/>
<polygon fill="black" stroke="black" stroke-width="0.3" points="414.09,-379.59 424.5,-381.56 417.59,-373.53 414.09,-379.59"/>
<text text-anchor="middle" x="345.44" y="-365.3" font-family="Helvetica,sans-Serif" font-size="14.00">Targets</text>
</g>
<!-- threat_actor&#45;&gt;infrastructure -->
<g id="edge2" class="edge">
<title>threat_actor&#45;&gt;infrastructure</title>
<path fill="none" stroke="black" stroke-width="0.3" d="M266.35,-312.7C297.07,-315.27 347.08,-316.95 388.61,-306.5 397.66,-304.22 406.88,-300.5 415.41,-296.35"/>
<polygon fill="black" stroke="black" stroke-width="0.3" points="417.08,-299.43 424.36,-291.74 413.87,-293.21 417.08,-299.43"/>
<text text-anchor="middle" x="345.44" y="-317.3" font-family="Helvetica,sans-Serif" font-size="14.00">Compromises</text>
</g>
<!-- threat_actor&#45;&gt;infrastructure -->
<g id="edge3" class="edge">
<title>threat_actor&#45;&gt;infrastructure</title>
<path fill="none" stroke="black" stroke-width="0.3" d="M266.3,-298.74C277.38,-294.95 290.28,-291.02 302.26,-288.5 339.82,-280.62 383.53,-276.85 414.2,-275.06"/>
<polygon fill="black" stroke="black" stroke-width="0.3" points="414.68,-278.54 424.48,-274.51 414.3,-271.55 414.68,-278.54"/>
<text text-anchor="middle" x="345.44" y="-291.3" font-family="Helvetica,sans-Serif" font-size="14.00">Hosts</text>
</g>
<!-- threat_actor&#45;&gt;infrastructure -->
<g id="edge4" class="edge">
<title>threat_actor&#45;&gt;infrastructure</title>
<path fill="none" stroke="black" stroke-width="0.3" d="M266.36,-280.18C276.75,-271.47 289.18,-263.05 302.26,-258.5 338.89,-245.77 383.33,-252.66 414.45,-260.81"/>
<polygon fill="black" stroke="black" stroke-width="0.3" points="413.89,-264.28 424.47,-263.59 415.77,-257.54 413.89,-264.28"/>
<text text-anchor="middle" x="345.44" y="-261.3" font-family="Helvetica,sans-Serif" font-size="14.00">Owns</text>
</g>
<!-- threat_actor&#45;&gt;infrastructure -->
<g id="edge11" class="edge">
<title>threat_actor&#45;&gt;infrastructure</title>
<path fill="none" stroke="black" stroke-width="0.3" d="M254.16,-279.65C265.28,-262.7 281.69,-243.02 302.26,-233.5 337.09,-217.38 351.7,-222.98 388.61,-233.5 398.02,-236.18 407.39,-240.67 415.96,-245.69"/>
<polygon fill="black" stroke="black" stroke-width="0.3" points="414.23,-248.74 424.57,-251.06 417.94,-242.8 414.23,-248.74"/>
<text text-anchor="middle" x="345.44" y="-236.3" font-family="Helvetica,sans-Serif" font-size="14.00">Uses</text>
</g>
<!-- threat_actor&#45;&gt;location -->
<g id="edge6" class="edge">
<title>threat_actor&#45;&gt;location</title>
<path fill="none" stroke="black" stroke-width="0.3" d="M248.48,-279.59C258.61,-255.73 276.18,-223.45 302.26,-205.5 336.26,-182.1 384.28,-176.39 416.94,-175.54"/>
<polygon fill="black" stroke="black" stroke-width="0.3" points="417.02,-179.04 426.97,-175.42 416.93,-172.04 417.02,-179.04"/>
<text text-anchor="middle" x="345.44" y="-208.3" font-family="Helvetica,sans-Serif" font-size="14.00">Located&#45;at</text>
</g>
<!-- threat_actor&#45;&gt;location -->
<g id="edge8" class="edge">
<title>threat_actor&#45;&gt;location</title>
<path fill="none" stroke="black" stroke-width="0.3" d="M241.05,-279.88C246.73,-244.55 261.97,-186.96 302.26,-160.5 336.47,-138.03 384.75,-148.74 417.4,-160.63"/>
<polygon fill="black" stroke="black" stroke-width="0.3" points="416.41,-163.99 427,-164.32 418.92,-157.46 416.41,-163.99"/>
<text text-anchor="middle" x="345.44" y="-163.3" font-family="Helvetica,sans-Serif" font-size="14.00">Targets</text>
</g>
<!-- threat_actor&#45;&gt;malware -->
<g id="edge12" class="edge">
<title>threat_actor&#45;&gt;malware</title>
<path fill="none" stroke="black" stroke-width="0.3" d="M237.05,-339.05C237.62,-387.06 246.33,-481.53 302.26,-530.5 332.66,-557.11 380.37,-560.18 413.98,-558.31"/>
<polygon fill="black" stroke="black" stroke-width="0.3" points="414.64,-561.77 424.36,-557.55 414.13,-554.79 414.64,-561.77"/>
<text text-anchor="middle" x="345.44" y="-560.3" font-family="Helvetica,sans-Serif" font-size="14.00">Uses</text>
</g>
<!-- tool -->
<g id="node10" class="node">
<title>tool</title>
<polygon fill="none" stroke="black" stroke-width="0" points="483.61,-136 424.61,-136 424.61,-77 483.61,-77 483.61,-136"/>
<image xlink:href="tool.png" width="59px" height="59px" preserveAspectRatio="xMinYMin meet" x="424.613" y="-136"/>
</g>
<!-- threat_actor&#45;&gt;tool -->
<g id="edge13" class="edge">
<title>threat_actor&#45;&gt;tool</title>
<path fill="none" stroke="black" stroke-width="0.3" d="M239.41,-279.67C243.36,-239.01 256.78,-166.96 302.26,-129.5 333.35,-103.89 380.72,-100.59 414.07,-102.13"/>
<polygon fill="black" stroke="black" stroke-width="0.3" points="414.17,-105.64 424.37,-102.78 414.61,-98.66 414.17,-105.64"/>
<text text-anchor="middle" x="345.44" y="-132.3" font-family="Helvetica,sans-Serif" font-size="14.00">Uses</text>
</g>
<!-- vulnerability -->
<g id="node11" class="node">
<title>vulnerability</title>
<polygon fill="none" stroke="black" stroke-width="0" points="483.61,-59 424.61,-59 424.61,0 483.61,0 483.61,-59"/>
<image xlink:href="vulnerability.png" width="59px" height="59px" preserveAspectRatio="xMinYMin meet" x="424.613" y="-59"/>
</g>
<!-- threat_actor&#45;&gt;vulnerability -->
<g id="edge9" class="edge">
<title>threat_actor&#45;&gt;vulnerability</title>
<path fill="none" stroke="black" stroke-width="0.3" d="M238.07,-279.87C240.15,-232.51 251.01,-139.5 302.26,-84.5 331.54,-53.08 380.21,-39.56 414.33,-33.77"/>
<polygon fill="black" stroke="black" stroke-width="0.3" points="415.07,-37.2 424.42,-32.21 414,-30.28 415.07,-37.2"/>
<text text-anchor="middle" x="345.44" y="-87.3" font-family="Helvetica,sans-Serif" font-size="14.00">Targets</text>
</g>
</g>
</svg>
