<?xml version="1.0" encoding="UTF-8" standalone="no"?>
<!DOCTYPE svg PUBLIC "-//W3C//DTD SVG 1.1//EN"
 "http://www.w3.org/Graphics/SVG/1.1/DTD/svg11.dtd">
<!-- Generated by graphviz version 2.36.0 (20140111.2315)
 -->
<!-- Title: STIX Pages: 1 -->
<svg width="496pt" height="374pt"
 viewBox="0.00 0.00 496.00 374.00" xmlns="http://www.w3.org/2000/svg" xmlns:xlink="http://www.w3.org/1999/xlink">
<g id="graph0" class="graph" transform="scale(1 1) rotate(0) translate(4 370)">
<title>STIX</title>
<polygon fill="white" stroke="none" points="-4,4 -4,-370 492,-370 492,4 -4,4"/>
<!-- attack_pattern -->
<g id="node1" class="node"><title>attack_pattern</title>
<polygon fill="none" stroke="black" stroke-width="0" points="487.5,-366.5 428.5,-366.5 428.5,-307.5 487.5,-307.5 487.5,-366.5"/>
<image xlink:href="/cti-documentation/img/icons/attack_pattern.png" width="44.25px" height="44.25px" preserveAspectRatio="xMinYMin meet" x="435.875" y="-359.125"/>
</g>
<!-- identity -->
<g id="node2" class="node"><title>identity</title>
<polygon fill="none" stroke="black" stroke-width="0" points="487.5,-289.5 428.5,-289.5 428.5,-230.5 487.5,-230.5 487.5,-289.5"/>
<image xlink:href="/cti-documentation/img/icons/identity.png" width="44.25px" height="44.25px" preserveAspectRatio="xMinYMin meet" x="435.875" y="-282.125"/>
</g>
<!-- indicator -->
<g id="node3" class="node"><title>indicator</title>
<polygon fill="none" stroke="black" stroke-width="0" points="59.5,-289.5 0.5,-289.5 0.5,-230.5 59.5,-230.5 59.5,-289.5"/>
<image xlink:href="/cti-documentation/img/icons/indicator.png" width="44.25px" height="44.25px" preserveAspectRatio="xMinYMin meet" x="7.875" y="-282.125"/>
</g>
<!-- threat_actor -->
<g id="node6" class="node"><title>threat_actor</title>
<polygon fill="none" stroke="black" stroke-width="0" points="269.5,-250.5 210.5,-250.5 210.5,-191.5 269.5,-191.5 269.5,-250.5"/>
<image xlink:href="/cti-documentation/img/icons/threat_actor.png" width="44.25px" height="44.25px" preserveAspectRatio="xMinYMin meet" x="217.875" y="-243.125"/>
</g>
<!-- indicator&#45;&gt;threat_actor -->
<g id="edge1" class="edge"><title>indicator&#45;&gt;threat_actor</title>
<path fill="none" stroke="black" stroke-width="0.3" d="M59.9215,-254.577C96.5559,-247.708 159.804,-235.849 200.495,-228.22"/>
<polygon fill="black" stroke="black" stroke-width="0.3" points="201.14,-231.66 210.324,-226.377 199.85,-224.78 201.14,-231.66"/>
<text text-anchor="middle" x="135" y="-250.8" font-family="Helvetica,sans-Serif" font-size="14.00">Indicates</text>
</g>
<!-- intrusion_set -->
<g id="node4" class="node"><title>intrusion_set</title>
<polygon fill="none" stroke="black" stroke-width="0" points="59.5,-212.5 0.5,-212.5 0.5,-153.5 59.5,-153.5 59.5,-212.5"/>
<image xlink:href="/cti-documentation/img/icons/intrusion_set.png" width="44.25px" height="44.25px" preserveAspectRatio="xMinYMin meet" x="7.875" y="-205.125"/>
</g>
<!-- intrusion_set&#45;&gt;threat_actor -->
<g id="edge2" class="edge"><title>intrusion_set&#45;&gt;threat_actor</title>
<path fill="none" stroke="black" stroke-width="0.3" d="M59.9215,-188.284C96.4783,-194.962 159.536,-206.482 200.236,-213.918"/>
<polygon fill="black" stroke="black" stroke-width="0.3" points="199.858,-217.407 210.324,-215.761 201.116,-210.521 199.858,-217.407"/>
<text text-anchor="middle" x="135" y="-211.8" font-family="Helvetica,sans-Serif" font-size="14.00">Attributed&#45;to</text>
</g>
<!-- malware -->
<g id="node5" class="node"><title>malware</title>
<polygon fill="none" stroke="black" stroke-width="0" points="487.5,-212.5 428.5,-212.5 428.5,-153.5 487.5,-153.5 487.5,-212.5"/>
<image xlink:href="/cti-documentation/img/icons/malware.png" width="44.25px" height="44.25px" preserveAspectRatio="xMinYMin meet" x="435.875" y="-205.125"/>
</g>
<!-- threat_actor&#45;&gt;attack_pattern -->
<g id="edge7" class="edge"><title>threat_actor&#45;&gt;attack_pattern</title>
<path fill="none" stroke="black" stroke-width="0.3" d="M257.901,-250.276C269.345,-267.55 286.002,-288.427 306,-301 340.13,-322.458 385.932,-331.13 418.111,-334.633"/>
<polygon fill="black" stroke="black" stroke-width="0.3" points="418.175,-338.155 428.466,-335.634 418.849,-331.188 418.175,-338.155"/>
<text text-anchor="middle" x="349" y="-333.8" font-family="Helvetica,sans-Serif" font-size="14.00">Uses</text>
</g>
<!-- threat_actor&#45;&gt;identity -->
<g id="edge3" class="edge"><title>threat_actor&#45;&gt;identity</title>
<path fill="none" stroke="black" stroke-width="0.3" d="M267.671,-250.309C278.49,-260.122 291.788,-269.867 306,-275 342.667,-288.244 387.4,-281.164 418.621,-272.831"/>
<polygon fill="black" stroke="black" stroke-width="0.3" points="419.586,-276.196 428.256,-270.106 417.681,-269.46 419.586,-276.196"/>
<text text-anchor="middle" x="349" y="-285.8" font-family="Helvetica,sans-Serif" font-size="14.00">Attributed&#45;to</text>
</g>
<!-- threat_actor&#45;&gt;identity -->
<g id="edge4" class="edge"><title>threat_actor&#45;&gt;identity</title>
<path fill="none" stroke="black" stroke-width="0.3" d="M269.674,-228.649C280.946,-231.501 294.032,-234.621 306,-237 343.923,-244.54 387.632,-250.952 418.233,-255.075"/>
<polygon fill="black" stroke="black" stroke-width="0.3" points="418.106,-258.589 428.48,-256.436 419.028,-251.65 418.106,-258.589"/>
<text text-anchor="middle" x="349" y="-254.8" font-family="Helvetica,sans-Serif" font-size="14.00">Impersonates</text>
</g>
<!-- threat_actor&#45;&gt;identity -->
<g id="edge5" class="edge"><title>threat_actor&#45;&gt;identity</title>
<path fill="none" stroke="black" stroke-width="0.3" d="M269.508,-215.402C300.385,-210.487 350.755,-205.834 392,-218 401.665,-220.851 411.246,-225.636 419.962,-230.978"/>
<polygon fill="black" stroke="black" stroke-width="0.3" points="418.073,-233.924 428.362,-236.454 421.896,-228.06 418.073,-233.924"/>
<text text-anchor="middle" x="349" y="-221.8" font-family="Helvetica,sans-Serif" font-size="14.00">Targets</text>
</g>
<!-- threat_actor&#45;&gt;malware -->
<g id="edge8" class="edge"><title>threat_actor&#45;&gt;malware</title>
<path fill="none" stroke="black" stroke-width="0.3" d="M269.7,-200.47C280.543,-193.873 293.333,-187.398 306,-184 343.195,-174.023 387.422,-175.167 418.364,-177.954"/>
<polygon fill="black" stroke="black" stroke-width="0.3" points="418.021,-181.437 428.319,-178.948 418.716,-174.471 418.021,-181.437"/>
<text text-anchor="middle" x="349" y="-187.8" font-family="Helvetica,sans-Serif" font-size="14.00">Uses</text>
</g>
<!-- tool -->
<g id="node7" class="node"><title>tool</title>
<polygon fill="none" stroke="black" stroke-width="0" points="487.5,-135.5 428.5,-135.5 428.5,-76.5 487.5,-76.5 487.5,-135.5"/>
<image xlink:href="/cti-documentation/img/icons/tool.png" width="44.25px" height="44.25px" preserveAspectRatio="xMinYMin meet" x="435.875" y="-128.125"/>
</g>
<!-- threat_actor&#45;&gt;tool -->
<g id="edge9" class="edge"><title>threat_actor&#45;&gt;tool</title>
<path fill="none" stroke="black" stroke-width="0.3" d="M265.936,-191.726C277.196,-179.95 291.269,-167.046 306,-158 341.284,-136.333 386.787,-122.249 418.58,-114.275"/>
<polygon fill="black" stroke="black" stroke-width="0.3" points="419.495,-117.654 428.39,-111.898 417.847,-110.851 419.495,-117.654"/>
<text text-anchor="middle" x="349" y="-161.8" font-family="Helvetica,sans-Serif" font-size="14.00">Uses</text>
</g>
<!-- vulnerability -->
<g id="node8" class="node"><title>vulnerability</title>
<polygon fill="none" stroke="black" stroke-width="0" points="487.5,-58.5 428.5,-58.5 428.5,0.5 487.5,0.5 487.5,-58.5"/>
<image xlink:href="/cti-documentation/img/icons/vulnerability.png" width="44.25px" height="44.25px" preserveAspectRatio="xMinYMin meet" x="435.875" y="-51.125"/>
</g>
<!-- threat_actor&#45;&gt;vulnerability -->
<g id="edge6" class="edge"><title>threat_actor&#45;&gt;vulnerability</title>
<path fill="none" stroke="black" stroke-width="0.3" d="M251.51,-191.597C261.974,-165.791 280.204,-128.633 306,-104 338.23,-73.2226 385.533,-52.526 418.58,-40.8055"/>
<polygon fill="black" stroke="black" stroke-width="0.3" points="420.023,-44.0108 428.346,-37.4551 417.751,-37.3896 420.023,-44.0108"/>
<text text-anchor="middle" x="349" y="-107.8" font-family="Helvetica,sans-Serif" font-size="14.00">Targets</text>
</g>
</g>
</svg>
