<?xml version="1.0" encoding="UTF-8" standalone="no"?>
<!DOCTYPE svg PUBLIC "-//W3C//DTD SVG 1.1//EN"
 "http://www.w3.org/Graphics/SVG/1.1/DTD/svg11.dtd">
<!-- Generated by graphviz version 2.42.3 (20191010.1750)
 -->
<!-- Title: STIX Pages: 1 -->
<svg width="492pt" height="592pt"
 viewBox="0.00 0.00 491.61 592.00" xmlns="http://www.w3.org/2000/svg" xmlns:xlink="http://www.w3.org/1999/xlink">
<g id="graph0" class="graph" transform="scale(1 1) rotate(0) translate(4 588)">
<title>STIX</title>
<polygon fill="white" stroke="transparent" points="-4,4 -4,-588 487.61,-588 487.61,4 -4,4"/>
<!-- attack_pattern -->
<g id="node1" class="node">
<title>attack_pattern</title>
<polygon fill="none" stroke="black" stroke-width="0" points="483.61,-507 424.61,-507 424.61,-448 483.61,-448 483.61,-507"/>
<image xlink:href="/cti-documentation/img/icons/attack_pattern.png" width="59px" height="59px" preserveAspectRatio="xMinYMin meet" x="424.613" y="-507"/>
</g>
<!-- campaign -->
<g id="node2" class="node">
<title>campaign</title>
<polygon fill="none" stroke="black" stroke-width="0" points="59,-417 0,-417 0,-358 59,-358 59,-417"/>
<image xlink:href="/cti-documentation/img/icons/campaign.png" width="59px" height="59px" preserveAspectRatio="xMinYMin meet" x="0" y="-417"/>
</g>
<!-- threat_actor -->
<g id="node9" class="node">
<title>threat_actor</title>
<polygon fill="none" stroke="black" stroke-width="0" points="266.26,-340 207.26,-340 207.26,-281 266.26,-281 266.26,-340"/>
<image xlink:href="/cti-documentation/img/icons/threat_actor.png" width="59px" height="59px" preserveAspectRatio="xMinYMin meet" x="207.262" y="-340"/>
</g>
<!-- campaign&#45;&gt;threat_actor -->
<g id="edge14" class="edge">
<title>campaign&#45;&gt;threat_actor</title>
<path fill="none" stroke="black" stroke-width="0.3" d="M59.04,-376.79C95.17,-363.24 157.52,-339.85 197.68,-324.79"/>
<polygon fill="black" stroke="black" stroke-width="0.3" points="199,-328.03 207.13,-321.24 196.54,-321.47 199,-328.03"/>
<text text-anchor="middle" x="133.13" y="-365.3" font-family="Helvetica,sans-Serif" font-size="14.00">Attributed&#45;to</text>
</g>
<!-- identity -->
<g id="node3" class="node">
<title>identity</title>
<polygon fill="none" stroke="black" stroke-width="0" points="483.61,-430 424.61,-430 424.61,-371 483.61,-371 483.61,-430"/>
<image xlink:href="/cti-documentation/img/icons/identity.png" width="59px" height="59px" preserveAspectRatio="xMinYMin meet" x="424.613" y="-430"/>
</g>
<!-- indicator -->
<g id="node4" class="node">
<title>indicator</title>
<polygon fill="none" stroke="black" stroke-width="0" points="59,-340 0,-340 0,-281 59,-281 59,-340"/>
<image xlink:href="/cti-documentation/img/icons/indicator.png" width="59px" height="59px" preserveAspectRatio="xMinYMin meet" x="0" y="-340"/>
</g>
<!-- indicator&#45;&gt;threat_actor -->
<g id="edge17" class="edge">
<title>indicator&#45;&gt;threat_actor</title>
<path fill="none" stroke="black" stroke-width="0.3" d="M59.04,-310.5C94.94,-310.5 156.73,-310.5 196.91,-310.5"/>
<polygon fill="black" stroke="black" stroke-width="0.3" points="197.13,-314 207.13,-310.5 197.13,-307 197.13,-314"/>
<text text-anchor="middle" x="133.13" y="-313.3" font-family="Helvetica,sans-Serif" font-size="14.00">Indicates</text>
</g>
<!-- infrastructure -->
<g id="node5" class="node">
<title>infrastructure</title>
<polygon fill="none" stroke="black" stroke-width="0" points="483.61,-306 424.61,-306 424.61,-247 483.61,-247 483.61,-306"/>
<image xlink:href="/cti-documentation/img/icons/infrastructure.png" width="59px" height="59px" preserveAspectRatio="xMinYMin meet" x="424.613" y="-306"/>
</g>
<!-- intrusion_set -->
<g id="node6" class="node">
<title>intrusion_set</title>
<polygon fill="none" stroke="black" stroke-width="0" points="59,-263 0,-263 0,-204 59,-204 59,-263"/>
<image xlink:href="/cti-documentation/img/icons/intrusion_set.png" width="59px" height="59px" preserveAspectRatio="xMinYMin meet" x="0" y="-263"/>
</g>
<!-- intrusion_set&#45;&gt;threat_actor -->
<g id="edge15" class="edge">
<title>intrusion_set&#45;&gt;threat_actor</title>
<path fill="none" stroke="black" stroke-width="0.3" d="M59.04,-244.21C95.17,-257.76 157.52,-281.15 197.68,-296.21"/>
<polygon fill="black" stroke="black" stroke-width="0.3" points="196.54,-299.53 207.13,-299.76 199,-292.97 196.54,-299.53"/>
<text text-anchor="middle" x="133.13" y="-288.3" font-family="Helvetica,sans-Serif" font-size="14.00">Attributed&#45;to</text>
</g>
<!-- location -->
<g id="node7" class="node">
<title>location</title>
<polygon fill="none" stroke="black" stroke-width="0" points="483.61,-213 424.61,-213 424.61,-154 483.61,-154 483.61,-213"/>
<image xlink:href="/cti-documentation/img/icons/location.png" width="59px" height="59px" preserveAspectRatio="xMinYMin meet" x="424.613" y="-213"/>
</g>
<!-- malware -->
<g id="node8" class="node">
<title>malware</title>
<polygon fill="none" stroke="black" stroke-width="0" points="483.61,-584 424.61,-584 424.61,-525 483.61,-525 483.61,-584"/>
<image xlink:href="/cti-documentation/img/icons/malware.png" width="59px" height="59px" preserveAspectRatio="xMinYMin meet" x="424.613" y="-584"/>
</g>
<!-- malware&#45;&gt;threat_actor -->
<g id="edge16" class="edge">
<title>malware&#45;&gt;threat_actor</title>
<path fill="none" stroke="black" stroke-width="0.3" d="M424.4,-533.31C413.62,-526.16 400.97,-518.68 388.61,-513.5 352.28,-498.27 331.62,-519.76 302.26,-493.5 261.18,-456.75 246.26,-392.21 240.85,-350.43"/>
<polygon fill="black" stroke="black" stroke-width="0.3" points="244.3,-349.85 239.67,-340.32 237.35,-350.66 244.3,-349.85"/>
<text text-anchor="middle" x="345.44" y="-516.3" font-family="Helvetica,sans-Serif" font-size="14.00">Authored&#45;by</text>
</g>
<!-- threat_actor&#45;&gt;attack_pattern -->
<g id="edge10" class="edge">
<title>threat_actor&#45;&gt;attack_pattern</title>
<path fill="none" stroke="black" stroke-width="0.3" d="M243.53,-340.29C251.28,-371.89 268.19,-420.86 302.26,-447.5 334.15,-472.43 381.17,-478.36 414.22,-479.04"/>
<polygon fill="black" stroke="black" stroke-width="0.3" points="414.4,-482.54 424.42,-479.1 414.44,-475.54 414.4,-482.54"/>
<text text-anchor="middle" x="345.44" y="-479.3" font-family="Helvetica,sans-Serif" font-size="14.00">Uses</text>
</g>
<!-- threat_actor&#45;&gt;identity -->
<g id="edge1" class="edge">
<title>threat_actor&#45;&gt;identity</title>
<path fill="none" stroke="black" stroke-width="0.3" d="M246.3,-340.12C255.5,-365.96 272.92,-401.85 302.26,-418.5 336.77,-438.08 382.81,-428.44 414.92,-417.15"/>
<polygon fill="black" stroke="black" stroke-width="0.3" points="416.25,-420.39 424.41,-413.62 413.81,-413.82 416.25,-420.39"/>
<text text-anchor="middle" x="345.44" y="-432.3" font-family="Helvetica,sans-Serif" font-size="14.00">Atributed&#45;to</text>
</g>
<!-- threat_actor&#45;&gt;identity -->
<g id="edge5" class="edge">
<title>threat_actor&#45;&gt;identity</title>
<path fill="none" stroke="black" stroke-width="0.3" d="M256.91,-340.07C268.23,-355.02 283.94,-371.98 302.26,-381.5 321.16,-391.32 376.15,-396.31 414.23,-398.66"/>
<polygon fill="black" stroke="black" stroke-width="0.3" points="414.3,-402.16 424.49,-399.25 414.7,-395.18 414.3,-402.16"/>
<text text-anchor="middle" x="345.44" y="-398.3" font-family="Helvetica,sans-Serif" font-size="14.00">Impersonates</text>
</g>
<!-- threat_actor&#45;&gt;identity -->
<g id="edge7" class="edge">
<title>threat_actor&#45;&gt;identity</title>
<path fill="none" stroke="black" stroke-width="0.3" d="M266.41,-320.25C306.9,-334.08 377.22,-358.29 388.61,-363.5 397.59,-367.61 406.95,-372.56 415.68,-377.49"/>
<polygon fill="black" stroke="black" stroke-width="0.3" points="414.08,-380.61 424.49,-382.58 417.58,-374.55 414.08,-380.61"/>
<text text-anchor="middle" x="345.44" y="-366.3" font-family="Helvetica,sans-Serif" font-size="14.00">Targets</text>
</g>
<!-- threat_actor&#45;&gt;infrastructure -->
<g id="edge2" class="edge">
<title>threat_actor&#45;&gt;infrastructure</title>
<path fill="none" stroke="black" stroke-width="0.3" d="M266.3,-313.5C296.97,-315.9 346.95,-317.43 388.61,-307.5 397.67,-305.34 406.94,-301.79 415.54,-297.85"/>
<polygon fill="black" stroke="black" stroke-width="0.3" points="417.09,-300.99 424.56,-293.47 414.03,-294.69 417.09,-300.99"/>
<text text-anchor="middle" x="345.44" y="-317.3" font-family="Helvetica,sans-Serif" font-size="14.00">Compromises</text>
</g>
<!-- threat_actor&#45;&gt;infrastructure -->
<g id="edge3" class="edge">
<title>threat_actor&#45;&gt;infrastructure</title>
<path fill="none" stroke="black" stroke-width="0.3" d="M266.28,-299.66C277.36,-295.86 290.26,-291.94 302.26,-289.5 339.82,-281.87 383.53,-278.72 414.2,-277.41"/>
<polygon fill="black" stroke="black" stroke-width="0.3" points="414.62,-280.9 424.48,-277.02 414.35,-273.9 414.62,-280.9"/>
<text text-anchor="middle" x="345.44" y="-292.3" font-family="Helvetica,sans-Serif" font-size="14.00">Hosts</text>
</g>
<!-- threat_actor&#45;&gt;infrastructure -->
<g id="edge4" class="edge">
<title>threat_actor&#45;&gt;infrastructure</title>
<path fill="none" stroke="black" stroke-width="0.3" d="M266.45,-281.75C276.85,-273.21 289.26,-264.95 302.26,-260.5 338.98,-247.94 383.4,-255.13 414.5,-263.51"/>
<polygon fill="black" stroke="black" stroke-width="0.3" points="413.93,-266.99 424.5,-266.37 415.85,-260.26 413.93,-266.99"/>
<text text-anchor="middle" x="345.44" y="-263.3" font-family="Helvetica,sans-Serif" font-size="14.00">Owns</text>
</g>
<!-- threat_actor&#45;&gt;infrastructure -->
<g id="edge11" class="edge">
<title>threat_actor&#45;&gt;infrastructure</title>
<path fill="none" stroke="black" stroke-width="0.3" d="M254.51,-280.65C265.65,-264.01 281.97,-244.81 302.26,-235.5 337.14,-219.49 351.76,-224.78 388.61,-235.5 397.97,-238.22 407.28,-242.76 415.78,-247.85"/>
<polygon fill="black" stroke="black" stroke-width="0.3" points="414.01,-250.87 424.32,-253.29 417.77,-244.97 414.01,-250.87"/>
<text text-anchor="middle" x="345.44" y="-238.3" font-family="Helvetica,sans-Serif" font-size="14.00">Uses</text>
</g>
<!-- threat_actor&#45;&gt;location -->
<g id="edge6" class="edge">
<title>threat_actor&#45;&gt;location</title>
<path fill="none" stroke="black" stroke-width="0.3" d="M248.41,-280.65C258.5,-256.89 276.04,-224.85 302.26,-207.5 335.59,-185.45 381.95,-181.04 414.45,-181.15"/>
<polygon fill="black" stroke="black" stroke-width="0.3" points="414.42,-184.65 424.48,-181.32 414.55,-177.65 414.42,-184.65"/>
<text text-anchor="middle" x="345.44" y="-210.3" font-family="Helvetica,sans-Serif" font-size="14.00">Located&#45;at</text>
</g>
<!-- threat_actor&#45;&gt;location -->
<g id="edge8" class="edge">
<title>threat_actor&#45;&gt;location</title>
<path fill="none" stroke="black" stroke-width="0.3" d="M241.34,-280.85C247.3,-246.16 262.79,-190.21 302.26,-164.5 335.73,-142.69 382.35,-153.31 414.88,-165.64"/>
<polygon fill="black" stroke="black" stroke-width="0.3" points="413.9,-169.02 424.49,-169.48 416.5,-162.52 413.9,-169.02"/>
<text text-anchor="middle" x="345.44" y="-167.3" font-family="Helvetica,sans-Serif" font-size="14.00">Targets</text>
</g>
<!-- threat_actor&#45;&gt;malware -->
<g id="edge12" class="edge">
<title>threat_actor&#45;&gt;malware</title>
<path fill="none" stroke="black" stroke-width="0.3" d="M237.05,-340.05C237.62,-388.06 246.33,-482.53 302.26,-531.5 332.66,-558.11 380.37,-561.18 413.98,-559.31"/>
<polygon fill="black" stroke="black" stroke-width="0.3" points="414.64,-562.77 424.36,-558.55 414.13,-555.79 414.64,-562.77"/>
<text text-anchor="middle" x="345.44" y="-561.3" font-family="Helvetica,sans-Serif" font-size="14.00">Uses</text>
</g>
<!-- tool -->
<g id="node10" class="node">
<title>tool</title>
<polygon fill="none" stroke="black" stroke-width="0" points="483.61,-136 424.61,-136 424.61,-77 483.61,-77 483.61,-136"/>
<image xlink:href="/cti-documentation/img/icons/tool.png" width="59px" height="59px" preserveAspectRatio="xMinYMin meet" x="424.613" y="-136"/>
</g>
<!-- threat_actor&#45;&gt;tool -->
<g id="edge13" class="edge">
<title>threat_actor&#45;&gt;tool</title>
<path fill="none" stroke="black" stroke-width="0.3" d="M239.87,-280.85C244.35,-241.18 258.39,-171.57 302.26,-134.5 333.29,-108.28 380.88,-103.37 414.29,-103.67"/>
<polygon fill="black" stroke="black" stroke-width="0.3" points="414.52,-107.18 424.6,-103.94 414.69,-100.18 414.52,-107.18"/>
<text text-anchor="middle" x="345.44" y="-137.3" font-family="Helvetica,sans-Serif" font-size="14.00">Uses</text>
</g>
<!-- vulnerability -->
<g id="node11" class="node">
<title>vulnerability</title>
<polygon fill="none" stroke="black" stroke-width="0" points="483.61,-59 424.61,-59 424.61,0 483.61,0 483.61,-59"/>
<image xlink:href="/cti-documentation/img/icons/vulnerability.png" width="59px" height="59px" preserveAspectRatio="xMinYMin meet" x="424.613" y="-59"/>
</g>
<!-- threat_actor&#45;&gt;vulnerability -->
<g id="edge9" class="edge">
<title>threat_actor&#45;&gt;vulnerability</title>
<path fill="none" stroke="black" stroke-width="0.3" d="M238.28,-280.85C240.67,-233.93 251.98,-142.28 302.26,-87.5 331.49,-55.65 380.18,-41.13 414.31,-34.62"/>
<polygon fill="black" stroke="black" stroke-width="0.3" points="415.16,-38.02 424.4,-32.84 413.94,-31.13 415.16,-38.02"/>
<text text-anchor="middle" x="345.44" y="-90.3" font-family="Helvetica,sans-Serif" font-size="14.00">Targets</text>
</g>
</g>
</svg>
