<?xml version="1.0" encoding="UTF-8" standalone="no"?>
<!DOCTYPE svg PUBLIC "-//W3C//DTD SVG 1.1//EN"
 "http://www.w3.org/Graphics/SVG/1.1/DTD/svg11.dtd">
<!-- Generated by graphviz version 2.42.3 (20191010.1750)
 -->
<!-- Title: STIX Pages: 1 -->
<svg width="454pt" height="469pt"
 viewBox="0.00 0.00 454.30 469.00" xmlns="http://www.w3.org/2000/svg" xmlns:xlink="http://www.w3.org/1999/xlink">
<g id="graph0" class="graph" transform="scale(1 1) rotate(0) translate(4 465)">
<title>STIX</title>
<polygon fill="white" stroke="transparent" points="-4,4 -4,-465 450.3,-465 450.3,4 -4,4"/>
<!-- attack_pattern -->
<g id="node1" class="node">
<title>attack_pattern</title>
<polygon fill="none" stroke="black" stroke-width="0" points="59,-461 0,-461 0,-402 59,-402 59,-461"/>
<image xlink:href="/cti-documentation/img/icons/attack_pattern.png" width="59px" height="59px" preserveAspectRatio="xMinYMin meet" x="0" y="-461"/>
</g>
<!-- tool -->
<g id="node11" class="node">
<title>tool</title>
<polygon fill="none" stroke="black" stroke-width="0" points="246.03,-268 187.03,-268 187.03,-209 246.03,-209 246.03,-268"/>
<image xlink:href="/cti-documentation/img/icons/tool.png" width="59px" height="59px" preserveAspectRatio="xMinYMin meet" x="187.034" y="-268"/>
</g>
<!-- attack_pattern&#45;&gt;tool -->
<g id="edge14" class="edge">
<title>attack_pattern&#45;&gt;tool</title>
<path fill="none" stroke="black" stroke-width="0.3" d="M59.04,-411.98C84.8,-393.54 122.87,-364.21 151.03,-333.5 166.78,-316.33 181.6,-295.04 193.05,-276.96"/>
<polygon fill="black" stroke="black" stroke-width="0.3" points="196.07,-278.72 198.38,-268.38 190.13,-275.02 196.07,-278.72"/>
<text text-anchor="middle" x="123.02" y="-384.3" font-family="Helvetica,sans-Serif" font-size="14.00">Uses</text>
</g>
<!-- campaign -->
<g id="node2" class="node">
<title>campaign</title>
<polygon fill="none" stroke="black" stroke-width="0" points="59,-384 0,-384 0,-325 59,-325 59,-384"/>
<image xlink:href="/cti-documentation/img/icons/campaign.png" width="59px" height="59px" preserveAspectRatio="xMinYMin meet" x="0" y="-384"/>
</g>
<!-- campaign&#45;&gt;tool -->
<g id="edge15" class="edge">
<title>campaign&#45;&gt;tool</title>
<path fill="none" stroke="black" stroke-width="0.3" d="M59.45,-337.44C84.01,-322.87 120.07,-301.19 151.03,-281.5 159.99,-275.81 169.54,-269.55 178.47,-263.6"/>
<polygon fill="black" stroke="black" stroke-width="0.3" points="180.44,-266.5 186.81,-258.03 176.55,-260.68 180.44,-266.5"/>
<text text-anchor="middle" x="123.02" y="-318.3" font-family="Helvetica,sans-Serif" font-size="14.00">Uses</text>
</g>
<!-- course_of_action -->
<g id="node3" class="node">
<title>course_of_action</title>
<polygon fill="none" stroke="black" stroke-width="0" points="59,-307 0,-307 0,-248 59,-248 59,-307"/>
<image xlink:href="/cti-documentation/img/icons/course_of_action.png" width="59px" height="59px" preserveAspectRatio="xMinYMin meet" x="0" y="-307"/>
</g>
<!-- course_of_action&#45;&gt;tool -->
<g id="edge13" class="edge">
<title>course_of_action&#45;&gt;tool</title>
<path fill="none" stroke="black" stroke-width="0.3" d="M59.01,-271.49C90.65,-264.82 141.9,-254.02 177.08,-246.6"/>
<polygon fill="black" stroke="black" stroke-width="0.3" points="177.93,-250 187,-244.52 176.49,-243.15 177.93,-250"/>
<text text-anchor="middle" x="123.02" y="-266.3" font-family="Helvetica,sans-Serif" font-size="14.00">Mitigates</text>
</g>
<!-- identity -->
<g id="node4" class="node">
<title>identity</title>
<polygon fill="none" stroke="black" stroke-width="0" points="446.3,-213 387.3,-213 387.3,-154 446.3,-154 446.3,-213"/>
<image xlink:href="/cti-documentation/img/icons/identity.png" width="59px" height="59px" preserveAspectRatio="xMinYMin meet" x="387.296" y="-213"/>
</g>
<!-- indicator -->
<g id="node5" class="node">
<title>indicator</title>
<polygon fill="none" stroke="black" stroke-width="0" points="59,-230 0,-230 0,-171 59,-171 59,-230"/>
<image xlink:href="/cti-documentation/img/icons/indicator.png" width="59px" height="59px" preserveAspectRatio="xMinYMin meet" x="0" y="-230"/>
</g>
<!-- indicator&#45;&gt;tool -->
<g id="edge12" class="edge">
<title>indicator&#45;&gt;tool</title>
<path fill="none" stroke="black" stroke-width="0.3" d="M59.01,-206.35C90.65,-212.85 141.9,-223.38 177.08,-230.6"/>
<polygon fill="black" stroke="black" stroke-width="0.3" points="176.5,-234.06 187,-232.64 177.9,-227.2 176.5,-234.06"/>
<text text-anchor="middle" x="123.02" y="-227.3" font-family="Helvetica,sans-Serif" font-size="14.00">Indicates</text>
</g>
<!-- infrastructure -->
<g id="node6" class="node">
<title>infrastructure</title>
<polygon fill="none" stroke="black" stroke-width="0" points="446.3,-435 387.3,-435 387.3,-376 446.3,-376 446.3,-435"/>
<image xlink:href="/cti-documentation/img/icons/infrastructure.png" width="59px" height="59px" preserveAspectRatio="xMinYMin meet" x="387.296" y="-435"/>
</g>
<!-- infrastructure&#45;&gt;tool -->
<g id="edge9" class="edge">
<title>infrastructure&#45;&gt;tool</title>
<path fill="none" stroke="black" stroke-width="0.3" d="M387.22,-403.94C352.93,-401.55 298.05,-395.87 282.03,-383.5 248.84,-357.86 232.31,-311.43 224.37,-278.01"/>
<polygon fill="black" stroke="black" stroke-width="0.3" points="227.75,-277.1 222.17,-268.09 220.92,-278.61 227.75,-277.1"/>
<text text-anchor="middle" x="316.67" y="-403.3" font-family="Helvetica,sans-Serif" font-size="14.00">Hosts</text>
</g>
<!-- intrusion_set -->
<g id="node7" class="node">
<title>intrusion_set</title>
<polygon fill="none" stroke="black" stroke-width="0" points="59,-153 0,-153 0,-94 59,-94 59,-153"/>
<image xlink:href="/cti-documentation/img/icons/intrusion_set.png" width="59px" height="59px" preserveAspectRatio="xMinYMin meet" x="0" y="-153"/>
</g>
<!-- intrusion_set&#45;&gt;tool -->
<g id="edge16" class="edge">
<title>intrusion_set&#45;&gt;tool</title>
<path fill="none" stroke="black" stroke-width="0.3" d="M59.48,-140.27C84.05,-154.61 120.12,-175.98 151.03,-195.5 160,-201.16 169.56,-207.41 178.5,-213.36"/>
<polygon fill="black" stroke="black" stroke-width="0.3" points="176.58,-216.28 186.84,-218.93 180.47,-210.46 176.58,-216.28"/>
<text text-anchor="middle" x="123.02" y="-198.3" font-family="Helvetica,sans-Serif" font-size="14.00">Uses</text>
</g>
<!-- location -->
<g id="node8" class="node">
<title>location</title>
<polygon fill="none" stroke="black" stroke-width="0" points="446.3,-136 387.3,-136 387.3,-77 446.3,-77 446.3,-136"/>
<image xlink:href="/cti-documentation/img/icons/location.png" width="59px" height="59px" preserveAspectRatio="xMinYMin meet" x="387.296" y="-136"/>
</g>
<!-- malware -->
<g id="node9" class="node">
<title>malware</title>
<polygon fill="none" stroke="black" stroke-width="0" points="446.3,-290 387.3,-290 387.3,-231 446.3,-231 446.3,-290"/>
<image xlink:href="/cti-documentation/img/icons/malware.png" width="59px" height="59px" preserveAspectRatio="xMinYMin meet" x="387.296" y="-290"/>
</g>
<!-- malware&#45;&gt;tool -->
<g id="edge10" class="edge">
<title>malware&#45;&gt;tool</title>
<path fill="none" stroke="black" stroke-width="0.3" d="M387.2,-268.44C359.83,-274.79 317.57,-281.29 282.03,-272.5 272.92,-270.24 263.67,-266.44 255.13,-262.18"/>
<polygon fill="black" stroke="black" stroke-width="0.3" points="256.66,-259.03 246.19,-257.42 253.37,-265.21 256.66,-259.03"/>
<text text-anchor="middle" x="316.67" y="-279.3" font-family="Helvetica,sans-Serif" font-size="14.00">Downloads</text>
</g>
<!-- malware&#45;&gt;tool -->
<g id="edge11" class="edge">
<title>malware&#45;&gt;tool</title>
<path fill="none" stroke="black" stroke-width="0.3" d="M387.25,-257.33C352.93,-253.52 295.13,-247.11 256.67,-242.84"/>
<polygon fill="black" stroke="black" stroke-width="0.3" points="256.69,-239.32 246.36,-241.7 255.92,-246.28 256.69,-239.32"/>
<text text-anchor="middle" x="316.67" y="-255.3" font-family="Helvetica,sans-Serif" font-size="14.00">Drops</text>
</g>
<!-- malware&#45;&gt;tool -->
<g id="edge17" class="edge">
<title>malware&#45;&gt;tool</title>
<path fill="none" stroke="black" stroke-width="0.3" d="M387.08,-242.13C376.29,-236.24 363.65,-230.48 351.3,-227.5 319.76,-219.9 282.97,-223.82 255.96,-228.98"/>
<polygon fill="black" stroke="black" stroke-width="0.3" points="255.21,-225.56 246.12,-230.99 256.62,-232.41 255.21,-225.56"/>
<text text-anchor="middle" x="316.67" y="-230.3" font-family="Helvetica,sans-Serif" font-size="14.00">Uses</text>
</g>
<!-- threat_actor -->
<g id="node10" class="node">
<title>threat_actor</title>
<polygon fill="none" stroke="black" stroke-width="0" points="59,-76 0,-76 0,-17 59,-17 59,-76"/>
<image xlink:href="/cti-documentation/img/icons/threat_actor.png" width="59px" height="59px" preserveAspectRatio="xMinYMin meet" x="0" y="-76"/>
</g>
<!-- threat_actor&#45;&gt;tool -->
<g id="edge18" class="edge">
<title>threat_actor&#45;&gt;tool</title>
<path fill="none" stroke="black" stroke-width="0.3" d="M59.1,-65.48C84.91,-83.44 123.01,-112.11 151.03,-142.5 167.06,-159.88 181.99,-181.58 193.44,-199.95"/>
<polygon fill="black" stroke="black" stroke-width="0.3" points="190.56,-201.96 198.77,-208.66 196.54,-198.31 190.56,-201.96"/>
<text text-anchor="middle" x="123.02" y="-145.3" font-family="Helvetica,sans-Serif" font-size="14.00">Uses</text>
</g>
<!-- tool&#45;&gt;identity -->
<g id="edge4" class="edge">
<title>tool&#45;&gt;identity</title>
<path fill="none" stroke="black" stroke-width="0.3" d="M232.25,-208.79C243.18,-190.31 260.01,-168.12 282.03,-157.5 312.25,-142.94 350.03,-152.48 377.72,-163.89"/>
<polygon fill="black" stroke="black" stroke-width="0.3" points="376.5,-167.18 387.07,-167.97 379.3,-160.77 376.5,-167.18"/>
<text text-anchor="middle" x="316.67" y="-160.3" font-family="Helvetica,sans-Serif" font-size="14.00">Targets</text>
</g>
<!-- tool&#45;&gt;infrastructure -->
<g id="edge5" class="edge">
<title>tool&#45;&gt;infrastructure</title>
<path fill="none" stroke="black" stroke-width="0.3" d="M231.91,-268.25C243.21,-289.18 260.6,-316.69 282.03,-335.5 307.81,-358.12 320.92,-353.58 351.3,-369.5 360.06,-374.09 369.41,-379.19 378.18,-384.07"/>
<polygon fill="black" stroke="black" stroke-width="0.3" points="376.64,-387.22 387.08,-389.04 380.06,-381.11 376.64,-387.22"/>
<text text-anchor="middle" x="316.67" y="-372.3" font-family="Helvetica,sans-Serif" font-size="14.00">Targets</text>
</g>
<!-- tool&#45;&gt;infrastructure -->
<g id="edge8" class="edge">
<title>tool&#45;&gt;infrastructure</title>
<path fill="none" stroke="black" stroke-width="0.3" d="M218.21,-268.24C220.95,-310.27 232.89,-385.78 282.03,-420.5 309.61,-439.98 348.66,-432.7 377.45,-422.65"/>
<polygon fill="black" stroke="black" stroke-width="0.3" points="379.03,-425.8 387.17,-419.03 376.58,-419.24 379.03,-425.8"/>
<text text-anchor="middle" x="316.67" y="-435.3" font-family="Helvetica,sans-Serif" font-size="14.00">Uses</text>
</g>
<!-- tool&#45;&gt;location -->
<g id="edge6" class="edge">
<title>tool&#45;&gt;location</title>
<path fill="none" stroke="black" stroke-width="0.3" d="M227.6,-208.69C237.52,-184.04 255.12,-150.17 282.03,-131.5 309.87,-112.19 348.49,-106.67 377.08,-105.55"/>
<polygon fill="black" stroke="black" stroke-width="0.3" points="377.2,-109.05 387.12,-105.32 377.04,-102.05 377.2,-109.05"/>
<text text-anchor="middle" x="316.67" y="-134.3" font-family="Helvetica,sans-Serif" font-size="14.00">Targets</text>
</g>
<!-- tool&#45;&gt;malware -->
<g id="edge1" class="edge">
<title>tool&#45;&gt;malware</title>
<path fill="none" stroke="black" stroke-width="0.3" d="M244.28,-208.91C254.95,-199.19 268.03,-189.59 282.03,-184.5 310.97,-173.99 323.36,-171.57 351.3,-184.5 356.16,-186.75 371.45,-204.66 385.92,-222.52"/>
<polygon fill="black" stroke="black" stroke-width="0.3" points="383.48,-225.07 392.47,-230.67 388.93,-220.68 383.48,-225.07"/>
<text text-anchor="middle" x="316.67" y="-187.3" font-family="Helvetica,sans-Serif" font-size="14.00">Delivers</text>
</g>
<!-- tool&#45;&gt;malware -->
<g id="edge2" class="edge">
<title>tool&#45;&gt;malware</title>
<path fill="none" stroke="black" stroke-width="0.3" d="M235.7,-268.26C246.92,-283.68 262.85,-301.01 282.03,-309.5 310.18,-321.96 322.12,-319.32 351.3,-309.5 360.99,-306.23 370.39,-300.87 378.87,-294.86"/>
<polygon fill="black" stroke="black" stroke-width="0.3" points="381.16,-297.51 387.02,-288.69 376.93,-291.93 381.16,-297.51"/>
<text text-anchor="middle" x="316.67" y="-320.3" font-family="Helvetica,sans-Serif" font-size="14.00">Drops</text>
</g>
<!-- vulnerability -->
<g id="node12" class="node">
<title>vulnerability</title>
<polygon fill="none" stroke="black" stroke-width="0" points="446.3,-59 387.3,-59 387.3,0 446.3,0 446.3,-59"/>
<image xlink:href="/cti-documentation/img/icons/vulnerability.png" width="59px" height="59px" preserveAspectRatio="xMinYMin meet" x="387.296" y="-59"/>
</g>
<!-- tool&#45;&gt;vulnerability -->
<g id="edge3" class="edge">
<title>tool&#45;&gt;vulnerability</title>
<path fill="none" stroke="black" stroke-width="0.3" d="M223.58,-208.85C231.7,-175.88 249.07,-122.9 282.03,-89.5 308.1,-63.09 347.87,-47.3 377.27,-38.6"/>
<polygon fill="black" stroke="black" stroke-width="0.3" points="378.52,-41.88 387.2,-35.81 376.63,-35.14 378.52,-41.88"/>
<text text-anchor="middle" x="316.67" y="-92.3" font-family="Helvetica,sans-Serif" font-size="14.00">Has</text>
</g>
<!-- tool&#45;&gt;vulnerability -->
<g id="edge7" class="edge">
<title>tool&#45;&gt;vulnerability</title>
<path fill="none" stroke="black" stroke-width="0.3" d="M216.62,-208.81C217,-161.78 225.51,-71.21 282.03,-29.5 309.11,-9.52 348.4,-12.16 377.39,-18.21"/>
<polygon fill="black" stroke="black" stroke-width="0.3" points="376.65,-21.63 387.18,-20.46 378.22,-14.81 376.65,-21.63"/>
<text text-anchor="middle" x="316.67" y="-32.3" font-family="Helvetica,sans-Serif" font-size="14.00">Targets</text>
</g>
</g>
</svg>
