<svg xmlns="http://www.w3.org/2000/svg" viewBox="0 0 288 126"><defs><style>.cls-1{fill:#fff;}.cls-2{fill:#ffc30d;}</style></defs><title>LOGO_TAXII</title><g id="TAXII"><rect class="cls-1" x="2.08" y="2.1" width="283.84" height="121.8" rx="9.41" ry="9.41"/><rect class="cls-2" x="30.25" y="89.55" width="11.05" height="11.04"/><rect x="41.29" y="89.55" width="11.04" height="11.04"/><rect class="cls-2" x="52.33" y="89.55" width="11.04" height="11.04"/><rect x="63.37" y="89.55" width="11.04" height="11.04"/><rect class="cls-2" x="74.42" y="89.55" width="11.04" height="11.04"/><rect x="85.46" y="89.55" width="11.05" height="11.04"/><rect class="cls-2" x="96.51" y="89.55" width="11.04" height="11.04"/><rect x="107.55" y="89.55" width="11.04" height="11.04"/><rect class="cls-2" x="118.59" y="89.55" width="11.04" height="11.04"/><rect x="129.63" y="89.55" width="11.04" height="11.04"/><rect class="cls-2" x="140.67" y="89.55" width="11.05" height="11.04"/><rect x="151.72" y="89.55" width="11.05" height="11.04"/><rect class="cls-2" x="162.76" y="89.55" width="11.04" height="11.04"/><rect x="173.8" y="89.55" width="11.05" height="11.04"/><rect class="cls-2" x="184.84" y="89.55" width="11.04" height="11.04"/><rect x="195.88" y="89.55" width="11.05" height="11.04"/><rect class="cls-2" x="206.92" y="89.55" width="11.05" height="11.04"/><rect x="217.97" y="89.55" width="11.04" height="11.04"/><rect class="cls-2" x="229.01" y="89.55" width="11.05" height="11.04"/><rect x="240.05" y="89.55" width="11.04" height="11.04"/><rect class="cls-2" x="251.1" y="89.55" width="11.04" height="11.04"/><path d="M276.78,95v9.17h-11v-11h9.17A1.87,1.87,0,0,1,276.78,95Z" transform="translate(-3.6 -3.6)"/><rect x="30.25" y="100.59" width="11.05" height="11.04"/><rect class="cls-2" x="41.29" y="100.59" width="11.04" height="11.04"/><rect x="52.33" y="100.59" width="11.04" height="11.04"/><rect class="cls-2" x="63.37" y="100.59" width="11.04" height="11.04"/><rect x="74.42" y="100.59" width="11.04" height="11.04"/><rect class="cls-2" x="85.46" y="100.59" width="11.05" height="11.04"/><rect x="96.51" y="100.59" width="11.04" height="11.04"/><rect class="cls-2" x="107.55" y="100.59" width="11.04" height="11.04"/><rect x="118.59" y="100.59" width="11.04" height="11.04"/><rect class="cls-2" x="129.63" y="100.59" width="11.04" height="11.04"/><rect x="140.67" y="100.59" width="11.05" height="11.04"/><rect class="cls-2" x="151.72" y="100.59" width="11.05" height="11.04"/><rect x="162.76" y="100.59" width="11.04" height="11.04"/><rect class="cls-2" x="173.8" y="100.59" width="11.05" height="11.04"/><rect x="184.84" y="100.59" width="11.04" height="11.04"/><rect class="cls-2" x="195.88" y="100.59" width="11.05" height="11.04"/><rect x="206.92" y="100.59" width="11.05" height="11.04"/><rect class="cls-2" x="217.97" y="100.59" width="11.04" height="11.04"/><rect x="229.01" y="100.59" width="11.05" height="11.04"/><rect class="cls-2" x="240.05" y="100.59" width="11.04" height="11.04"/><rect x="251.1" y="100.59" width="11.04" height="11.04"/><path d="M33.85,93.15v11h-11V95a1.87,1.87,0,0,1,1.87-1.87Z" transform="translate(-3.6 -3.6)"/><path class="cls-2" d="M33.85,104.19v11H24.68a1.87,1.87,0,0,1-1.87-1.87v-9.18Z" transform="translate(-3.6 -3.6)"/><path class="cls-2" d="M276.78,104.19v9.18a1.87,1.87,0,0,1-1.87,1.87h-9.17v-11Z" transform="translate(-3.6 -3.6)"/><path class="cls-2" d="M40,86.73a1.87,1.87,0,0,1-1.87-1.87V33.79a1.87,1.87,0,0,0-1.87-1.87h-16a1.87,1.87,0,0,1-1.87-1.87V19.84A1.87,1.87,0,0,1,20.25,18H73.51a1.87,1.87,0,0,1,1.87,1.87V30.05a1.87,1.87,0,0,1-1.87,1.87h-16a1.87,1.87,0,0,0-1.87,1.87V84.86a1.87,1.87,0,0,1-1.87,1.87Z" transform="translate(-3.6 -3.6)"/><path class="cls-2" d="M95.39,58.1a1.3,1.3,0,0,0,1.31,1.78H108a1.28,1.28,0,0,0,1.29-1.78l-6.51-20.16c-.32-1-.82-1-1.13,0ZM92.57,19.72A2.86,2.86,0,0,1,95.07,18h15.5a2.83,2.83,0,0,1,2.49,1.76l23,65.24a1.24,1.24,0,0,1-1.25,1.76H119.67A2.77,2.77,0,0,1,117.21,85l-3-9.06a2.77,2.77,0,0,0-2.46-1.77H92.5a2.7,2.7,0,0,0-2.42,1.78l-2.81,9a2.7,2.7,0,0,1-2.42,1.78H70.33A1.23,1.23,0,0,1,69.09,85Z" transform="translate(-3.6 -3.6)"/><rect class="cls-2" x="212.76" y="14.37" width="17.55" height="68.76" rx="1.87" ry="1.87"/><rect class="cls-2" x="240.19" y="14.37" width="17.55" height="68.76" rx="1.87" ry="1.87"/><path class="cls-2" d="M188.77,51.89a3.13,3.13,0,0,0,0,3.13l19.57,30.13c.56.86.18,1.57-.85,1.57H186.87A3.84,3.84,0,0,1,184,85.16l-7.39-11.39a1.12,1.12,0,0,0-2,0l-7.39,11.39a3.85,3.85,0,0,1-2.88,1.57H143.65c-1,0-1.41-.71-.85-1.57L162.37,55a3.13,3.13,0,0,0,0-3.13l-21-32.36c-.56-.86-.18-1.57.85-1.57h20.63a3.85,3.85,0,0,1,2.88,1.57l8.84,13.6a1.12,1.12,0,0,0,2,0l8.84-13.6A3.85,3.85,0,0,1,188.31,18h20.63c1,0,1.41.7.85,1.57Z" transform="translate(-3.6 -3.6)"/><polygon points="177.96 49.86 199.56 83.13 187.6 83.13 171.97 59.06 156.34 83.13 144.39 83.13 165.99 49.86 142.94 14.37 154.9 14.37 171.97 40.65 189.05 14.37 201.01 14.37 177.96 49.86"/><polygon points="264.01 83.13 264.01 76.44 262.11 76.44 262.11 75.68 266.64 75.68 266.64 76.44 264.86 76.44 264.86 83.13 264.01 83.13"/><polygon points="272.4 83.13 272.4 76.1 270.58 83.13 269.78 83.13 268.04 76.1 268.04 83.13 267.23 83.13 267.23 75.68 268.63 75.68 270.2 82.03 271.83 75.68 273.22 75.68 273.22 83.13 272.4 83.13"/><path class="cls-2" d="M280.16,129.6H15A11.51,11.51,0,0,1,3.6,118V15.16A11.51,11.51,0,0,1,15,3.6H280.16A11.51,11.51,0,0,1,291.6,15.16V118A11.51,11.51,0,0,1,280.16,129.6ZM15,7.8a7.33,7.33,0,0,0-7.28,7.35V118A7.33,7.33,0,0,0,15,125.4H280.16a7.33,7.33,0,0,0,7.28-7.35V15.16a7.33,7.33,0,0,0-7.28-7.35Z" transform="translate(-3.6 -3.6)"/></g></svg>